<svg id="stock-dispo" xmlns="http://www.w3.org/2000/svg" xmlns:xlink="http://www.w3.org/1999/xlink" width="97.254" height="94.689" viewBox="0 0 97.254 94.689">
  <defs>
    <clipPath id="clip-path">
      <rect id="Rectangle_921" data-name="Rectangle 921" width="97.254" height="94.689" fill="none"/>
    </clipPath>
  </defs>
  <g id="Groupe_885" data-name="Groupe 885" clip-path="url(#clip-path)">
    <path id="Tracé_1297" data-name="Tracé 1297" d="M14.326,96.766A6.333,6.333,0,0,1,8,90.44V52.383a6.333,6.333,0,0,1,6.326-6.326H27.669V14.326A6.334,6.334,0,0,1,34,8H73.335a6.334,6.334,0,0,1,6.327,6.326V46.057H93.006a6.333,6.333,0,0,1,6.326,6.326V90.44a6.333,6.333,0,0,1-6.326,6.326Z" transform="translate(-5.039 -5.039)" fill="#040506"/>
    <path id="Tracé_1298" data-name="Tracé 1298" d="M68.3,5.922a3.365,3.365,0,0,1,3.366,3.365V43.979h16.3a3.365,3.365,0,0,1,3.365,3.365V85.4a3.365,3.365,0,0,1-3.365,3.365H9.287A3.365,3.365,0,0,1,5.922,85.4V47.344a3.365,3.365,0,0,1,3.365-3.365h16.3V9.287a3.365,3.365,0,0,1,3.366-3.365ZM68.3,0H28.958a9.3,9.3,0,0,0-9.288,9.287v28.77H9.287A9.3,9.3,0,0,0,0,47.344V85.4a9.3,9.3,0,0,0,9.287,9.287h78.68A9.3,9.3,0,0,0,97.254,85.4V47.344a9.3,9.3,0,0,0-9.287-9.287H77.585V9.287A9.3,9.3,0,0,0,68.3,0" fill="#ffea00"/>
    <path id="Tracé_1299" data-name="Tracé 1299" d="M66.792,168.324H34.183V137H66.792Z" transform="translate(-21.53 -86.289)" fill="#ffe400"/>
    <path id="Tracé_1300" data-name="Tracé 1300" d="M87.322,65.51V34.184h32.609V65.51H87.322Z" transform="translate(-55 -21.531)" fill="#ffe400"/>
    <path id="Tracé_1301" data-name="Tracé 1301" d="M173.074,168.324H140.465V137h32.609Z" transform="translate(-88.473 -86.289)" fill="#ffe400"/>
    <path id="Tracé_1302" data-name="Tracé 1302" d="M50.464,137H34.184v31.326H66.793V137H50.464m9.377,7.454a3.366,3.366,0,0,1-3.366,3.366H44.5a3.365,3.365,0,0,1,0-6.731H56.474a3.366,3.366,0,0,1,3.366,3.365" transform="translate(-21.531 -86.289)" fill="#ffe400"/>
    <path id="Tracé_1303" data-name="Tracé 1303" d="M119.932,34.184H87.323V65.51h32.609ZM109.614,45H97.641a3.365,3.365,0,0,1,0-6.731h11.973a3.365,3.365,0,0,1,0,6.731" transform="translate(-55.001 -21.531)" fill="#ffe400"/>
    <path id="Tracé_1304" data-name="Tracé 1304" d="M156.77,137h-16.3v31.325h32.609V137H156.77m9.353,7.453a3.366,3.366,0,0,1-3.366,3.366H150.784a3.365,3.365,0,0,1,0-6.731h11.973a3.366,3.366,0,0,1,3.366,3.365" transform="translate(-88.474 -86.289)" fill="#ffe400"/>
    <path id="Tracé_1305" data-name="Tracé 1305" d="M66.793,103.566H34.184V72.24H66.793ZM53.853,65.51V34.184H86.462V65.51H53.853Zm52.28,38.056H73.524V72.241h32.609Z" transform="translate(-21.531 -21.531)" fill="#ffea00"/>
    <path id="Tracé_1306" data-name="Tracé 1306" d="M52.968,151.412a3.365,3.365,0,0,0,3.365,3.366H68.306a3.365,3.365,0,1,0,0-6.731H56.333a3.365,3.365,0,0,0-3.365,3.365" transform="translate(-33.362 -93.248)" fill="#040405"/>
    <path id="Tracé_1307" data-name="Tracé 1307" d="M159.25,151.412a3.365,3.365,0,0,0,3.365,3.366h11.973a3.365,3.365,0,1,0,0-6.731H162.615a3.365,3.365,0,0,0-3.365,3.365" transform="translate(-100.304 -93.248)" fill="#040405"/>
    <path id="Tracé_1308" data-name="Tracé 1308" d="M121.447,45.231H109.474a3.365,3.365,0,0,0,0,6.731h11.973a3.365,3.365,0,0,0,0-6.731" transform="translate(-66.833 -28.489)" fill="#040405"/>
  </g>
</svg>
