<?xml version="1.0" encoding="UTF-8"?><svg id="Calque_2" xmlns="http://www.w3.org/2000/svg" viewBox="0 0 514.08599 426.21314"><defs><style>.cls-1{fill:#fff;stroke:#feea19;stroke-width:13px;}.cls-1,.cls-2{stroke-miterlimit:10;}.cls-2{fill:#feea19;stroke:#fff;stroke-width:2px;}</style></defs><g id="Calque_1-2"><polygon class="cls-1" points="190.0353 154.48907 148.67359 129.21247 138.71615 154.48907 111.14168 154.48907 118.0353 187.42524 51.397 192.02098 98.88636 216.53162 107.31189 242.57417 64.41827 242.57417 137.18423 273.97843 107.31189 308.44651 177.77998 292.36141 168.58849 328.36141 193.86508 300.02098 185.43955 320.70183 193.86508 313.80822 205.35444 381.37652 263.88465 318.40396 263.88465 362.06354 290.37572 327.59545 323.31189 374.31886 345.52466 309.97843 379.99274 320.70183 375.397 290.06354 422.1204 297.72311 399.14168 242.57417 422.1204 227.25503 399.90764 211.93588 438.20551 129.21247 343.22678 170.57417 347.82253 146.06354 324.07785 153.72311 327.90764 90.14864 278.1204 143.76566 263.88465 108.53162 244.80125 136.87205 198.46083 84.02098 190.0353 154.48907"/><polygon class="cls-2" points="87.49317 144.99478 1.51359 89.79263 16.58653 72.46018 87.49317 144.99478"/><polygon class="cls-2" points="179.05498 100.57511 136.36439 7.74581 158.40096 1.26533 179.05498 100.57511"/><polygon class="cls-2" points="276.65142 79.05467 282.8178 3.82567 298.37085 7.26894 276.65142 79.05467"/><polygon class="cls-2" points="372.16172 135.02869 438.57668 33.01328 456.16408 47.78794 372.16172 135.02869"/><polygon class="cls-2" points="427.67557 246.24065 495.66269 255.65649 487.69044 277.19832 427.67557 246.24065"/><polygon class="cls-2" points="403.43214 342.86466 460.0012 381.7343 443.22484 397.42383 403.43214 342.86466"/><polygon class="cls-2" points="180.10567 359.43991 139.89436 415.06326 124.61051 397.91651 180.10567 359.43991"/><polygon class="cls-2" points="94.68922 277.19832 40.26124 319.01342 30.51382 298.2145 94.68922 277.19832"/><polygon class="cls-2" points="114.33328 89.9098 110.98187 67.36267 126.96738 82.86938 147.00364 73.53103 136.30801 93.61283 152.35809 109.55397 130.38336 105.85094 119.81387 126.78131 116.31407 103.23585 94.68922 100.15013 114.33328 89.9098"/><polygon class="cls-2" points="368.62518 50.72142 388.15655 38.96852 379.97748 59.68319 396.29407 74.59712 373.64472 72.4333 365.08934 93.37441 360.06979 71.66253 336.68538 69.94104 357.08155 57.66775 351.62639 36.51598 368.62518 50.72142"/><polygon class="cls-2" points="293.79262 393.40564 313.56722 393.40564 298.22242 405.14462 303.67992 423.52831 287.81238 411.78933 272.08658 423.52831 278.06681 405.14462 261.45504 393.40564 282.10522 393.40564 287.51113 375.24344 293.79262 393.40564"/><polygon class="cls-2" points="104.83792 334.85265 128.83209 320.41428 118.78415 345.86212 138.82898 364.1838 111.00439 361.52556 100.49415 387.25158 94.32767 360.57868 65.60006 358.46383 90.65663 343.38617 83.955 317.40136 104.83792 334.85265"/><polygon class="cls-2" points="471.59721 172.09919 492.01642 152.93562 487.54766 179.92792 510.99869 193.62201 483.23766 196.87759 478.37548 224.23911 466.73502 199.46072 438.20551 203.43753 459.52883 183.42545 447.50998 159.43233 471.59721 172.09919"/></g></svg>