<?xml version="1.0" encoding="UTF-8"?><svg id="Calque_2" xmlns="http://www.w3.org/2000/svg" viewBox="0 0 190.35254 190.35309"><defs><style>.cls-1{fill:#fff;}</style></defs><g id="Calque_1-2"><g><path class="cls-1" d="M102.69434,41.57928c-2.55371-8.46863-7.27637-26.11987-7.51758-41.57928-.24316,15.45947-4.96484,33.11072-7.51855,41.57935,2.45801-.3418,4.96582-.53156,7.51855-.53156,2.55176,0,5.05957,.1897,7.51758,.53149Z"/><path class="cls-1" d="M47.58789,12.75128c7.52148,13.51294,12.25879,31.16608,14.28027,39.77448,3.93848-3.07996,8.31055-5.62579,13.01465-7.53021-6.44824-6.05939-19.35742-18.98102-27.29492-32.24426Z"/><path class="cls-1" d="M12.75098,47.58832c13.2627,7.93719,26.18457,20.84698,32.24414,27.29486,1.9043-4.70422,4.4502-9.07635,7.53027-13.01459-8.6084-2.02173-26.26172-6.75824-39.77441-14.28027Z"/><path class="cls-1" d="M41.5791,87.65845c-8.46875,2.55389-26.12012,7.27606-41.5791,7.51813,15.45898,.24231,33.11035,4.96442,41.5791,7.51813-.3418-2.45844-.53125-4.96558-.53125-7.51813s.18945-5.05969,.53125-7.51813Z"/><path class="cls-1" d="M12.75098,142.76483c13.5127-7.52179,31.16602-12.25842,39.77441-14.28021-3.08008-3.93823-5.62598-8.31042-7.53027-13.01465-6.05957,6.44794-18.98047,19.35791-32.24414,27.29486Z"/><path class="cls-1" d="M47.58789,177.60187c7.9375-13.26306,20.84668-26.18475,27.29492-32.24426-4.7041-1.90436-9.07617-4.4502-13.01465-7.53015-2.02148,8.60846-6.75781,26.2616-14.28027,39.77441Z"/><path class="cls-1" d="M87.6582,148.77386c2.55371,8.46863,7.27637,26.11987,7.51855,41.57922,.24219-15.45935,4.96387-33.11066,7.51758-41.57928-2.45801,.3418-4.96582,.53156-7.51758,.53156-2.55273,0-5.06055-.1897-7.51855-.53149Z"/><path class="cls-1" d="M142.76465,177.60187c-7.52148-13.51294-12.25879-31.16602-14.28027-39.77448-3.93848,3.07996-8.31055,5.62579-13.01465,7.53021,6.44824,6.05939,19.35742,18.98102,27.29492,32.24426Z"/><path class="cls-1" d="M177.60156,142.76483c-13.2627-7.93719-26.18457-20.84705-32.24414-27.29492-1.9043,4.70428-4.4502,9.07642-7.53027,13.01465,8.6084,2.02167,26.26172,6.75818,39.77441,14.28027Z"/><path class="cls-1" d="M148.77344,102.69464c8.46875-2.55389,26.12012-7.27606,41.5791-7.51807-15.45898-.24231-33.11035-4.96448-41.5791-7.51825,.3418,2.4585,.53125,4.9657,.53125,7.51825s-.18945,5.05963-.53125,7.51807Z"/><path class="cls-1" d="M177.60156,47.58832c-13.5127,7.52179-31.16602,12.25842-39.77441,14.28021,3.08008,3.93823,5.62598,8.31036,7.53027,13.01459,6.05957-6.44794,18.98047-19.35791,32.24414-27.2948Z"/><path class="cls-1" d="M142.60218,12.7026c-7.71521,13.4032-20.41396,26.54919-26.75452,32.71275,4.6676,1.79166,9.10048,4.23024,13.15414,7.28375,1.87737-8.64695,6.31231-26.36554,13.60038-39.9965Z"/></g></g></svg>