<?xml version="1.0" encoding="UTF-8"?><svg id="Calque_2" xmlns="http://www.w3.org/2000/svg" viewBox="0 0 214.08158 214.35517"><defs><style>.cls-1{fill:#feea10;}</style></defs><g id="Calque_1-2"><path class="cls-1" d="M54.32051,54.83103c-.85229,.85229-2.9026,.19666-4.55622-1.45697l-19.83419-19.83419c-1.65363-1.65363-2.30926-3.70393-1.45697-4.55622s2.9026-.19666,4.55622,1.45697l19.83419,19.83419c1.65363,1.65363,2.30926,3.70393,1.45697,4.55622Z"/><path class="cls-1" d="M35.3472,126.66141c.31196,1.16426-1.28099,2.61205-3.53988,3.21732l-27.094,7.25982c-2.2589,.60527-4.36233,.14792-4.67429-1.01634s1.28099-2.61205,3.53988-3.21732l27.094-7.25982c2.2589-.60527,4.36233-.14792,4.67429,1.01634Z"/><path class="cls-1" d="M88.06749,179.00797c1.16426,.31196,1.62161,2.41539,1.01634,4.67429l-7.25982,27.094c-.60527,2.2589-2.05306,3.85184-3.21732,3.53988s-1.62161-2.41539-1.01634-4.67429l7.25982-27.094c.60527-2.2589,2.05306-3.85184,3.21732-3.53988Z"/><path class="cls-1" d="M159.76108,159.52414c.85229-.85229,2.9026-.19666,4.55622,1.45697l19.83419,19.83419c1.65363,1.65363,2.30926,3.70393,1.45697,4.55622s-2.9026,.19666-4.55622-1.45697l-19.83419-19.83419c-1.65363-1.65363-2.30926-3.70393-1.45697-4.55622Z"/><path class="cls-1" d="M178.73438,87.69376c-.31196-1.16426,1.28099-2.61205,3.53988-3.21732l27.094-7.25982c2.2589-.60527,4.36233-.14792,4.67429,1.01634s-1.28099,2.61205-3.53988,3.21732l-27.094,7.25982c-2.2589,.60527-4.36233,.14792-4.67429-1.01634Z"/><path class="cls-1" d="M126.0141,35.3472c-1.16426-.31196-1.62161-2.41539-1.01634-4.67429l7.25982-27.094c.60527-2.2589,2.05306-3.85184,3.21732-3.53988s1.62161,2.41539,1.01634,4.67429l-7.25982,27.094c-.60527,2.2589-2.05306,3.85184-3.21732,3.53988Z"/></g></svg>