<?xml version="1.0" encoding="UTF-8"?><svg id="Calque_2" xmlns="http://www.w3.org/2000/svg" viewBox="0 0 619.59254 603.61225"><defs><style>.cls-1{fill:#fff;}</style></defs><g id="Calque_1-2"><g><path class="cls-1" d="M205.37541,0l16.01032,45.61582C125.43984,80.37973,54.61827,169.76021,48.71925,278.08471c-1.84647,33.90694,2.84698,66.65188,12.95774,97.02809l-42.21475,25.56391C4.98973,361.84632-1.93096,319.48085,.46644,275.45701,7.46115,147.01243,91.53313,41.05454,205.37541,0Z"/><g><path class="cls-1" d="M323.19816,554.89115c-69.54603,3.78727-134.22915-19.88352-183.53632-61.5495l-25.17836,41.85997c57.59032,46.25818,131.77805,72.2758,211.34241,67.94296,68.22405-3.71528,130.08937-29.19204,179.26897-69.30804l-25.11209-41.9995c-42.35823,36.48264-96.64672,59.77917-156.78462,63.0541Z"/><path class="cls-1" d="M414.21712,.60525l-16.01032,45.61582c95.94589,34.76391,166.76746,124.14438,172.66649,232.46889,1.84647,33.90694-2.84698,66.65188-12.95774,97.02809l42.21475,25.56391c14.47251-38.83039,21.3932-81.19586,18.99579-125.2197C612.13138,147.61768,528.0594,41.65978,414.21712,.60525Z"/></g></g></g></svg>