<?xml version="1.0" encoding="UTF-8"?><svg id="Calque_2" xmlns="http://www.w3.org/2000/svg" viewBox="0 0 332.7965 362.71139"><defs><style>.cls-1{fill:#fff;}.cls-2{fill:#ffed00;}</style></defs><g id="Calque_1-2"><g><polygon class="cls-2" points="42.13902 70.62338 80.11726 74.14932 59.48517 53.86231 42.13902 70.62338"/><polygon class="cls-2" points="76.83131 37.10123 80.11726 74.14932 59.48517 53.86231 76.83131 37.10123"/><path class="cls-1" d="M42.13902,70.62338S56.33442,52.49928,4.70664,0L59.48517,53.86231"/><path class="cls-1" d="M76.83131,37.10123S58.11434,50.7794,4.70664,0L59.48517,53.86231"/></g><g><polygon class="cls-2" points="295.36412 70.64996 257.38588 74.17589 278.01797 53.88889 295.36412 70.64996"/><polygon class="cls-2" points="260.67183 37.12781 257.38588 74.17589 278.01797 53.88889 260.67183 37.12781"/><path class="cls-1" d="M295.36412,70.64996S281.16872,52.52585,332.7965,.02658l-54.77853,53.86231"/><path class="cls-1" d="M260.67183,37.12781S279.3888,50.80597,332.7965,.02658l-54.77853,53.86231"/></g><g><polygon class="cls-2" points="295.21259 287.30077 257.23435 283.77484 277.86645 304.06184 295.21259 287.30077"/><polygon class="cls-2" points="260.5203 320.82292 257.23435 283.77484 277.86645 304.06184 260.5203 320.82292"/><path class="cls-1" d="M295.21259,287.30077s-14.1954,18.12411,37.43238,70.62338l-54.77853-53.86231"/><path class="cls-1" d="M260.5203,320.82292s18.71697-13.67816,72.12467,37.10123l-54.77853-53.86231"/></g><g><polygon class="cls-2" points="70.62338 325.27901 74.14932 287.30077 53.86231 307.93287 70.62338 325.27901"/><polygon class="cls-2" points="37.10123 290.58672 74.14932 287.30077 53.86231 307.93287 37.10123 290.58672"/><path class="cls-1" d="M70.62338,325.27901S52.49928,311.08361,0,362.71139l53.86231-54.77853"/><path class="cls-1" d="M37.10123,290.58672s13.67816,18.71697-37.10123,72.12467l53.86231-54.77853"/></g></g></svg>