<?xml version="1.0" encoding="UTF-8"?><svg id="Calque_2" xmlns="http://www.w3.org/2000/svg" viewBox="0 0 194.18159 172.09894"><defs><style>.cls-1{fill:#010202;}.cls-2{fill:#f18a56;}</style></defs><g id="Calque_1-2"><g id="Calque_1-2"><g><path class="cls-2" d="M183.79414,27.95247L124.88625,1.53991c-4.74574-2.12274-10.18704-2.05098-14.86906,.21601L11.34803,49.60196c-5.92928,2.87123-9.74431,8.82388-9.9039,15.41124L.00444,127.73127c-.1584,7.07867,3.93254,13.56368,10.38711,16.45214l58.91093,26.38177c2.16713,.97264,4.46791,1.47352,6.78786,1.52864,2.75402,.06689,5.52942-.52316,8.06949-1.75201l98.66612-47.81526c5.92927-2.87123,9.76339-8.82821,9.91129-15.42295l1.43968-62.71807c.16273-7.05959-3.92821-13.5446-10.38277-16.43306Zm-5.04557,78.82613c-.03409,1.35208-.81272,2.5622-2.02182,3.15778l-98.68088,47.83868s-.12619,.01862-.18343,.03162c-.46707,.19635-.95884,.32807-1.47357,.31453-.42236-.00442-.83993-.12029-1.22801-.28298-.04683-.0295-.10407-.0165-.15827-.03429l-58.89618-26.40518c-1.32811-.59132-2.16087-1.91711-2.12935-3.36892l1.43967-62.71807s.03253-.07761,.03559-.1084c.03263-.51906,.16932-1.02162,.39968-1.46519,.0295-.04683,.02821-.09669,.05771-.14352,.26114-.44053,.62764-.81468,1.06133-1.1138,.05291-.03208,.05899-.09366,.1119-.12574,.03383-.02774,.08803-.00995,.12186-.0377,.07936-.04812,.13532-.11099,.22639-.15173L116.13547,14.34176c.9593-.45859,2.06812-.47962,3.03894-.04796l58.89618,26.40518,.19901,.12536c.08195,.05162,.18602,.06812,.27967,.12711,.08195,.05162,.13744,.11928,.2003,.17523,.11707,.07374,.21939,.1709,.3217,.26805,.13007,.13099,.25275,.27367,.36374,.40899,.08324,.10149,.1591,.21468,.23497,.32788,.09623,.15873,.16602,.3335,.2358,.50827,.04941,.12924,.10619,.24676,.14389,.36862,.05503,.19818,.07928,.39333,.09615,.60017,.00258,.09974,.04332,.19081,.04591,.29055-.00737,.01171-.01042,.04249-.00608,.06158-.00737,.01171,.00129,.04987,.00562,.06895l-1.44271,62.74886Z"/><path class="cls-2" d="M81.46444,94.096l-.89676,38.90842-.36047,15.73232,91.39419-44.31812,1.26894-54.63336-14.14448,6.85341-77.25404,37.44563-.00737,.0117Zm79.57593-14.62756c.36825-.45481,1.00659-.55962,1.51302-.27332s.72573,.89864,.52875,1.44499l-5.25425,14.41567-.2074,.58884-2.32211,6.38615c3.02676-2.0015,5.87709-4.294,8.4907-6.83373,.47536-.4691,1.23206-.4503,1.70116,.02506s.4503,1.23206-.02506,1.70116c-3.57604,3.47055-7.56698,6.48354-11.87437,8.9865-.44236,.26096-.98483,.21358-1.3694-.11042-.38457-.324-.52496-.85394-.35315-1.33437l2.6627-7.31624,3.49487-9.57186,.5879-1.60824c-.18261,.21201-.38125,.39757-.56385,.60958-5.49932,6.13444-11.38322,11.94488-17.57232,17.38319-1.88015,1.66089-3.78805,3.28795-5.71632,4.86948-.22943,.18251-.49961,.27396-.79145,.27-.24197-.00526-.47048-.08379-.67383-.22823-.39499-.28151-.51501-.7659-.41952-1.22901,.00608-.06158-.01862-.12619,.00655-.1921l11.4123-29.3576c.24123-.61659,.94335-.92649,1.55993-.68527,.61659,.24123,.91479,.93597,.68527,1.55993l-9.72805,25.02242c7.61989-6.51561,14.73298-13.62846,21.31668-21.17287,.98068-1.11556,1.97306-2.22373,2.93033-3.35404l-.01909,.00434Z"/><polygon class="cls-2" points="68.63118 131.7319 68.27559 146.91132 73.00225 149.03841 73.35351 133.8399 74.27515 94.11321 69.54112 91.99784 68.63118 131.7319"/><polygon class="cls-2" points="21.22836 125.81148 25.57433 127.76416 26.83985 72.85067 22.49389 70.89799 21.22836 125.81148"/><polygon class="cls-2" points="33.95477 76.04063 32.68926 130.95413 61.16066 143.72136 61.50455 128.53456 62.42619 88.80787 36.34305 77.10352 33.95477 76.04063"/><path class="cls-2" d="M165.33413,45.44693l2.75603-1.33809-50.3287-22.56186L27.53822,65.27819h0l16.66494,7.47232,33.66376,15.08955h0l73.79284-35.76685,13.67436-6.62628Zm-73.48198-5.01501l26.28491-12.67994c.9593-.45859,2.06812-.47962,3.03894-.04796l26.84021,12.03406c1.27391,.57353,2.10104,1.83037,2.11811,3.23103s-.77501,2.68407-2.03398,3.28093l-4.53065,2.18246-21.75426,10.49748c-.51565,.2475-1.08069,.36578-1.6453,.35351-.47223-.00313-.93967-.11771-1.38628-.31727l-1.02936-.46853h0l-22.97598-10.30308-2.8275-1.27416c-1.27391-.57353-2.10104-1.83037-2.11811-3.23103s.77502-2.68406,2.03399-3.28093l-.01474,.02342Zm-44.66157,21.08623l30.31908-15.06067c.07936-.04812,.16435-.02729,.25542-.06803,.20122-.08582,.42716-.10702,.63705-.15468,.24805-.05633,.49177-.13173,.75283-.1308l.11448-.026c.54551,.01658,1.0524,.17237,1.51505,.39838l9.12682,4.09754,18.5524,8.31786c1.27391,.57353,2.08934,1.823,2.13286,3.20761,.02444,1.38895-.74856,2.66802-1.99149,3.29135l-30.3117,15.04896c-.52302,.25921-1.10716,.38182-1.67912,.38126-.47223-.00313-.93967-.11771-1.38628-.31727l-24.44024-10.9638-3.44104-1.54618c-1.27391-.57353-2.08934-1.823-2.13286-3.20761-.02445-1.38895,.74856-2.66802,1.99149-3.29135l-.01477,.02342Z"/><polygon class="cls-2" points="75.06088 72.5659 75.39952 57.62106 75.45241 55.51229 57.20398 64.57167 59.21154 65.46016 75.06088 72.5659"/><polygon class="cls-2" points="82.64566 55.20325 82.29136 70.43254 98.56525 62.35323 82.64566 55.20325"/><polygon class="cls-2" points="115.74677 49.74387 116.02016 37.91386 116.05509 36.74217 101.94012 43.54876 103.22573 44.12966 115.74677 49.74387"/><polygon class="cls-2" points="138.005 43.1449 123.24659 36.51379 123.18836 39.30597 122.92334 50.42179 134.99483 44.60089 138.005 43.1449"/><path class="cls-1" d="M180.18871,43.93c-.00258-.09974-.03595-.20251-.04591-.29055-.01687-.20685-.04112-.40199-.09615-.60017-.03033-.13357-.08711-.25109-.14389-.36862-.06978-.17477-.13956-.34954-.2358-.50827-.07586-.11319-.15173-.22639-.23497-.32788-.10361-.14702-.2263-.28972-.36374-.40899-.10232-.09715-.21201-.1826-.3217-.26805-.08195-.05162-.13007-.13099-.2003-.17523-.08195-.05162-.17864-.07982-.27967-.12711l-.19901-.12536L119.17138,14.32458c-.97083-.43167-2.07965-.41064-3.03894,.04796L17.45894,62.19951c-.09107,.04074-.14703,.10361-.22639,.15173-.04553,.02037-.08803,.00995-.12186,.0377-.05291,.03208-.05899,.09366-.1119,.12574-.4337,.29912-.8002,.67328-1.06133,1.1138-.0295,.04683-.04729,.10103-.05771,.14352-.23773,.45527-.36705,.94613-.39968,1.46519-.01041,.04249-.04424,.07024-.03559,.1084l-1.43968,62.71807c-.03151,1.45182,.80124,2.77761,2.12935,3.36893l58.89618,26.40518s.10407,.0165,.15827,.03429c.39544,.15099,.81302,.26685,1.22801,.28298,.50302,.00617,.99479-.12555,1.47357-.31453,.06462-.02471,.11882-.00692,.18343-.03162l98.65314-47.87251c1.22081-.5882,1.98772-1.8057,2.02182-3.15778l1.43968-62.71807s-.00129-.04987-.00562-.06895c.00737-.01171,.01042-.04249,.00608-.06158ZM22.49389,70.89799l4.33426,1.9453-1.26553,54.91349-4.33426-1.9453,1.26553-54.91349Zm46.12558,60.82654l.90993-39.73407,4.72666,2.12708-.90993,39.73407-.34388,15.1868-4.72666-2.12708,.34388-15.1868ZM168.09017,44.10884l-2.75603,1.33809-13.67437,6.62628-73.79284,35.76684h0l-33.66376-15.08955-16.66494-7.47232h0L117.76884,21.53527l50.3287,22.56187-.00737,.01171ZM33.95477,76.04063l2.3809,1.0746,26.08314,11.70435-.90993,39.73407-.35559,15.17942-28.47142-12.76724,1.26553-54.91349,.00738-.01171Zm46.6129,56.96379l.89676-38.90842,77.26141-37.45734,14.14448-6.85341-1.26894,54.63336-91.39852,44.29904,.36047-15.73232,.00433,.01909Z"/><path class="cls-1" d="M163.78604,95.22782c-2.61361,2.53973-5.45656,4.82053-8.4907,6.83373l2.32211-6.38615,.2074-.58884,5.25425-14.41567c.19698-.54634-.02232-1.15869-.52875-1.44499-.49906-.29801-1.14477-.18149-1.51302,.27332-.94556,1.13768-1.94965,2.23848-2.93033,3.35404-6.5837,7.54442-13.71587,14.66158-21.31668,21.17287l9.72805-25.02243c.24123-.61659-.06868-1.3187-.68527-1.55993-.60488-.23385-1.307,.07606-1.55993,.68527l-11.4123,29.35761s.00691,.11882-.00655,.1921c-.09549,.46311,.0319,.9358,.41952,1.22901,.20335,.14444,.43186,.22298,.67383,.22823,.27275,.00829,.56201-.08748,.79145-.27,1.92827-1.58152,3.83617-3.20859,5.71632-4.86948,6.1891-5.43831,12.06129-11.25612,17.57233-17.38319,.18261-.21201,.38125-.39757,.56385-.60958l-.5879,1.60824-3.49487,9.57186-2.6627,7.31624c-.17182,.48044-.03142,1.01037,.35315,1.33437,.39628,.33138,.93875,.37875,1.3694,.11042,4.30739-2.50296,8.29834-5.51594,11.87437-8.9865,.47536-.4691,.48679-1.21409,.02506-1.70116-.4691-.47536-1.22579-.49416-1.70116-.02506l.01908-.00434Z"/><path class="cls-1" d="M47.32025,68.00973l3.44104,1.54618,24.44024,10.9638c.44661,.19956,.92142,.30243,1.38628,.31727,.5763,.01963,1.14873-.11035,1.67912-.38126l30.3117-15.04896c1.24293-.62333,2.02764-1.89502,1.99149-3.29135-.02444-1.38895-.85157-2.6458-2.13286-3.20761l-18.5524-8.31786-9.12683-4.09755-.19035-.0872c-.19035-.0872-.39719-.07033-.60967-.12241-.23588-.06683-.45398-.18785-.71503-.18878-.03078-.00304-.07633,.01733-.11448,.026-.26105-.00092-.50477,.07449-.75283,.1308-.20989,.04766-.43582,.06886-.63705,.15468-.0837,.02904-.17606,.01992-.25542,.06803l-30.31908,15.06067c-1.24293,.62333-2.02764,1.89503-1.99149,3.29135,.02445,1.38895,.85157,2.6458,2.13286,3.20761l.01478-.02342Zm34.97849,2.4111l.34692-15.21759,15.92696,7.13827-16.27388,8.07932Zm-6.89184-12.81148l-.346,14.95654-15.83764-7.09836-2.00019-.9002,18.22936-9.05504-.0529,2.10877,.00737-.01171Z"/><path class="cls-1" d="M91.94798,46.95125l2.8275,1.27416,22.97598,10.30308h0l1.02936,.46853c.4466,.19956,.92142,.30243,1.38628,.31727,.56459,.01225,1.12965-.10601,1.64529-.35352l21.75425-10.49748,4.53065-2.18246c1.26635-.60857,2.05842-1.89199,2.03398-3.28093-.01706-1.40065-.8442-2.6575-2.11811-3.23103l-26.84021-12.03406c-.97083-.43167-2.07227-.42234-3.03894,.04796l-26.28491,12.67994c-1.26635,.60857-2.05842,1.89199-2.03399,3.28093,.01707,1.40065,.8442,2.6575,2.11811,3.23103l.01475-.02342Zm43.05422-2.36207l-12.07148,5.82091,.25331-11.12319,.06257-2.7731,14.76578,6.61941-3.01018,1.45598Zm-18.96295-6.67966l-.2734,11.83002-12.53275-5.6216-1.28562-.5809,14.11498-6.80659-.02322,1.17906Z"/></g></g></g></svg>