<?xml version="1.0" encoding="UTF-8"?><svg id="Calque_2" xmlns="http://www.w3.org/2000/svg" viewBox="0 0 237.8051 215.65447"><defs><style>.cls-1{fill:#6fbb79;}.cls-2{fill:#010101;}</style></defs><g id="Calque_1-2"><g><path class="cls-1" d="M61.21454,213.48718c7.77189,3.04315,16.26428,2.87617,23.91121-.46684l133.93865-58.58138c7.64694-3.34301,13.53384-9.46663,16.57652-17.24052,3.04269-7.77389,2.8688-16.26887-.46976-23.91474L193.81167,18.72059c-6.90725-15.78458-25.36882-23.00604-41.14789-16.10218L18.72268,61.19827C4.73095,67.32104-2.53576,82.52354,.80495,96.8951c.42926,1.8376,1.03047,3.66464,1.81202,5.45397l41.35904,94.56112c3.34301,7.64694,9.46663,13.53384,17.23853,16.57699ZM16.79268,96.14992c-.39509-.90417-.69954-1.8252-.91549-2.7542-1.68635-7.25456,1.98225-14.93019,9.04863-18.02268L158.86294,16.79411c7.96856-3.48711,17.28884,.1606,20.77642,8.13115l41.35704,94.56158c1.69151,3.85979,1.7743,8.14817,.23867,12.07311-1.53762,3.9254-4.5091,7.01579-8.36982,8.70331l-133.93865,58.58138c-3.86072,1.68752-8.14864,1.7723-12.07158,.23621-3.9254-1.53762-7.01579-4.5091-8.70331-8.36982L16.79268,96.14992Z"/><path class="cls-1" d="M209.8422,133.35094c2.01437-.8801,3.56428-2.49274,4.36578-4.54079,.61281-1.56712,.73148-3.24421,.3589-4.84703-.11446-.49241-.2757-.97815-.4828-1.45323L172.72704,27.94832c-1.81962-4.15781-6.68323-6.0615-10.84104-4.24188L27.94887,82.28536c-4.15934,1.82207-6.07374,6.70288-4.24388,10.84151l41.35904,94.56112c1.81962,4.15781,6.68123,6.06196,10.83951,4.24434l133.93865-58.58138Zm-70.01248,22.66251l-14.26323,6.23841c-1.90936,.83467-4.13301-.03527-4.96769-1.94463l-1.76631-4.03809-4.47164-10.22315c-.09377-.21355-.16607-.43419-.21797-.65746-.17146-.73762-.11886-1.51471,.16058-2.22896,.36546-.93177,1.08436-1.68093,2.00202-2.08126l14.26323-6.23841c1.90936-.83467,4.13301,.03527,4.96769,1.94463l4.47158,10.2229,1.76637,4.03834c.40584,.91427,.42085,1.95512,.05739,2.88643-.36546,.93177-1.08436,1.68093-2.00202,2.08126Zm-59.63443-29.06273l14.26323-6.23841c1.90936-.83467,4.13301,.03527,4.96769,1.94463l6.23841,14.26323c.83574,1.90491-.03574,4.13102-1.94463,4.96769l-14.26323,6.23841c-1.90936,.83467-4.13301-.03527-4.96769-1.94463l-6.23841-14.26323c-.09469-.21753-.16899-.43771-.22089-.66099-.40363-1.73639,.4737-3.56672,2.16552-4.3067Zm-10.9844-25.1163l14.2617-6.23596c1.90936-.83467,4.13301,.03527,4.96769,1.94463l6.23795,14.26124c.83495,1.89248-.03574,4.13102-1.94463,4.96769l-14.26124,6.23795c-.9152,.40186-1.95512,.42085-2.88643,.05739-.93177-.36546-1.68093-1.08436-2.08126-2.00202l-6.23841-14.26323c-.09377-.21355-.16607-.43419-.21797-.65746-.17146-.73762-.11886-1.51471,.16058-2.22896,.36546-.93177,1.08436-1.68093,2.00202-2.08126Zm42.27347-17.28404c.93177,.36546,1.68093,1.08436,2.08126,2.00202l6.23841,14.26323c.83741,1.89401-.03374,4.13056-1.94463,4.96769l-14.26124,6.23795c-.9152,.40186-1.95512,.42085-2.88643,.05739-.93177-.36546-1.68093-1.08436-2.08126-2.00202l-6.23841-14.26323c-.09469-.21753-.16899-.43771-.22089-.66099-.40363-1.73639,.4737-3.56672,2.16552-4.3067l14.26124-6.23795c.9152-.40186,1.95512-.42085,2.88643-.05739Zm7.97814-4.69337l14.26124-6.23795c.9152-.40186,1.95512-.42085,2.88643-.05739,.93177,.36546,1.68093,1.08436,2.08126,2.00202l6.23841,14.26323c.40278,.91919,.42285,1.95466,.05739,2.88643-.36546,.93177-1.08436,1.68093-2.00202,2.08126l-14.2617,6.23596c-1.90936,.83467-4.13301-.03527-4.96769-1.94463l-6.23795-14.26124c-.09469-.21753-.16899-.43771-.22089-.66099-.40363-1.73639,.4737-3.56672,2.16552-4.3067Zm25.24763,18.87788c.9172-.40232,1.95512-.42085,2.88643-.05739,.93177,.36546,1.68093,1.08436,2.08126,2.00202l6.23596,14.2617c.8394,1.89355-.03374,4.13056-1.94463,4.96769l-14.26124,6.23795c-1.90936,.83467-4.13301-.03527-4.96769-1.94463l-6.23795-14.26124c-.09377-.21355-.16607-.43419-.21797-.65746-.17146-.73762-.11886-1.51471,.16058-2.22896,.36546-.93177,1.08436-1.68093,2.00202-2.08126l14.26323-6.23841Zm-39.38903,17.22712l14.26323-6.23841c.9172-.40232,1.95512-.42085,2.88643-.05739,.93177,.36546,1.68093,1.08436,2.08126,2.00202l6.23642,14.2637c.84019,1.90597-.03374,4.13056-1.94463,4.96769l-14.2617,6.23596c-1.90936,.83467-4.13301-.03527-4.96769-1.94463l-6.23795-14.26124c-.09377-.21355-.16607-.43419-.21797-.65746-.17146-.73762-.11886-1.51471,.16058-2.22896,.36546-.93177,1.08436-1.68093,2.00202-2.08126Zm59.63443,29.06273l-14.26323,6.23841c-1.90936,.83467-4.13301-.03527-4.96769-1.94463l-1.76648-4.03884-4.47193-10.2244c-.09377-.21355-.16607-.43419-.21797-.65746-.17146-.73762-.11886-1.51471,.16058-2.22896,.36546-.93177,1.08436-1.68093,2.00202-2.08126l14.2637-6.23642c1.90936-.83467,4.13301,.03527,4.96769,1.94463l4.47116,10.22221,1.76679,4.03903c.40631,.91627,.42085,1.95512,.05739,2.88643-.36546,.93177-1.08436,1.68093-2.00202,2.08126Zm-29.99538-101.86538l27.10721-11.85694c.9152-.40186,1.95512-.42085,2.88643-.05739,.93177,.36546,1.68093,1.08436,2.08126,2.00202l39.28491,89.82367c.4083,.9158,.42285,1.95466,.05739,2.88643-.36546,.93177-1.08436,1.68093-2.00202,2.08126l-27.10767,11.85495c-1.90936,.83467-4.13301-.03527-4.96769-1.94463l-1.85958-4.25175-35.55471-81.29411-1.87016-4.27582c-.09469-.21753-.16899-.43771-.22089-.66099-.40363-1.73639,.4737-3.56672,2.16552-4.3067Zm-26.48404,11.58181l14.26323-6.23841c1.90936-.83467,4.13301,.03527,4.96769,1.94463l1.87064,4.27676,4.36777,9.98647c.84126,1.90152-.03374,4.13056-1.94463,4.96769l-14.26323,6.23841c-1.90936,.83467-4.13301-.03527-4.96769-1.94463l-4.36783-9.98672-1.87058-4.27651c-.09469-.21753-.16899-.43771-.22089-.66099-.40363-1.73639,.4737-3.56672,2.16552-4.3067Zm-25.12381,10.98824l14.2617-6.23596c1.90936-.83467,4.13301,.03527,4.96769,1.94463l1.86999,4.27507,4.36796,9.98617c.40186,.9152,.42285,1.95466,.05739,2.88643-.36546,.93177-1.08436,1.68093-2.00202,2.08126l-14.26323,6.23841c-.9172,.40232-1.95512,.42085-2.88643,.05739-.93177-.36546-1.68093-1.08436-2.08126-2.00202l-4.36658-9.98701-1.86984-4.27668c-.09469-.21753-.16899-.43771-.22089-.66099-.40363-1.73639,.4737-3.56672,2.16552-4.3067Zm-25.12534,10.9907l14.26124-6.23795c1.90936-.83467,4.13301,.03527,4.96769,1.94463l1.87005,4.27532,4.3679,9.98592c.3994,.91367,.42331,1.95665,.05739,2.88643-.36546,.93177-1.08436,1.68093-2.00202,2.08126l-14.26323,6.23841c-.9172,.40232-1.95512,.42085-2.88643,.05739-.93177-.36546-1.68093-1.08436-2.08126-2.00202l-4.36677-9.98671-1.86918-4.275c-.09469-.21753-.16899-.43771-.22089-.66099-.40363-1.73639,.4737-3.56672,2.16552-4.3067Zm-20.83248,30.21763l-6.23795-14.26124c-.09469-.21753-.16899-.43771-.22089-.66099-.40363-1.73639,.4737-3.56672,2.16552-4.3067l14.26124-6.23795c.9152-.40186,1.95512-.42085,2.88643-.05739,.93177,.36546,1.68093,1.08436,2.08126,2.00202l1.87005,4.27532,4.36837,9.98791c.4083,.9158,.42285,1.95466,.05739,2.88643-.36546,.93177-1.08436,1.68093-2.00202,2.08126l-9.96239,4.35613-4.29931,1.87983c-1.90936,.83467-4.13301-.03527-4.96769-1.94463Zm10.9844,25.1163l-6.23795-14.26124c-.09469-.21753-.16899-.43771-.22089-.66099-.40363-1.73639,.4737-3.56672,2.16552-4.3067l4.29989-1.88075,9.96135-4.3572c1.90936-.83467,4.13301,.03527,4.96769,1.94463l6.23795,14.26124c.8362,1.9069-.03574,4.13102-1.94463,4.96769l-9.9616,4.35726-4.29964,1.88069c-1.90936,.83467-4.13301-.03527-4.96769-1.94463Zm10.9844,25.1163l-6.23841-14.26323c-.09377-.21355-.16607-.43419-.21797-.65746-.17146-.73762-.11886-1.51471,.16058-2.22896,.36546-.93177,1.08436-1.68093,2.00202-2.08126l4.3005-1.88036,9.96319-4.35606c1.90936-.83467,4.13301,.03527,4.96769,1.94463l6.23795,14.26124c.40538,.91228,.42085,1.95512,.05739,2.88643-.36546,.93177-1.08436,1.68093-2.00202,2.08126l-9.96285,4.35755-4.30039,1.88086c-1.90936,.83467-4.13301-.03527-4.96769-1.94463Zm10.9844,25.1163l-6.23841-14.26323c-.09377-.21355-.16607-.43419-.21797-.65746-.17146-.73762-.11886-1.51471,.16058-2.22896,.36546-.93177,1.08436-1.68093,2.00202-2.08126l4.30088-1.88098,35.08815-15.34614c1.90936-.83467,4.13301,.03527,4.96769,1.94463l4.47151,10.22371,1.7669,4.03953c.40677,.91826,.42085,1.95512,.05739,2.88643-.36546,.93177-1.08436,1.68093-2.00202,2.08126l-39.38903,17.22712c-1.90936,.83467-4.13301-.03527-4.96769-1.94463Z"/><polygon class="cls-1" points="141.79768 49.37963 177.35264 130.67368 177.70074 131.46952 197.89609 122.63763 161.63424 39.72628 141.43935 48.56016 141.79768 49.37963"/><polygon class="cls-1" points="115.31411 60.96237 118.17067 67.49288 125.52158 64.27752 122.66514 57.74751 122.30622 56.92661 114.95531 60.14197 115.31411 60.96237"/><rect class="cls-1" x="127.21314" y="83.31413" width="8.02117" height="8.02236" transform="translate(-23.9918 59.87507) rotate(-23.61334)"/><rect class="cls-1" x="138.19732" y="108.43041" width="8.02236" height="8.02117" transform="translate(-33.14399 66.4221) rotate(-23.62771)"/><polygon class="cls-1" points="158.22135 139.04128 155.2614 132.27503 147.91003 135.4884 150.87038 142.25639 151.12539 142.83931 158.4763 139.62395 158.22135 139.04128"/><polygon class="cls-1" points="90.19006 71.95068 93.04487 78.48159 100.39578 75.26623 97.53915 68.73653 97.18088 67.91731 89.8315 71.13021 90.19006 71.95068"/><rect class="cls-1" x="102.08736" y="94.30283" width="8.02136" height="8.02337" transform="translate(-30.50938 50.76507) rotate(-23.62771)"/><rect class="cls-1" x="113.07173" y="119.41911" width="8.02218" height="8.02218" transform="translate(-39.63809 57.23384) rotate(-23.61334)"/><polygon class="cls-1" points="133.09597 150.03067 130.1356 143.26374 122.78469 146.4791 125.745 153.24578 125.99959 153.82802 133.3505 150.61266 133.09597 150.03067"/><polygon class="cls-1" points="65.06401 82.93944 67.91907 89.4703 75.26998 86.25494 72.41335 79.72524 72.05508 78.90602 64.70616 82.12091 65.06401 82.93944"/><rect class="cls-1" x="76.96177" y="105.29254" width="8.02117" height="8.02236" transform="translate(-37.02008 41.61613) rotate(-23.62771)"/><rect class="cls-1" x="87.94594" y="130.4076" width="8.02337" height="8.02337" transform="translate(-46.16127 48.11796) rotate(-23.62504)"/><polygon class="cls-1" points="50.14464 97.24564 47.28761 90.71419 46.92928 89.89473 39.58036 93.10962 42.79526 100.45854 43.6381 100.09005 50.14464 97.24564"/><polygon class="cls-1" points="61.12857 122.35994 57.91368 115.01102 51.40873 117.85664 50.56476 118.22592 53.77966 125.57484 54.62294 125.20598 61.12857 122.35994"/><polygon class="cls-1" points="72.11497 147.47577 68.90007 140.12685 62.39298 142.97113 61.54869 143.34022 64.76405 150.69113 65.60803 150.32186 72.11497 147.47577"/><polygon class="cls-1" points="107.97003 161.01994 105.0098 154.25245 73.37806 168.08701 72.53309 168.45652 75.74845 175.80743 108.22516 161.60336 107.97003 161.01994"/><path class="cls-2" d="M66.85502,199.08085c3.92294,1.53609,8.21086,1.45131,12.07158-.23621l133.93865-58.58138c3.86072-1.68752,6.8322-4.77791,8.36982-8.70331,1.53563-3.92493,1.45284-8.21331-.23867-12.07311L179.63936,24.92526c-3.48758-7.97055-12.80786-11.61826-20.77642-8.13115L24.92582,75.37304c-7.06638,3.09249-10.73498,10.76812-9.04863,18.02268,.21595,.929,.5204,1.85003,.91549,2.7542l41.35904,94.56112c1.68752,3.86072,4.77791,6.8322,8.70331,8.36982ZM27.94887,82.28536L161.886,23.70643c4.15781-1.81962,9.02143,.08407,10.84104,4.24188l41.35704,94.56158c.20709,.47508,.36833,.96082,.4828,1.45323,.37258,1.60282,.25392,3.27991-.3589,4.84703-.8015,2.04805-2.35141,3.66069-4.36578,4.54079l-133.93865,58.58138c-4.15828,1.81762-9.0199-.08653-10.83951-4.24434L23.705,93.12686c-1.82986-4.13862,.08453-9.01943,4.24388-10.84151Z"/><path class="cls-2" d="M133.0155,48.12706l1.87016,4.27582,35.55471,81.29411,1.85958,4.25175c.83467,1.90936,3.05833,2.77931,4.96769,1.94463l27.10767-11.85495c.91766-.40033,1.63656-1.14949,2.00202-2.08126,.36546-.93177,.35092-1.97062-.05739-2.88643l-39.28491-89.82367c-.40033-.91766-1.14949-1.63656-2.08126-2.00202-.93131-.36347-1.97123-.34447-2.88643,.05739l-27.10721,11.85694c-1.69182,.73998-2.56915,2.57031-2.16552,4.3067,.0519,.22328,.1262,.44345,.22089,.66099Zm64.88059,74.51057l-20.19535,8.83189-.34811-.79584-35.55496-81.29405-.35833-.81947,20.19489-8.83389,36.26186,82.91135Z"/><path class="cls-2" d="M106.53146,59.70886l1.87058,4.27651,4.36783,9.98672c.83467,1.90936,3.05833,2.77931,4.96769,1.94463l14.26323-6.23841c1.91089-.83713,2.78589-3.06616,1.94463-4.96769l-4.36777-9.98647-1.87064-4.27676c-.83467-1.90936-3.05833-2.77931-4.96769-1.94463l-14.26323,6.23841c-1.69182,.73998-2.56915,2.57031-2.16552,4.3067,.0519,.22328,.1262,.44345,.22089,.66099Zm18.99012,4.56866l-7.35091,3.21536-2.85655-6.53051-.35881-.82041,7.35091-3.21536,.35892,.82091,2.85644,6.53001Z"/><path class="cls-2" d="M117.51785,84.82469l6.23795,14.26124c.83467,1.90936,3.05833,2.77931,4.96769,1.94463l14.2617-6.23596c.91766-.40033,1.63656-1.14949,2.00202-2.08126,.36546-.93177,.3454-1.96724-.05739-2.88643l-6.23841-14.26323c-.40033-.91766-1.14949-1.63656-2.08126-2.00202-.93131-.36347-1.97123-.34447-2.88643,.05739l-14.26124,6.23795c-1.69182,.73998-2.56915,2.57031-2.16552,4.3067,.0519,.22328,.1262,.44345,.22089,.66099Zm8.42385,.43311l7.34892-3.2149,3.21536,7.35091-7.34938,3.2129-3.2149-7.34892Z"/><path class="cls-2" d="M128.28428,109.28353c.0519,.22328,.1242,.44392,.21797,.65746l6.23795,14.26124c.83467,1.90936,3.05833,2.77931,4.96769,1.94463l14.26124-6.23795c1.91089-.83713,2.78404-3.07414,1.94463-4.96769l-6.23596-14.2617c-.40033-.91766-1.14949-1.63656-2.08126-2.00202-.93131-.36347-1.96923-.34493-2.88643,.05739l-14.26323,6.23841c-.91766,.40033-1.63656,1.14949-2.00202,2.08126-.27944,.71425-.33205,1.49135-.16058,2.22896Zm8.64182,1.09057l7.35091-3.21536,3.2129,7.34938-7.34892,3.2149-3.2149-7.34892Z"/><path class="cls-2" d="M165.13336,136.01803l-4.47116-10.22221c-.83467-1.90936-3.05833-2.77931-4.96769-1.94463l-14.2637,6.23642c-.91766,.40033-1.63656,1.14949-2.00202,2.08126-.27944,.71425-.33205,1.49135-.16058,2.22896,.0519,.22328,.1242,.44392,.21797,.65746l4.47193,10.2244,1.76648,4.03884c.83467,1.90936,3.05833,2.77931,4.96769,1.94463l14.26323-6.23841c.91766-.40033,1.63656-1.14949,2.00202-2.08126,.36347-.93131,.34892-1.97016-.05739-2.88643l-1.76679-4.03903Zm-14.26298,6.23836l-2.96035-6.76799,7.35138-3.21337,2.95994,6.76624,.25496,.58268-7.35091,3.21536-.25501-.58293Z"/><path class="cls-2" d="M81.40765,70.69711l1.86984,4.27668,4.36658,9.98701c.40033,.91766,1.14949,1.63656,2.08126,2.00202,.93131,.36347,1.96923,.34493,2.88643-.05739l14.26323-6.23841c.91766-.40033,1.63656-1.14949,2.00202-2.08126,.36546-.93177,.34447-1.97123-.05739-2.88643l-4.36796-9.98617-1.86999-4.27507c-.83467-1.90936-3.05833-2.77931-4.96769-1.94463l-14.2617,6.23596c-1.69182,.73998-2.56915,2.57031-2.16552,4.3067,.0519,.22328,.1262,.44345,.22089,.66099Zm18.98813,4.56912l-7.35091,3.21536-2.85481-6.53091-.35856-.82046,7.34938-3.2129,.35827,.81922,2.85663,6.5297Z"/><path class="cls-2" d="M92.17116,95.15241c.0519,.22328,.1262,.44345,.22089,.66099l6.23841,14.26323c.40033,.91766,1.14949,1.63656,2.08126,2.00202,.93131,.36347,1.97123,.34447,2.88643-.05739l14.26124-6.23795c1.91089-.83713,2.78204-3.07367,1.94463-4.96769l-6.23841-14.26323c-.40033-.91766-1.14949-1.63656-2.08126-2.00202-.93131-.36347-1.97123-.34447-2.88643,.05739l-14.26124,6.23795c-1.69182,.73998-2.56915,2.57031-2.16552,4.3067Zm8.64474,1.09409l7.34892-3.2149,3.21536,7.35091-7.34892,3.2149-3.21536-7.35091Z"/><path class="cls-2" d="M104.2377,117.82973c-.26352,.71055-.30779,1.48571-.13633,2.22332,.0519,.22328,.12345,.44409,.21564,.658l6.13349,14.28552c.82071,1.91261,2.97211,2.79935,4.8063,1.98215l13.70018-6.10543c1.83564-.81964,2.65986-3.03266,1.83386-4.94194l-6.13203-14.28796c-.39364-.91921-1.122-1.64295-2.02351-2.01544-.90104-.3705-1.90172-.36063-2.78279,.03329l-13.70163,6.10787c-.88154,.39193-1.56852,1.13367-1.91318,2.06061Zm8.20569,3.38358l7.06148-3.14808,3.1596,7.36387-7.06002,3.14564-3.16105-7.36144Z"/><path class="cls-2" d="M140.00798,147.00743l-4.47158-10.2229c-.83467-1.90936-3.05833-2.77931-4.96769-1.94463l-14.26323,6.23841c-.91766,.40033-1.63656,1.14949-2.00202,2.08126-.27944,.71425-.33205,1.49135-.16058,2.22896,.0519,.22328,.1242,.44392,.21797,.65746l4.47164,10.22315,1.76631,4.03809c.83467,1.90936,3.05833,2.77931,4.96769,1.94463l14.26323-6.23841c.91766-.40033,1.63656-1.14949,2.00202-2.08126,.36347-.93131,.34846-1.97215-.05739-2.88643l-1.76637-4.03834Zm-14.26298,6.23836l-2.96031-6.76668,7.35091-3.21536,2.96037,6.76693,.25453,.58199-7.35091,3.21536-.25459-.58224Z"/><path class="cls-2" d="M56.28231,81.68781l1.86918,4.275,4.36677,9.98671c.40033,.91766,1.14949,1.63656,2.08126,2.00202,.93131,.36347,1.96923,.34493,2.88643-.05739l14.26323-6.23841c.91766-.40033,1.63656-1.14949,2.00202-2.08126,.36593-.92978,.34201-1.97276-.05739-2.88643l-4.3679-9.98592-1.87005-4.27532c-.83467-1.90936-3.05833-2.77931-4.96769-1.94463l-14.26124,6.23795c-1.69182,.73998-2.56915,2.57031-2.16552,4.3067,.0519,.22328,.1262,.44345,.22089,.66099Zm18.98766,4.56713l-7.35091,3.21536-2.85506-6.53085-.35785-.81853,7.34892-3.2149,.35827,.81922,2.85663,6.5297Z"/><path class="cls-2" d="M67.26625,106.80211l6.23841,14.26323c.40033,.91766,1.14949,1.63656,2.08126,2.00202,.93131,.36347,1.97123,.34447,2.88643-.05739l14.26124-6.23795c1.9089-.83667,2.77959-3.0752,1.94463-4.96769l-6.23795-14.26124c-.83467-1.90936-3.05833-2.77931-4.96769-1.94463l-14.2617,6.23596c-.91766,.40033-1.63656,1.14949-2.00202,2.08126-.27944,.71425-.33205,1.49135-.16058,2.22896,.0519,.22328,.1242,.44392,.21797,.65746Zm8.42385,.43311l7.34938-3.2129,3.2149,7.34892-7.34892,3.2149-3.21536-7.35091Z"/><path class="cls-2" d="M78.25065,131.91841l6.23841,14.26323c.83467,1.90936,3.05833,2.77931,4.96769,1.94463l14.26323-6.23841c1.9089-.83667,2.78037-3.06278,1.94463-4.96769l-6.23841-14.26323c-.83467-1.90936-3.05833-2.77931-4.96769-1.94463l-14.26323,6.23841c-1.69182,.73998-2.56915,2.57031-2.16552,4.3067,.0519,.22328,.1262,.44345,.22089,.66099Zm8.42385,.43311l7.35091-3.21536,3.21536,7.35091-7.35091,3.21536-3.21536-7.35091Z"/><path class="cls-2" d="M56.62385,102.64643c.91766-.40033,1.63656-1.14949,2.00202-2.08126,.36546-.93177,.35092-1.97062-.05739-2.88643l-4.36837-9.98791-1.87005-4.27532c-.40033-.91766-1.14949-1.63656-2.08126-2.00202-.93131-.36347-1.97123-.34447-2.88643,.05739l-14.26124,6.23795c-1.69182,.73998-2.56915,2.57031-2.16552,4.3067,.0519,.22328,.1262,.44345,.22089,.66099l6.23795,14.26124c.83467,1.90936,3.05833,2.77931,4.96769,1.94463l4.29931-1.87983,9.96239-4.35613Zm-6.47921-5.40079l-6.50654,2.84441-.84285,.36849-3.2149-7.34892,7.34892-3.2149,.35833,.81947,2.85703,6.53144Z"/><path class="cls-2" d="M67.60779,127.76073c1.9089-.83667,2.78084-3.06079,1.94463-4.96769l-6.23795-14.26124c-.83467-1.90936-3.05833-2.77931-4.96769-1.94463l-9.96135,4.3572-4.29989,1.88075c-1.69182,.73998-2.56915,2.57031-2.16552,4.3067,.0519,.22328,.1262,.44345,.22089,.66099l6.23795,14.26124c.83467,1.90936,3.05833,2.77931,4.96769,1.94463l4.29964-1.88069,9.9616-4.35726Zm-9.69411-12.74971l3.2149,7.34892-6.50563,2.84604-.84329,.36885-3.2149-7.34892,.84398-.36928,6.50494-2.84562Z"/><path class="cls-2" d="M78.59418,152.87657c.91766-.40033,1.63656-1.14949,2.00202-2.08126,.36347-.93131,.348-1.97415-.05739-2.88643l-6.23795-14.26124c-.83467-1.90936-3.05833-2.77931-4.96769-1.94463l-9.96319,4.35606-4.3005,1.88036c-.91766,.40033-1.63656,1.14949-2.00202,2.08126-.27944,.71425-.33205,1.49135-.16058,2.22896,.0519,.22328,.1242,.44392,.21797,.65746l6.23841,14.26323c.83467,1.90936,3.05833,2.77931,4.96769,1.94463l4.30039-1.88086,9.96285-4.35755Zm-9.69411-12.74971l3.2149,7.34892-6.50694,2.84608-.84398,.36928-3.21536-7.35091,.84428-.36909,6.50709-2.84428Z"/><path class="cls-2" d="M116.7064,164.92289c.36347-.93131,.34939-1.96817-.05739-2.88643l-1.7669-4.03953-4.47151-10.22371c-.83467-1.90936-3.05833-2.77931-4.96769-1.94463l-35.08815,15.34614-4.30088,1.88098c-.91766,.40033-1.63656,1.14949-2.00202,2.08126-.27944,.71425-.33205,1.49135-.16058,2.22896,.0519,.22328,.1242,.44392,.21797,.65746l6.23841,14.26323c.83467,1.90936,3.05833,2.77931,4.96769,1.94463l39.38903-17.22712c.91766-.40033,1.63656-1.14949,2.00202-2.08126Zm-44.17331,3.53362l.84497-.36951,31.63174-13.83456,2.96023,6.76749,.25513,.58342-32.47671,14.20407-3.21536-7.35091Z"/></g></g></svg>