<?xml version="1.0" encoding="UTF-8"?><svg id="Calque_2" xmlns="http://www.w3.org/2000/svg" viewBox="0 0 207.65 151.31"><defs><style>.cls-1{fill:#6fbb79;}.cls-2{fill:#010101;}</style></defs><g id="Calque_1-2"><g><polygon class="cls-1" points="40.83 107.55 34.66 117.79 46.48 119.75 149.54 72.13 143.91 59.93 40.83 107.55"/><polygon class="cls-1" points="161.44 72.5 168.15 87 174.54 84.05 151.01 33.11 144.61 36.07 151.34 50.63 161.44 72.5"/><path class="cls-1" d="M112.33,39.97L26.2,79.76c-4.72,2.18-8.68,5.73-11.37,10.18L3.74,108.3c-4.46,7.39-4.97,16.51-1.36,24.35v.03c3.63,7.83,10.88,13.36,19.39,14.77l21.18,3.51c5.15,.85,10.44,.14,15.18-2.05l86.14-39.8c7.11,10.07,20.6,13.95,32.19,8.6l16.06-7.42c13.06-6.03,18.75-21.5,12.72-34.56l-28-60.6c-6.03-13.06-21.5-18.75-34.56-12.72l-16.06,7.42c-11.61,5.36-17.4,18.19-14.3,30.14Zm39.05-18.76c2.67-1.23,5.83-.07,7.07,2.6l28,60.6c1.23,2.67,.07,5.83-2.6,7.07l-16.06,7.42c-2.67,1.23-5.83,.07-7.07-2.6l-6.7-14.51-104.55,48.3c-.97,.45-2.05,.59-3.1,.42l-21.18-3.51c-1.74-.29-3.22-1.42-3.96-3.02h0c-.74-1.61-.64-3.47,.28-4.98l11.08-18.35c.55-.91,1.36-1.64,2.33-2.08l104.55-48.3-6.73-14.56c-1.23-2.67-.07-5.83,2.6-7.07l16.06-7.42Z"/><path class="cls-2" d="M132.71,35.7l6.73,14.56L34.88,98.56c-.97,.45-1.78,1.17-2.33,2.08l-11.08,18.35c-.91,1.51-1.02,3.38-.28,4.98h0c.74,1.61,2.22,2.74,3.96,3.03l21.18,3.51c1.05,.18,2.13,.03,3.1-.42l104.55-48.3,6.7,14.51c1.23,2.67,4.4,3.83,7.07,2.6l16.06-7.42c2.67-1.23,3.83-4.4,2.6-7.07l-28-60.6c-1.23-2.67-4.4-3.83-7.07-2.6l-16.06,7.42c-2.67,1.23-3.83,4.4-2.6,7.07ZM46.48,119.75l-11.82-1.96,6.18-10.24,103.07-47.62,5.64,12.2L46.48,119.75ZM151.01,33.11l23.53,50.93-6.39,2.95-6.7-14.51-10.1-21.87-6.73-14.56,6.39-2.95Z"/></g></g></svg>