<?xml version="1.0" encoding="UTF-8"?><svg id="Calque_2" xmlns="http://www.w3.org/2000/svg" xmlns:xlink="http://www.w3.org/1999/xlink" viewBox="0 0 150.41086 156.41339"><defs><style>.cls-1{fill:#c8b2a3;}.cls-2{clip-path:url(#clippath-1);}.cls-3{clip-path:url(#clippath);}.cls-4{fill:none;}.cls-5{fill:#010101;}</style><clipPath id="clippath"><rect class="cls-4" x="44.90543" y="-.07831" width="60.6" height="156.57" transform="translate(-33.07332 71.2889) rotate(-42.46517)"/></clipPath><clipPath id="clippath-1"><rect class="cls-4" x="44.90543" y="-.07831" width="60.6" height="156.57" transform="translate(-33.07332 71.2889) rotate(-42.46517)"/></clipPath></defs><g id="Calque_1-2"><g id="Calque_1-2"><g class="cls-3"><g class="cls-2"><g><path class="cls-1" d="M133.83651,130.65556c.17593-.17762,.34196-.35379,.50653-.53985,3.56887-3.96424,4.59539-9.60489,2.64818-14.57362l-9.14749-23.32341c-.79608-2.03549-2.05644-3.86088-3.68697-5.31819L45.78046,16.2683c-5.77386-5.212-14.67689-4.71529-19.89181,1.03879l-14.99862,16.64112c-2.50118,2.77541-3.79183,6.42325-3.6042,10.15592,.19751,3.73121,1.86757,7.23472,4.64299,9.7359L90.30657,124.48212c1.62064,1.45877,3.5675,2.52566,5.67611,3.11376l24.14611,6.68228c4.90117,1.35817,10.13276-.04157,13.70917-3.61271m-10.7261-7.18937l-24.14611-6.68228s-.05531-.03226-.08791-.04766c-.29599-.08767-.57805-.21785-.83774-.40186-.08937-.05755-.17032-.12646-.24136-.19684L19.42391,45.52514c-.57098-.51204-.9096-1.23025-.95144-1.99233-.04184-.76207,.22187-1.50863,.7339-2.07961l7.49363-8.32478,7.49363-8.32478c1.04971-1.10531,2.88456-1.27534,4.0734-.20765L116.66459,95.23518c.32669,.29542,.55041,.64649,.70634,1.01768,.00438,.02968,.03699,.04508,.0498,.0634l9.14749,23.32341c.39236,1.01353,.18859,2.16569-.54007,2.98096l-.10556,.10657c-.73046,.73466-1.8011,1.01417-2.80229,.73755"/><rect class="cls-1" x="69.06578" y="16.34637" width="5.44" height="99.75" transform="translate(-25.46425 75.21571) rotate(-47.97517)"/><rect class="cls-1" x="61.56931" y="24.65501" width="5.44" height="99.75" transform="translate(-34.11431 72.39332) rotate(-47.97517)"/><polygon class="cls-1" points="113.75347 102.76154 104.99935 112.47549 113.14623 114.72884 116.83752 110.63531 113.75347 102.76154"/><path class="cls-5" d="M126.56822,119.63967l-9.14749-23.32341s-.03699-.04508-.0498-.0634c-.15593-.37119-.38111-.73215-.70634-1.01768L38.27693,24.59454c-1.17895-1.06915-3.02369-.89766-4.0734,.20765l-7.49363,8.32478-7.49363,8.32478c-.51203,.57098-.77574,1.31754-.7339,2.07961,.04184,.76207,.38047,1.48029,.95144,1.99233L97.8101,116.15588c.08094,.06891,.16188,.13782,.24136,.19684,.25823,.17412,.54028,.30429,.83774,.40186,.03114,.00551,.05531,.03226,.08791,.04766l24.14611,6.68228c1.00119,.27662,2.07183-.00287,2.80229-.73755l.10556-.10657c.72866-.81526,.94232-1.96889,.54007-2.98096M36.55592,30.80279L110.66253,97.57767l-3.63778,4.04519L32.91815,34.84798l3.63777-4.04519Zm-11.14277,12.36154l3.63778-4.04519L103.16889,105.90245l-3.63924,4.0353L25.4245,43.17275l-.01136-.00843ZM104.99935,112.47549l4.37779-4.85203,4.37633-4.86192,3.08405,7.87377-3.68983,4.10342-8.14688-2.25335-.00146-.00989Z"/><path class="cls-5" d="M98.05,116.34283c-.07948-.05902-.17032-.12646-.24136-.19684,.08094,.06891,.16188,.13782,.24136,.19684"/></g></g></g></g></g></svg>