<?xml version="1.0" encoding="UTF-8"?><svg id="Calque_2" xmlns="http://www.w3.org/2000/svg" viewBox="0 0 155.07155 118.43611"><defs><style>.cls-1{fill:#c8b2a3;}.cls-2{fill:#010101;}</style></defs><g id="Calque_1-2"><g><path class="cls-1" d="M103.45913,118.2359c1.31654,.27439,2.69243,.26955,4.05036-.03188l36.96734-8.22427c4.05122-.90154,7.27031-4.29073,8.16902-8.60278l2.17861-10.4531c.85633-4.1087-.55164-8.31085-3.62376-10.81988L55.74237,2.1762c-2.30278-1.87839-5.282-2.58617-8.17919-1.94542L10.59474,8.45483c-4.05122,.90154-7.27031,4.29073-8.16902,8.60278L.24711,27.51071c-.85633,4.1087,.55164,8.31085,3.62376,10.81988L99.3303,116.2586c1.22349,.99827,2.6383,1.66664,4.12883,1.9773ZM8.19068,29.16629l2.17861-10.4531c.00195-.00936,.00697-.01747,.00906-.02681,.00225-.01008,.00046-.02022,.00284-.03027,.01313-.05605,.04335-.10326,.06017-.15761,.04111-.13274,.08464-.26326,.14694-.3846,.03582-.06993,.08116-.13075,.12343-.19623,.06601-.10242,.13394-.20087,.21437-.29066,.05364-.05971,.11139-.11142,.17063-.16468,.08653-.07813,.17616-.14895,.2739-.21218,.06783-.04387,.13616-.08252,.20852-.11832,.04643-.02305,.08647-.05705,.13478-.07661,.06353-.026,.12977-.03174,.19431-.05086,.04562-.0136,.08551-.04065,.13221-.05109L49.00888,8.72922c.59186-.13226,1.20097,.0133,1.67233,.39818l95.45832,77.92778c.05238,.04271,.08693,.10095,.13446,.14823,.02208,.02166,.05428,.02527,.07553,.04816,.02274,.02475,.02602,.06173,.04754,.08746,.19936,.23699,.35256,.50546,.43795,.80663,.01139,.04037,.01235,.08013,.02155,.12129,.06915,.30555,.08252,.62491,.02298,.94738-.00336,.01822,.00514,.03566,.00133,.05394l-.0119,.05708-2.16672,10.39602c-.18391,.88239-.84176,1.57542-1.67115,1.75993l-36.96734,8.22427c-.0312,.00684-.06173-.0048-.09293,.00064-.24668,.04274-.49464,.05558-.73512,.00546-.27179-.05665-.51955-.19111-.74913-.3587-.02924-.02129-.06687-.02247-.09515-.04558L8.93202,31.37939c-.62848-.51317-.91657-1.37233-.74134-2.2131Z"/><polygon class="cls-1" points="12.56177 28.64411 104.37879 103.59805 105.54233 98.01533 13.72543 23.0608 12.56177 28.64411"/><polygon class="cls-1" points="108.42296 104.64443 140.92081 97.41445 142.10799 91.71831 109.61017 98.94814 108.42296 104.64443"/><path class="cls-1" d="M40.57875,39.283c-1.15508-1.49292-2.26608-3.02676-3.27861-4.64539-1.28975-2.06185-2.53981-4.52491-2.03515-7.16824,.17911-.93845,.63317-1.81045,1.22026-2.5981,.81296-1.0905,1.91928-1.99687,3.24756-2.49386,1.83962-.68745,3.97817-.70086,6.33857-.05877,5.00039,1.36852,8.94327,4.96485,12.7571,8.44246,2.32722,2.12173,4.73281,4.31687,7.34625,5.96965,3.66677,2.31902,7.89408,3.66291,11.98252,4.96296,2.93989,.93535,5.98085,1.90169,8.8387,3.23067,.48308,.22461,.93971,.46171,1.40471,.69465L48.82026,13.30715l-31.48169,7.00374,8.4904,6.93107,14.74978,12.04104Z"/><path class="cls-1" d="M77.72446,43.12108c-4.08448-1.29752-8.29777-2.65322-12.05171-4.97428-.07669-.04747-.15924-.08205-.23547-.13035-2.7114-1.71538-5.16288-3.95111-7.53266-6.11273-.36158-.32974-.72025-.65468-1.0791-.9795-1.74189-1.57629-3.46998-3.06626-5.28933-4.31808-1.81466-1.24867-3.72099-2.26347-5.84626-2.8457-.86709-.23656-1.68195-.34993-2.46347-.38888-1.11009-.05547-2.14177,.06423-3.06462,.40934-.3267,.12223-.61977,.30156-.91499,.47595-1.34667,.79531-2.34671,2.06149-2.61555,3.46999-.40163,2.11013,.70241,4.24744,1.83605,6.0596,3.1111,4.97405,6.92993,9.35977,11.34936,13.03309l.00455,.0087,1.53233,1.25094c-1.0732-1.9843-1.50927-3.73065-1.16112-5.09873,.25983-1.01919,1.05878-2.35039,3.38843-2.90345,3.88941-.9241,7.78279,1.88886,10.36271,3.74684,.41949,.30086,.80932,.58312,1.16619,.82378,4.70081,3.18598,11.01757,5.42059,17.15496,7.04422,3.9968,1.05729,7.91852,1.86177,11.26477,2.47993,3.09481,.56513,6.03899,1.53674,9.00496,2.98566l-2.41651-1.97282c-4.80982-3.82184-8.74835-6.58527-13.70983-8.89369-2.78202-1.29332-5.78273-2.24755-8.68371-3.16982Z"/><path class="cls-1" d="M84.99358,53.91944c-7.32609-1.71798-14.98362-4.16347-20.65591-8.00825-.36561-.24868-.76578-.53682-1.19622-.84617-2.52836-1.82241-5.99033-4.31962-9.2944-3.53535-1.30645,.30968-2.08292,.91718-2.3081,1.80338-.45687,1.7926,1.05191,4.76482,4.03571,8.19213l26.60512,21.71913c1.01467-3.34545,3.31433-6.24022,6.30474-7.79359,2.83151-1.47062,5.93209-1.66555,8.9617-1.36528,1.73893,.17226,3.45509,.50512,5.08209,.86004l.55643,.12093c3.4654,.76149,7.00985,1.51263,10.39692,1.02779l-1.9533-1.59461c-.17942,.03209-.36735-.00661-.52143-.12729-6.26483-4.92777-11.75218-7.5828-17.75296-8.7342-2.61026-.48214-5.41208-1.05073-8.26041-1.71867Z"/><path class="cls-1" d="M102.76796,66.5254l-.55508-.12189c-.82045-.17534-1.66863-.34033-2.52591-.48875-3.56319-.61684-7.34949-.82897-10.62033,.87085-2.75385,1.43019-4.905,4.27262-5.70891,7.42034l2.4495,1.99971,22.62344,18.46852,.00035,.00038,.00014,.00003,4.29793-.95622-.00022-.00036c-2.55684-4.70746-6.22154-8.63637-10.63724-11.35872l-.42484-.25854c-.78359-.47353-1.59291-.96235-2.28829-1.64829-1.00771-.99053-1.55923-2.25575-1.51408-3.47107,.04785-1.30038,.77471-2.60193,1.94517-3.47973,1.0616-.79377,2.31822-1.14733,3.29398-1.36834,1.21193-.2723,2.44237-.38997,3.67538-.42909,7.18595-.22836,14.45331,3.35403,18.56914,9.50008,.55368,.82765,1.05559,1.6929,1.55614,2.55912,.53324,.92018,1.08295,1.87233,1.68756,2.7441,.9443,1.36136,1.94841,2.36152,2.99362,3.01537l.00011,.00018,8.32608-1.85249-.00014-.00003-24.93413-20.35538c-4.03351,.97814-8.17655,.09682-12.20936-.78976Z"/><path class="cls-1" d="M129.24405,90.04404l.44654-.09942-.00011-.00018c-.77662-.6762-1.52285-1.5128-2.2288-2.53086-.63744-.91956-1.20374-1.8975-1.75025-2.84278-.48556-.83827-.96976-1.6775-1.50599-2.47794-3.50884-5.2364-9.4573-8.47876-15.56771-8.87112-1.76609-.1134-3.54449-.02276-5.2828,.36861-.89518,.20058-1.92387,.49245-2.76491,1.12124-.79087,.59333-1.30189,1.46959-1.33238,2.28717-.02872,.78692,.36543,1.64213,1.08246,2.34624,.58221,.57426,1.29085,1.00239,2.04036,1.4564l.43407,.26419c4.6973,2.89489,8.59705,7.08653,11.27539,12.12301,.03688,.06926,.0105,.14659,.0243,.22113l.00008,.00033,15.12974-3.36602Z"/><path class="cls-2" d="M106.06378,109.70558l36.96734-8.22427c.82939-.18451,1.48724-.87754,1.67115-1.75993l2.16672-10.39602,.0119-.05708c.00381-.01828-.0047-.03572-.00133-.05394,.05918-.32068,.04562-.64194-.02298-.94738-.009-.04003-.0104-.08189-.02155-.12129-.08457-.29884-.23934-.56949-.43795-.80663-.02152-.02574-.0248-.06271-.04754-.08746-.02125-.02289-.05345-.0265-.07553-.04816-.04753-.04729-.08208-.10552-.13446-.14823L50.68122,9.1274c-.47136-.38488-1.08047-.53044-1.67233-.39818L12.04044,16.95326c-.04669,.01043-.08659,.03748-.13221,.05109-.06455,.01912-.13079,.02486-.19431,.05086-.04831,.01956-.08835,.05356-.13478,.07661-.07191,.03573-.14134,.07478-.20852,.11832-.09706,.06275-.18757,.13432-.2739,.21218-.05873,.05291-.11767,.10546-.17063,.16468-.07989,.08929-.14849,.18884-.21437,.29066-.04187,.06495-.08787,.12687-.12343,.19623-.06203,.12077-.10569,.25189-.14694,.3846-.01682,.05435-.04704,.10156-.06017,.15761-.00238,.01005-.0006,.02019-.00284,.03027-.00209,.00934-.0071,.01744-.00906,.02681l-2.17861,10.4531c-.17523,.84077,.11287,1.69993,.74134,2.2131L104.39145,109.3074c.02828,.02311,.06591,.02428,.09515,.04558,.23021,.16803,.4797,.30255,.74913,.3587,.23812,.04963,.48795,.03686,.73512-.00546,.0312-.00544,.06173,.0062,.09293-.00064ZM48.82026,13.30715l39.5804,32.31187c-.46501-.23295-.92164-.47004-1.40471-.69465-2.85785-1.32898-5.89881-2.29532-8.8387-3.23067-4.08844-1.30005-8.31575-2.64394-11.98252-4.96296-2.61344-1.65278-5.01903-3.84792-7.34625-5.96965-3.81383-3.47761-7.7567-7.07394-12.7571-8.44246-2.3604-.64209-4.49894-.62869-6.33857,.05877-1.32829,.49699-2.4346,1.40336-3.24756,2.49386-.58709,.78766-1.04115,1.65965-1.22026,2.5981-.50466,2.64333,.74541,5.10639,2.03515,7.16824,1.01253,1.61863,2.12353,3.15247,3.27861,4.64539l-14.74978-12.04104-8.4904-6.93107,31.48169-7.00374ZM13.72543,23.0608L105.54233,98.01533l-1.16354,5.58272L12.56177,28.64411l1.16366-5.58331Zm36.09129,23.75873c-4.41943-3.67332-8.23826-8.05904-11.34936-13.03309-1.13365-1.81216-2.23768-3.94947-1.83605-6.0596,.26884-1.40849,1.26889-2.67467,2.61555-3.46999,.29522-.17439,.58829-.35372,.91499-.47595,.92285-.34511,1.95453-.46481,3.06462-.40934,.78152,.03895,1.59638,.15232,2.46347,.38888,2.12527,.58223,4.0316,1.59703,5.84626,2.8457,1.81935,1.25182,3.54744,2.74179,5.28933,4.31808,.35884,.32482,.71752,.64977,1.0791,.9795,2.36979,2.16162,4.82126,4.39735,7.53266,6.11273,.07622,.0483,.15878,.08288,.23547,.13035,3.75394,2.32105,7.96722,3.67675,12.05171,4.97428,2.90098,.92228,5.90169,1.87651,8.68371,3.16982,4.96147,2.30842,8.90001,5.07185,13.70983,8.89369l2.41651,1.97282c-2.96597-1.44892-5.91015-2.42053-9.00496-2.98566-3.34625-.61816-7.26797-1.42264-11.26477-2.47993-6.13738-1.62363-12.45415-3.85824-17.15496-7.04422-.35687-.24065-.7467-.52292-1.16619-.82378-2.57993-1.85798-6.4733-4.67094-10.36271-3.74684-2.32965,.55306-3.12861,1.88426-3.38843,2.90345-.34815,1.36808,.08792,3.11443,1.16112,5.09873l-1.53233-1.25094-.00455-.0087Zm90.09488,40.85105l-8.32608,1.85249-.00011-.00018c-1.04521-.65385-2.04932-1.65402-2.99362-3.01537-.60462-.87177-1.15432-1.82392-1.68756-2.7441-.50055-.86621-1.00245-1.73147-1.55614-2.55912-4.11582-6.14605-11.38319-9.72844-18.56914-9.50008-1.233,.03912-2.46344,.15679-3.67538,.42909-.97576,.22101-2.23238,.57457-3.29398,1.36834-1.17046,.87779-1.89732,2.17935-1.94517,3.47973-.04515,1.21532,.50637,2.48054,1.51408,3.47107,.69538,.68595,1.5047,1.17476,2.28829,1.64829l.42484,.25854c4.4157,2.72235,8.0804,6.65126,10.63724,11.35872l.00022,.00036-4.29793,.95622-.00014-.00003-.00035-.00038-22.62344-18.46852-2.4495-1.99971c.80391-3.14772,2.95506-5.99014,5.70891-7.42034,3.27084-1.69982,7.05714-1.48769,10.62033-.87085,.85728,.14843,1.70546,.31342,2.52591,.48875l.55508,.12189c4.03282,.88658,8.17586,1.7679,12.20936,.78976l24.93413,20.35538,.00014,.00003Zm-25.79736,5.73915c-.01381-.07454,.01257-.15187-.0243-.22113-2.67834-5.03648-6.57809-9.22812-11.27539-12.12301l-.43407-.26419c-.7495-.45402-1.45814-.88214-2.04036-1.4564-.71704-.70411-1.11118-1.55931-1.08246-2.34624,.03048-.81758,.54151-1.69383,1.33238-2.28717,.84104-.62879,1.86973-.92066,2.76491-1.12124,1.73831-.39137,3.51671-.48201,5.2828-.36861,6.11041,.39235,12.05887,3.63471,15.56771,8.87112,.53623,.80044,1.02043,1.63967,1.50599,2.47794,.54651,.94528,1.11281,1.92322,1.75025,2.84278,.70595,1.01806,1.45218,1.85467,2.2288,2.53086l.00011,.00018-.44654,.09942-15.12974,3.36602-.00008-.00033Zm-11.02947-28.34332l-.55643-.12093c-1.627-.35492-3.34316-.68778-5.08209-.86004-3.02961-.30027-6.13019-.10534-8.9617,1.36528-2.99041,1.55337-5.29007,4.44813-6.30474,7.79359l-26.60512-21.71913c-2.9838-3.42731-4.49257-6.39953-4.03571-8.19213,.22517-.8862,1.00165-1.4937,2.3081-1.80338,3.30407-.78427,6.76603,1.71293,9.2944,3.53535,.43044,.30934,.83061,.59749,1.19622,.84617,5.67229,3.84478,13.32981,6.29027,20.65591,8.00825,2.84833,.66794,5.65016,1.23653,8.26041,1.71867,6.00078,1.1514,11.48813,3.80643,17.75296,8.7342,.15408,.12068,.34201,.15938,.52143,.12729l1.9533,1.59461c-3.38707,.48484-6.93152-.2663-10.39692-1.02779Zm37.83605,32.34803l-32.49785,7.22998,1.18721-5.69629,32.49782-7.22983-1.18718,5.69614Z"/></g></g></svg>