<?xml version="1.0" encoding="UTF-8"?><svg id="Calque_2" xmlns="http://www.w3.org/2000/svg" viewBox="0 0 211.83 150.82"><defs><style>.cls-1{fill:#f18a55;}.cls-2{fill:#f18955;}.cls-3{fill:#010101;}</style></defs><g id="Calque_1-2"><g><polygon class="cls-1" points="136.58 80.3 126.17 69.92 120 72.58 130.4 82.96 136.58 80.3"/><path class="cls-2" d="M131.6,9.26c-6.45,2.77-11.53,7.99-14.12,14.51-2,5.03-2.4,10.51-1.2,15.71L27.74,77.59c-4.86,2.09-8.97,5.58-11.82,10.03l-11.74,18.34C1.05,110.84-.34,116.52,.07,122.14c.21,2.9,.9,5.78,2.07,8.52,3.46,8.06,10.68,13.88,19.3,15.55l21.42,4.14c5.21,1,10.6,.42,15.47-1.68l88.55-38.1c6.95,10.42,20.54,14.72,32.46,9.59l16.51-7.11c11.05-4.75,17.48-16.35,15.69-28.28l-5.27-34.65c-.68-4.48-2.5-8.71-5.28-12.28l-21.54-27.65c-7.4-9.49-20.27-12.8-31.33-8.04l-16.51,7.11Zm31.24,13.87l21.54,27.65c.57,.73,.94,1.59,1.08,2.51l5.27,34.65c.34,2.44-.95,4.81-3.21,5.78l-16.51,7.11c-2.75,1.18-5.93-.09-7.11-2.83l-6.42-14.91-2.89,1.24c.37,1.73-.02,3.59-1.36,4.94-2.11,2.12-5.54,2.12-7.65,.01l-.75-.75-7.11,3.06c.37,1.73-.02,3.6-1.36,4.94-2.11,2.12-5.54,2.12-7.65,.01l-.75-.75-7.66,3.3c.37,1.73-.02,3.6-1.36,4.94-2.11,2.12-5.54,2.12-7.65,.01l-.75-.75-7.67,3.3c.37,1.73-.02,3.6-1.36,4.94-2.11,2.12-5.54,2.12-7.65,.01l-.75-.75-7.66,3.3c.37,1.73-.02,3.6-1.36,4.94-2.11,2.12-5.54,2.12-7.65,.01l-.75-.75-7.66,3.3c.37,1.73-.02,3.6-1.36,4.94-2.11,2.12-5.54,2.12-7.65,.01l-.75-.75-8.22,3.54c-1,.43-2.1,.55-3.17,.34l-21.42-4.14c-1.76-.34-3.24-1.53-3.95-3.18-.24-.56-.38-1.15-.42-1.74-.08-1.15,.2-2.31,.84-3.31l10.98-17.14c-.44-.74-.76-1.52-.82-2.35-.11-1.51,.41-3.06,1.56-4.21,2.11-2.12,5.54-2.12,7.65-.01l.75,.75,7.64-3.29c-.05-.25-.17-.49-.19-.74-.11-1.51,.41-3.06,1.56-4.21,2.11-2.12,5.54-2.12,7.65-.01l.75,.75,7.65-3.29c-.05-.25-.17-.49-.19-.74-.11-1.51,.41-3.06,1.56-4.21,2.11-2.12,5.54-2.12,7.65-.01l.75,.75,7.65-3.29c-.05-.25-.17-.49-.19-.74-.11-1.51,.41-3.06,1.56-4.21,2.11-2.12,5.54-2.12,7.65-.01l.76,.75,7.64-3.29c-.05-.25-.17-.49-.19-.74-.11-1.51,.41-3.06,1.56-4.21,2.11-2.12,5.54-2.12,7.65-.01l.75,.75,7.09-3.05c-.05-.25-.17-.49-.19-.74-.11-1.51,.41-3.06,1.56-4.21,2.11-2.12,5.54-2.12,7.65-.01l.76,.75,14.91-6.42-6.44-14.97c-.57-1.32-.59-2.81-.06-4.14,.53-1.33,1.57-2.4,2.89-2.97l16.51-7.11c2.26-.97,4.9-.3,6.41,1.64Z"/><polygon class="cls-1" points="35.31 116.43 47.26 118.74 49.98 117.57 40.58 108.2 35.31 116.43"/><polygon class="cls-2" points="153.2 73.15 147.81 60.61 136.87 65.31 147.28 75.69 153.2 73.15"/><polygon class="cls-1" points="102.57 80.08 112.97 90.46 119.7 87.57 109.29 77.19 102.57 80.08"/><polygon class="cls-1" points="67.7 95.08 78.11 105.46 84.84 102.57 74.43 92.19 67.7 95.08"/><polygon class="cls-1" points="50.28 102.58 60.68 112.96 67.41 110.07 57 99.69 50.28 102.58"/><polygon class="cls-1" points="155.61 51.36 165.28 73.84 171.7 88.75 179.4 85.43 174.97 56.32 156.87 33.08 149.17 36.39 155.61 51.36"/><polygon class="cls-1" points="85.13 87.58 95.54 97.96 102.27 95.07 91.86 84.69 85.13 87.58"/><path class="cls-3" d="M139.92,28.59c-1.32,.57-2.36,1.63-2.89,2.97-.53,1.33-.51,2.82,.06,4.14l6.44,14.97-14.91,6.42-.76-.75c-2.12-2.11-5.54-2.1-7.65,.01-1.15,1.15-1.67,2.7-1.56,4.21,.02,.25,.13,.49,.19,.74l-7.09,3.05-.75-.75c-2.12-2.11-5.54-2.1-7.65,.01-1.15,1.15-1.67,2.7-1.56,4.21,.02,.25,.13,.49,.19,.74l-7.64,3.29-.76-.75c-2.12-2.11-5.54-2.1-7.65,.01-1.15,1.15-1.67,2.7-1.56,4.21,.02,.25,.13,.49,.19,.74l-7.65,3.29-.75-.75c-2.12-2.11-5.54-2.1-7.65,.01-1.15,1.15-1.67,2.7-1.56,4.21,.02,.25,.13,.49,.19,.74l-7.65,3.29-.75-.75c-2.12-2.11-5.54-2.1-7.65,.01-1.15,1.15-1.67,2.7-1.56,4.21,.02,.25,.13,.49,.19,.74l-7.64,3.29-.75-.75c-2.12-2.11-5.54-2.1-7.65,.01-1.15,1.15-1.67,2.7-1.56,4.21,.06,.83,.38,1.61,.82,2.35l-10.98,17.14c-.64,1-.92,2.16-.84,3.31,.04,.59,.18,1.18,.42,1.74,.71,1.65,2.19,2.84,3.95,3.18l21.42,4.14c1.07,.21,2.17,.08,3.17-.34l8.22-3.54,.75,.75c2.12,2.11,5.54,2.1,7.65-.01,1.35-1.34,1.73-3.21,1.36-4.94l7.66-3.3,.75,.75c2.12,2.11,5.54,2.1,7.65-.01,1.34-1.35,1.73-3.21,1.36-4.94l7.66-3.3,.75,.75c2.12,2.11,5.54,2.1,7.65-.01,1.34-1.35,1.73-3.21,1.36-4.94l7.67-3.3,.75,.75c2.12,2.11,5.54,2.1,7.65-.01,1.34-1.35,1.73-3.21,1.36-4.94l7.66-3.3,.75,.75c2.12,2.11,5.54,2.1,7.65-.01,1.35-1.35,1.73-3.21,1.36-4.94l7.11-3.06,.75,.75c2.12,2.11,5.54,2.1,7.65-.01,1.34-1.35,1.73-3.21,1.36-4.94l2.89-1.24,6.42,14.91c1.18,2.74,4.36,4.01,7.11,2.83l16.51-7.11c2.26-.97,3.55-3.34,3.21-5.78l-5.27-34.65c-.14-.92-.51-1.78-1.08-2.51l-21.54-27.65c-1.51-1.94-4.15-2.62-6.41-1.64l-16.51,7.11Zm7.89,32.02l5.4,12.54-5.92,2.55-10.41-10.38,10.94-4.71ZM47.26,118.74l-11.95-2.31,5.27-8.23,9.4,9.37-2.72,1.17Zm13.42-5.78l-10.41-10.38,6.72-2.89,10.41,10.38-6.72,2.89Zm17.43-7.5l-10.41-10.38,6.72-2.89,10.41,10.38-6.72,2.89Zm17.43-7.5l-10.41-10.38,6.73-2.89,10.41,10.38-6.73,2.89Zm17.43-7.5l-10.41-10.38,6.72-2.89,10.41,10.38-6.72,2.89Zm17.43-7.5l-10.41-10.38,6.17-2.66,10.41,10.38-6.17,2.66Zm44.57-26.64l4.43,29.12-7.7,3.31-6.42-14.91-9.67-22.48-6.44-14.97,7.7-3.31,18.1,23.24Z"/></g></g></svg>