<?xml version="1.0" encoding="UTF-8"?><svg id="Calque_2" xmlns="http://www.w3.org/2000/svg" viewBox="0 0 184.60965 232.77801"><defs><style>.cls-1{stroke:#2d7c44;stroke-miterlimit:10;stroke-width:26px;}.cls-1,.cls-2{fill:#2d7c44;}.cls-3{fill:#010202;}</style></defs><g id="Calque_1-2"><g id="Calque_2-2"><g id="Calque_1-2"><path id="grand" class="cls-1" d="M170.46694,194.3979l.00838-.02975-26.6932-62.60809c-.46359-1.14031-1.3654-2.04688-2.50325-2.51648-1.15177-.47807-2.44656-.47743-3.59786,.00177l-.08223,.04108-26.80772-62.7945,3.69287-1.59381c2.35788-1.00261,3.45815-3.72552,2.45872-6.08475h0l-1.82422-4.42584c-2.12595-4.99453,.19236-10.76741,5.18219-12.90434l12.41271-5.29865c2.36621-.98026,3.48974-3.69311,2.50948-6.05932-.34499-.83277-.92522-1.54695-1.66968-2.05518l-9.37264-6.5002c-13.41708-9.40417-30.7445-11.19752-45.80317-4.74054l-12.5874,5.37151-5.94692,2.52646c-2.35494,1.01993-3.44283,3.75127-2.43399,6.11098l.70443,1.65017-6.73554,2.86324-.75112-1.64405c-1.00261-2.35788-3.72552-3.45815-6.08475-2.45872h0l-1.56794,.66335h0l-.80387,.34534h0l-2.97644,1.26239h0l-23.36277,9.94284c-2.36053,1.0065-3.46167,3.73319-2.46207,6.09665l19.26752,45.20245c.96183,2.35163,3.64792,3.47831,5.99956,2.51648l.07085-.02967,16.49663-7.02644h0l10.38248-4.47642h0l1.83508-.76798c2.35399-.999,3.45507-3.71496,2.46132-6.07117h0l-.70552-1.71471,6.76027-2.83701,.70611,1.64421c.27172,.62299,.6799,1.177,1.1944,1.62113l16.84603,39.61271,11.06454,25.97197c-1.53981,1.29269-2.06023,3.43643-1.28452,5.29125l26.68818,62.62594c3.02475,7.1931,11.30793,10.57221,18.50103,7.54748l.04426-.01871,.0653-.02658,13.24802-5.64156c7.19111-3.07306,10.52947-11.39381,7.45645-18.58495ZM56.9384,79.38561l-17.59985,7.49947-15.59237-36.69655,17.23094-7.35283,2.84324-1.22282,.05357,.01509,1.75512,4.12374,3.08534,7.29272,2.94801,6.91358,3.9541,9.27181,3.1452,7.39952,.69605,1.67992-2.51934,1.07635Zm8.57449-10.67068l-2.61566-6.17761-1.36853-3.19262-1.28486-3.07912-.18512-.43756-1.37373-3.21978-3.72026-8.75629,6.73126-2.87087,5.05291,11.89385,1.62928,3.86347,3.87511,9.05043-6.7404,2.92611Zm17.81124-.58569l-.70779-1.63826-11.08441-26.06108-3.82046-8.9708,5.14732-2.17349,9.08019-3.86673c12.11544-5.20883,26.0642-3.77214,36.86356,3.79686l2.5037,1.73932-4.6945,1.97982c-9.72123,4.13953-14.24608,15.3759-10.10655,25.09713l.00022,.00051,.07286,.17469-14.43422,6.18115-.53505,.23475-8.24655,3.52978-.03831-.02364Zm30.84022,71.24044l-13.24809-31.08358-13.52519-31.81042,2.40399-1.03175,12.46368-5.29714,26.77051,62.83541-14.11217,5.99562-.75274,.39186Zm47.77498,62.38454l-.01676,.05952c-.48032,1.20249-1.42397,2.16133-2.61865,2.66077l-13.2378,5.65086c-2.47772,1.05864-5.34451-.09174-6.40315-2.56946l-.00224-.00526-24.84938-58.3887,9.63645-4.10836,12.5035-5.32447,.06697-.03253,24.86707,58.34871c.5063,1.18083,.52571,2.51384,.05401,3.70892Z"/><path id="fond" class="cls-2" d="M28.52924,48.71544L97.38353,16.22039c1.7627-.8287,3.8369-.63115,5.41148,.51541l19.51439,14.23838c1.94145,1.41574,2.69231,3.95751,1.83181,6.20096l-10.46201,27.38714c-.50621,1.32812-.45901,2.80372,.13106,4.09678l55.74768,123.44649c1.18694,2.63771,.05072,5.74054-2.55892,6.98799l-24.10604,11.48724c-2.65298,1.26763-5.83129,.14456-7.09891-2.50843-.01491-.03121-.02952-.06258-.04383-.09407l-42.48826-93.4068c-.12136-.26555-.26437-.52069-.42757-.76279l-13.99437-21.15692c-.3211-.47656-.55916-1.00407-.70409-1.56013h0c-.76055-2.84375-3.68241-4.53251-6.52616-3.77196l-.08159,.02252-21.63096,2.10524c-2.73111,.77903-13.40377,.8569-14.31005-1.83296l-9.8267-32.37484c-.86904-2.56234,.32206-5.369,2.76876-6.52419Z"/><path id="original" class="cls-3" d="M169.48581,193.02313h0l-26.08988-61.19196c-.46009-1.12318-1.35313-2.01374-2.4776-2.4707-1.11659-.44401-2.36271-.43288-3.47119,.03101l-.08223,.04108-26.18504-61.42432,3.61065-1.55273c2.28595-.99815,3.33797-3.65399,2.35562-5.94676h0l-1.77978-4.35552c-2.08104-4.88442,.1907-10.53111,5.07458-12.61345l12.14649-5.17448c2.30801-.97778,3.38637-3.64144,2.40859-5.94944-.33517-.79117-.88806-1.47094-1.59435-1.96027l-9.16063-6.36341c-13.11622-9.19188-30.05441-10.94366-44.77419-4.63063l-12.30164,5.24641-5.83418,2.46827c-2.30216,.98961-3.37342,3.65228-2.39804,5.96051l.689,1.6137-6.57015,2.80061-.73569-1.60758c-.98085-2.30352-3.64179-3.37768-5.94693-2.40063h0l-1.52552,.6496h0l-.78862,.33679h0l-2.91541,1.22819h0l-22.81305,9.77003c-2.30789,.97807-3.38592,3.64186-2.40785,5.94974l.00387,.0091,18.82534,44.17217c.9457,2.29919,3.57622,3.39641,5.87541,2.45071l.07245-.03054,16.11842-6.86957h0l10.14509-4.3634h0l1.80533-.77636c2.30219-.9789,3.37591-3.63796,2.39896-5.94098h0l-.68733-1.61966,6.60679-2.77103,.69068,1.60775c.26283,.61582,.6585,1.16596,1.15868,1.61107l16.4773,38.68662,10.83725,25.38763c-1.50556,1.26605-2.01307,3.36394-1.25268,5.17816l26.08486,61.20981c2.97036,7.02701,11.07485,10.31557,18.10186,7.34521l.00786-.00333,.05766-.0223,12.95035-5.51982c7.03098-2.99599,10.30197-11.12445,7.30597-18.15543l-.01706-.03988ZM58.50755,80.61122l-17.17922,7.32885-15.25968-35.87054,16.83839-7.16788,2.77794-1.19624,.05357,.01509,1.71739,4.0296,3.03797,7.11878,2.87607,6.75842,3.87176,9.06234,3.10043,7.23916,.68473,1.60607-2.51934,1.07635Zm8.38858-10.42111l-2.56419-6.04105-1.33768-3.11969-1.25233-3.01215-.18252-.42398-1.3412-3.1528-3.63961-8.54086,6.57183-2.80657,4.94736,11.60716,1.5882,3.78124,3.78851,8.83332-6.57837,2.87539Zm17.40443-.5782l-.69235-1.6018-10.81546-25.46501-3.73812-8.76132,5.03198-2.12889,8.88429-3.787c11.84119-5.08821,25.47299-3.68013,36.02411,3.72106l2.44326,1.70302-4.58175,1.92164c-9.50008,4.04897-13.92126,15.03088-9.8766,24.5328l.0669,.17301-14.10715,5.97777-.52575,.22453-8.04043,3.45935-.07292,.03085Zm30.14359,69.63102l-12.95238-30.37719-13.20735-31.09138,2.34633-1.00944,12.1796-5.178,26.16719,61.41928-13.79162,5.86105-.74177,.37568Zm46.69862,60.98294l-.01676,.05952c-.4709,1.17358-1.39154,2.11014-2.55687,2.60108l-12.94274,5.51555c-1.16242,.50707-2.48042,.52279-3.65461,.0436-1.17129-.47439-2.10668-1.39388-2.60108-2.55687l-24.28133-57.09815,9.40333-3.98772,12.22537-5.20366,.06102-.03421,24.31171,57.03603c.48983,1.15082,.50969,2.44765,.05532,3.61294l-.00335,.0119Z"/></g></g></g></svg>