<?xml version="1.0" encoding="UTF-8"?><svg id="Calque_2" xmlns="http://www.w3.org/2000/svg" viewBox="0 0 206.91 226.24"><defs><style>.cls-1{fill:none;stroke:#010101;stroke-miterlimit:10;stroke-width:3.55px;}.cls-2{fill:#80736a;}.cls-3{fill:#010101;}</style></defs><g id="Calque_1-2"><g><g><path class="cls-2" d="M201.93,158.05L46.6,4.84C43.42,1.72,39.15-.02,34.68,0c-4.47,.02-8.72,1.82-11.84,5L4.66,23.51c-5.43,5.52-6.21,14.1-1.82,20.49,24.52,35.73,95.43,133.32,103.59,144.55,.52,.72,1.08,1.37,1.71,1.99l31.3,30.87c.7,.67,1.45,1.32,2.23,1.87,2.83,1.95,6.2,2.98,9.68,2.97,4.43-.05,8.69-1.84,11.84-5l6.82-6.93c3.54-3.58,5.26-8.56,4.74-13.51l7.12-7.23c4.99,.43,9.93-1.35,13.47-4.94l6.76-6.83c6.5-6.59,6.41-17.22-.16-23.75Zm-16.12,21.23c-.76,.78-1.85,1.14-2.93,.99l-5-.72-.8-.11-12.94,13.12-3.61,3.66,.77,4.84,.15,.92h0v.02c.06,.39-.02,.77-.09,1.15-.03,.14,.01,.29-.03,.42-.16,.51-.44,.98-.83,1.38l-6.83,6.92c-1.19,1.2-3.05,1.35-4.39,.42h0c-.16-.12-.32-.25-.46-.39l-32.24-31.8h0c-1.06-1.06-1.33-2.67-.65-4.01l3.73-7.35-11.81-1.47c-1.77-.22-3.08-1.76-3.01-3.54l.38-9.77-9.39-2.78c-.57-.17-1.08-.48-1.49-.9-.65-.67-1.03-1.61-.99-2.54l.36-9.81-9.38-2.8c-1.49-.45-2.5-1.84-2.45-3.41l.34-9.79-9.41-2.83c-1.49-.45-2.5-1.85-2.44-3.41l.36-9.82-9.41-2.82c-1.48-.44-2.5-1.85-2.44-3.41l.34-9.79-9.38-2.8c-1.5-.45-2.51-1.85-2.45-3.41l.36-9.81-9.41-2.83c-1.48-.44-2.5-1.84-2.44-3.41l.34-9.79-9.41-2.83c-1.48-.44-2.5-1.84-2.44-3.41l.34-9.85-9.41-2.83c-1.15-.35-2.04-1.27-2.34-2.44-.3-1.17,.04-2.4,.88-3.26L32.35,14.38c.64-.65,1.51-1.02,2.42-1.02,.91,0,1.79,.35,2.43,.99L192.53,167.57c1.01,1,1.27,2.47,.78,3.72-.16,.42-.41,.81-.75,1.15l-6.75,6.85Z"/><path class="cls-2" d="M34.83,21.65l-12.12,12.29,6.49,1.95c1.48,.44,2.5,1.85,2.44,3.41l-.34,9.85,9.41,2.83c1.49,.45,2.5,1.85,2.44,3.41l-.34,9.79,9.41,2.83c1.48,.44,2.5,1.85,2.44,3.41l-.36,9.81,9.37,2.8c1.49,.45,2.5,1.85,2.45,3.41l-.33,9.79,9.41,2.83c1.49,.44,2.5,1.85,2.44,3.41l-.36,9.82,9.41,2.83c1.48,.45,2.5,1.85,2.44,3.41l-.34,9.79,9.38,2.8c1.5,.45,2.51,1.85,2.45,3.41l-.36,9.82,9.42,2.78c1.5,.45,2.52,1.86,2.46,3.43l-.36,9.29,11.13,1.38,18.14-35.76L34.83,21.65Z"/><path class="cls-2" d="M146.2,131.54l-18.22,35.93-4.81,9.49h0l28.01,27.64h0l3.19-3.23-.92-5.77c-.17-1.08,.18-2.18,.95-2.95l18.99-19.25h0c.31-.32,.7-.52,1.1-.69,.08-.04,.14-.11,.23-.14,.51-.17,1.05-.23,1.6-.15l2.45,.35,3.35,.48,3.12-3.17h0l-39.05-38.53Zm3.54,56.5c-1.19,1.2-3.05,1.35-4.39,.42-.16-.11-.32-.24-.46-.39l-11.03-10.88c-1.09-1.08-1.34-2.75-.6-4.1l13.42-24.47c.52-.94,1.45-1.59,2.51-1.75,1.06-.16,2.14,.19,2.91,.95l16.46,16.24c1.35,1.33,1.36,3.51,.03,4.86l-18.86,19.11Z"/><polygon class="cls-2" points="128.57 177.63 148.33 195.09 177.75 169.62 146.14 141.69 128.57 177.63"/><path class="cls-3" d="M192.53,167.57L37.2,14.35c-.64-.63-1.52-.99-2.43-.99-.91,0-1.78,.37-2.42,1.02L13.81,33.17c-.85,.86-1.18,2.09-.88,3.26,.3,1.17,1.19,2.09,2.34,2.44l9.41,2.83-.34,9.85c-.05,1.56,.97,2.96,2.44,3.41l9.41,2.83-.34,9.79c-.06,1.56,.96,2.96,2.44,3.41l9.41,2.83-.36,9.81c-.06,1.56,.95,2.97,2.45,3.41l9.38,2.8-.34,9.79c-.05,1.56,.96,2.96,2.44,3.41l9.41,2.82-.36,9.82c-.06,1.56,.96,2.96,2.44,3.41l9.41,2.83-.34,9.79c-.05,1.56,.96,2.96,2.45,3.41l9.38,2.8-.36,9.81c-.03,.93,.34,1.87,.99,2.54,.41,.42,.92,.73,1.49,.9l9.39,2.78-.38,9.77c-.07,1.78,1.24,3.32,3.01,3.54l11.81,1.47-3.73,7.35c-.68,1.33-.41,2.95,.65,4h0l32.24,31.81c.15,.14,.3,.27,.46,.39h0c1.35,.93,3.21,.79,4.39-.41l6.83-6.92c.39-.39,.66-.87,.83-1.38,.04-.13,0-.28,.03-.42,.07-.38,.15-.76,.09-1.15h0v-.02l-.15-.92-.77-4.84,3.61-3.66,12.94-13.12,.8,.11,5,.72c1.08,.15,2.17-.21,2.93-.99l6.75-6.85c.34-.34,.58-.74,.75-1.15,.5-1.24,.24-2.72-.78-3.72Zm-80.72-6.73l.36-9.29c.06-1.57-.96-2.98-2.46-3.43l-9.42-2.78,.36-9.82c.06-1.57-.95-2.96-2.45-3.41l-9.38-2.8,.34-9.79c.05-1.56-.96-2.96-2.44-3.41l-9.41-2.83,.36-9.82c.06-1.56-.96-2.98-2.44-3.41l-9.41-2.83,.33-9.79c.05-1.56-.96-2.96-2.45-3.41l-9.37-2.8,.36-9.81c.06-1.56-.96-2.97-2.44-3.41l-9.41-2.83,.34-9.79c.05-1.56-.96-2.96-2.44-3.41l-9.41-2.83,.34-9.85c.05-1.56-.96-2.96-2.44-3.41l-6.49-1.95,12.12-12.29,106.25,104.81-18.14,35.76-11.13-1.38Zm64.52,11.56c-.55-.08-1.09-.02-1.6,.15-.09,.03-.15,.11-.23,.14-.4,.17-.79,.37-1.1,.69h0l-18.99,19.25c-.77,.78-1.12,1.87-.95,2.95l.92,5.77-3.19,3.24h0l-28.01-27.64h0l4.81-9.5,18.22-35.93,39.05,38.52h0l-3.12,3.17-3.35-.48-2.45-.35Z"/><path class="cls-3" d="M167.98,162.91l-16.53-16.14c-.77-.76-1.84-1.11-2.89-.98-1.05,.14-1.97,.76-2.46,1.67l-12.94,23.77c-.71,1.31-.44,2.95,.65,4.02l11.07,10.81c.15,.14,.3,.27,.46,.38,1.35,.93,3.18,.82,4.34-.35l18.39-18.44c1.3-1.3,1.25-3.43-.1-4.75Zm-27.45,11.21l9.99-18.21,10.78,10.63-14.03,14.23-6.74-6.65Z"/></g><path class="cls-1" d="M54.47,59.96c25.74,20.26,49.26,43.34,70.01,68.69"/></g></g></svg>