<?xml version="1.0" encoding="UTF-8"?><svg id="Calque_2" xmlns="http://www.w3.org/2000/svg" viewBox="0 0 206.91856 226.25024"><defs><style>.cls-1{fill:#80736a;}.cls-2{fill:none;stroke:#feea10;stroke-miterlimit:10;stroke-width:3.55px;}.cls-3{fill:#feea10;}</style></defs><g id="Calque_2-2"><g id="Calque_1-2"><g><g><path class="cls-1" d="M201.92688,158.05017L46.59689,4.84017C43.41688,1.72017,39.14689-.01983,34.67689,.00017c-4.47,.02-8.72,1.82-11.84,5L4.65689,23.51017c-5.43,5.52-6.21,14.1-1.82,20.49,24.52,35.73,95.43,133.32001,103.58999,144.55,.52,.72,1.08,1.37,1.71,1.99001l31.3,30.87c.7,.67,1.45,1.32001,2.23,1.87,2.83,1.95,6.2,2.98,9.67999,2.97,4.42999-.05,8.69-1.84,11.84-5l6.82001-6.92999c3.53999-3.58,5.25999-8.56,4.74001-13.50999l7.12-7.23c4.99001,.42999,9.93001-1.35001,13.47-4.94l6.75999-6.83c6.5-6.59,6.41-17.22-.16-23.75l-.00998-.01001Zm-16.12,21.23c-.75999,.78-1.85001,1.14-2.92999,.99001l-5-.72-.8-.11-12.94,13.12-3.61,3.66,.77,4.84,.14999,.92h0v.02c.06,.39-.02,.77-.09,1.14999-.03,.14,.00999,.28999-.03,.42-.16,.50999-.44,.98-.83,1.38l-6.83,6.92c-1.19,1.2-3.05,1.35001-4.39,.42h0c-.16-.12-.32001-.25-.46001-.39l-32.24001-31.8h0c-1.06-1.06-1.33-2.67-.65-4.00999l3.73-7.35001-11.81-1.47c-1.77-.22-3.08-1.75999-3.01-3.53999l.38-9.77-9.39-2.78c-.57-.17-1.08-.48-1.49-.89999-.65-.67-1.03-1.61-.99-2.53999l.36-9.81-9.38-2.8c-1.49-.45-2.5-1.84-2.45-3.41l.34-9.79-9.41-2.83c-1.49-.45-2.5-1.85-2.44-3.41l.36-9.82-9.41-2.82c-1.48-.44-2.5-1.85-2.44-3.41l.34-9.79-9.38-2.8c-1.5-.45-2.51-1.85-2.45-3.41l.36-9.81-9.41-2.83c-1.48-.44-2.5-1.84-2.44-3.41l.34-9.79-9.41-2.83c-1.48-.44-2.5-1.84-2.44-3.41l.34-9.85-9.41-2.83c-1.15-.35-2.04-1.27-2.34-2.44s.04-2.4,.88-3.26L32.34689,14.38017c.64-.65,1.51-1.02,2.42-1.02s1.79,.35,2.43,.99L192.52689,167.57018c1.00999,1,1.27,2.47,.78,3.72-.16,.42-.41,.81-.75,1.14999l-6.75,6.85001v-.01001Z"/><path class="cls-1" d="M34.82689,21.65017l-12.12,12.29,6.49,1.95c1.48,.44,2.5,1.85,2.44,3.41l-.34,9.85,9.41,2.83c1.49,.45,2.5,1.85,2.44,3.41l-.34,9.79,9.41,2.83c1.48,.44,2.5,1.85,2.44,3.41l-.36,9.81,9.37,2.8c1.49,.45,2.5,1.85,2.45,3.41l-.33,9.79,9.41,2.83c1.49,.44,2.5,1.85,2.44,3.41l-.36,9.82,9.41,2.83c1.48,.45,2.5,1.85,2.44,3.41l-.34,9.79,9.38,2.8c1.5,.45,2.51,1.85001,2.45,3.41l-.36,9.82001,9.42,2.78c1.5,.45,2.52,1.86,2.46,3.42999l-.36,9.28999,11.13,1.38,18.13999-35.75999L34.82689,21.65017Z"/><path class="cls-1" d="M146.19688,131.54016l-18.22,35.93001-4.81,9.49001h0l28.00999,27.64h0l3.19-3.23-.92-5.77c-.17-1.08,.17999-2.17999,.95-2.95l18.99001-19.25h0c.31-.32001,.7-.52,1.10001-.69,.08-.03999,.14-.11,.23-.14,.50999-.17,1.05-.23,1.60001-.14999l2.45,.35001,3.35001,.48,3.12-3.17h0l-39.05-38.53,.00999-.01003Zm3.53999,56.5c-1.19,1.2-3.05,1.35001-4.39,.42-.16-.11-.32001-.24001-.46001-.39l-11.03-10.88c-1.09-1.08-1.34-2.75-.60001-4.10001l13.42-24.47c.52-.94,1.45-1.59,2.50999-1.75s2.14,.19,2.91,.95l16.45999,16.24001c1.35001,1.33,1.36,3.50999,.03,4.86l-18.86,19.11,.01003,.01001Z"/><polygon class="cls-1" points="128.56689 177.63018 148.32689 195.09017 177.74689 169.62017 146.13689 141.69017 128.56689 177.63018"/><path class="cls-3" d="M192.52689,167.57018L37.19689,14.35017c-.64-.63-1.52-.99-2.43-.99s-1.78,.37-2.42,1.02L13.80689,33.17017c-.85,.86-1.18,2.09-.88,3.26s1.19,2.09,2.34,2.44l9.41,2.83-.34,9.85c-.05,1.56,.97,2.96,2.44,3.41l9.41,2.83-.34,9.79c-.06,1.56,.96,2.96,2.44,3.41l9.41,2.83-.36,9.81c-.06,1.56,.95,2.97,2.45,3.41l9.38,2.8-.34,9.79c-.05,1.56,.96,2.96,2.44,3.41l9.41,2.82-.36,9.82c-.06,1.56,.96,2.96,2.44,3.41l9.41,2.83-.34,9.78999c-.05,1.56,.96,2.96001,2.45,3.41l9.38,2.8-.36,9.81c-.03,.92999,.34,1.87,.99,2.53999,.41,.42,.92,.73,1.49,.89999l9.39,2.78-.38,9.77c-.07,1.78,1.24,3.32001,3.01,3.53999l11.81,1.47-3.73,7.35001c-.68,1.33-.41,2.95,.65,4h0l32.24,31.81c.14999,.14,.3,.27,.46001,.39h0c1.35001,.92999,3.21001,.78999,4.39-.41l6.83-6.92c.39-.39,.66-.87,.83-1.38,.03999-.13,0-.28,.03-.42,.07001-.38,.14999-.75999,.09-1.14999h0v-.02l-.14999-.92-.77-4.84,3.61-3.66,12.94-13.12,.8,.11,5,.72c1.08,.14999,2.17-.21001,2.92999-.99001l6.75-6.85001c.34-.34,.58-.74001,.75-1.14999,.5-1.24001,.24001-2.72-.78-3.72l.05,.01001Zm-80.72-6.73l.36-9.28999c.06-1.57001-.96-2.98-2.46-3.42999l-9.42-2.78,.36-9.82001c.06-1.57001-.95-2.96001-2.45-3.41l-9.38-2.8,.34-9.79c.05-1.56-.96-2.96-2.44-3.41l-9.41-2.83,.36-9.82c.06-1.56-.96-2.98-2.44-3.41l-9.41-2.83,.33-9.79c.05-1.56-.96-2.96-2.45-3.41l-9.37-2.8,.36-9.81c.06-1.56-.96-2.97-2.44-3.41l-9.41-2.83,.34-9.79c.05-1.56-.96-2.96-2.44-3.41l-9.41-2.83,.34-9.85c.05-1.56-.96-2.96-2.44-3.41l-6.49-1.95,12.12-12.29,106.25,104.81-18.14,35.76-11.13-1.38-.03001,.01003Zm64.51999,11.56c-.55-.08-1.09-.02-1.60001,.14999-.09,.03-.14999,.11-.23,.14-.39999,.17-.78999,.37-1.10001,.69h0l-18.99001,19.25c-.77,.78-1.12,1.87-.95,2.95l.92,5.77-3.19,3.24001h0l-28.01-27.64h0l4.81-9.5,18.21999-35.92999,39.05,38.52h0l-3.12,3.17-3.35001-.48-2.45-.35001-.00998,.01999Z"/><path class="cls-3" d="M167.97688,162.91017l-16.53-16.14c-.77-.75999-1.84-1.11-2.89-.98-1.05,.14-1.97,.75999-2.46001,1.67l-12.94,23.77c-.71001,1.31-.44,2.95,.64999,4.02l11.06999,10.81c.14999,.14,.3,.27,.46001,.38,1.35001,.92999,3.17999,.82001,4.34-.35001l18.39-18.44c1.3-1.3,1.25-3.42999-.10001-4.75l.01003,.00999Zm-27.45,11.21001l9.99001-18.21001,10.78,10.63-14.03,14.23-6.74001-6.64999Z"/></g><path class="cls-2" d="M54.46689,59.96017c25.74,20.26,49.25999,43.34,70.01,68.68999"/></g></g></g></svg>