<?xml version="1.0" encoding="UTF-8"?><svg id="Calque_2" xmlns="http://www.w3.org/2000/svg" viewBox="0 0 191.57187 202.80681"><defs><style>.cls-1{stroke:#ce4117;stroke-width:26px;}.cls-1,.cls-2{stroke-miterlimit:10;}.cls-1,.cls-3{fill:#ce4117;}.cls-4{fill:#1e1e1c;stroke-miterlimit:10;stroke-width:4px;}.cls-4,.cls-2,.cls-3{stroke:#1e1e1c;}.cls-2{fill:none;stroke-width:8px;}.cls-3{stroke-miterlimit:10;stroke-width:2px;}</style></defs><g id="Calque_1-2"><g id="Calque_2-2"><g id="Calque_1-2"><path class="cls-1" d="M118.81224,101.10031c.51554,16.97982,20.29273,21.52862,20.29273,21.52862l36.04907,39.50734c7.9398,11.17383-.44166,21.91855-.44166,21.91855-9.01902,10.95804-21.28096,2.89099-21.28096,2.89099l-36.12724-38.74715c-2.66934-20.10004-20.02129-21.41021-20.02129-21.41021l-5.97118-6.5904,6.35226-7.26798-2.83155-3.00732L41.46702,52.71143c-.60422-.57674-18.24756-14.78312-18.24756-14.78312l-7.39931-16.41483,7.34381-6.39517,15.24987,6.39637c2.72659,3.70056,13.0003,17.04127,13.82658,18.16545l.1123,.14625,50.92434,58.32259,3.67579,3.70609,6.49245-6.57426,5.36694,5.81949Z"/><path class="cls-2" d="M119.08687,101.88362c.50319,17.03854,20.35815,21.65479,20.35815,21.65479l36.183,39.64792c7.96864,11.231-.44061,22.01075-.44061,22.01075-9.05712,11.04199-21.40251,2.88585-21.40251,2.88585l-36.19577-38.95572c-2.70025-20.14742-20.15417-21.4586-20.15417-21.4586l-5.99437-6.62593,6.36822-7.29528-2.84134-3.00938L41.43157,53.3171c-.614-.5788-18.33719-14.84285-18.33719-14.84285l-7.37922-16.46169,7.37162-6.43019,15.30447,6.42829c2.75184,3.72631,12.91283,17.55425,13.89046,18.25042l.08706,.1205,51.11235,58.54609,3.72266,3.72616,6.50069-6.61341,5.38239,5.84318Z"/><rect class="cls-4" x="96.29343" y="105.69996" width="12.45" height="4.52" transform="translate(-46.12562 116.34616) rotate(-49.71004)"/><rect class="cls-3" x="148.82515" y="126.71932" width="3.33" height="47.49" transform="translate(-61.99831 138.826) rotate(-41.86004)"/><rect class="cls-3" x="140.03166" y="136.05764" width="3.33" height="47.49" transform="translate(-70.4742 135.34134) rotate(-41.86004)"/></g></g></g></svg>