<?xml version="1.0" encoding="utf-8"?>
<!-- Generator: Adobe Illustrator 26.3.1, SVG Export Plug-In . SVG Version: 6.00 Build 0)  -->
<svg version="1.1" id="Calque_1" xmlns="http://www.w3.org/2000/svg" xmlns:xlink="http://www.w3.org/1999/xlink" x="0px" y="0px"
	 viewBox="0 0 26.7 30.4" style="enable-background:new 0 0 26.7 30.4;" xml:space="preserve">
<style type="text/css">
	.st0{clip-path:url(#SVGID_00000030485870780361996670000013315142943936860071_);}
	.st1{fill:#C2E6FF;}
	.st2{fill:#FFEA00;}
	.st3{fill:#FFFFFF;}
</style>
<g>
	<defs>
		<rect id="SVGID_1_" y="0" width="26.7" height="30.4"/>
	</defs>
	<clipPath id="SVGID_00000124880165172624571460000018173321715507422355_">
		<use xlink:href="#SVGID_1_"  style="overflow:visible;"/>
	</clipPath>
	<g id="Groupe_733" style="clip-path:url(#SVGID_00000124880165172624571460000018173321715507422355_);">
		<path id="Ligne_21" class="st1" d="M7.8,9.9c-0.9,0-1.7-0.5-2.1-1.2l-0.6-1C4.4,6.4,4.8,4.9,6,4.2C7.1,3.6,8.7,4,9.3,5.1l0.6,1
			c0.7,1.2,0.3,2.7-0.9,3.4C8.7,9.8,8.2,9.9,7.8,9.9z"/>
		<path id="Ligne_22" class="st1" d="M19,9.9c-0.4,0-0.9-0.1-1.2-0.3c-1.2-0.7-1.6-2.2-0.9-3.4c0,0,0,0,0,0l0.5-0.9
			c0.7-1.2,2.2-1.6,3.4-0.9c0,0,0,0,0,0c1.2,0.7,1.6,2.2,0.9,3.4c0,0,0,0,0,0l-0.5,0.9C20.7,9.4,19.9,9.9,19,9.9z"/>
		<path id="Tracé_1201" class="st2" d="M14.6,2.5h-2.5c-0.6,0-1,0.5-1,1c0,0.6,0.5,1,1,1c0,0,0,0,0,0h2.5c0.6,0,1-0.5,1-1
			C15.6,2.9,15.2,2.5,14.6,2.5L14.6,2.5"/>
		<path id="Tracé_1202" class="st1" d="M12.1,0h2.5c1.9,0,3.5,1.5,3.5,3.4S16.6,6.9,14.7,7c0,0-0.1,0-0.1,0h-2.5
			c-1.9,0-3.5-1.5-3.5-3.4S10.1,0,12,0C12,0,12.1,0,12.1,0z"/>
		<path id="Tracé_1203" class="st1" d="M24.2,17c0-6-4.9-10.9-10.9-10.9S2.5,11,2.5,17c0,6,4.9,10.9,10.9,10.9c0,0,0,0,0,0
			C19.4,27.9,24.2,23.1,24.2,17"/>
		<path id="Ellipse_15612" class="st1" d="M13.4,3.7c7.4,0,13.3,6,13.3,13.4c0,7.4-6,13.3-13.3,13.3C6,30.4,0,24.4,0,17
			C0,9.7,6,3.7,13.4,3.7z M13.4,25.4c4.6,0,8.4-3.8,8.4-8.4c0-4.6-3.8-8.4-8.4-8.4C8.7,8.6,5,12.4,5,17C5,21.7,8.7,25.4,13.4,25.4z"
			/>
		<path id="Ellipse_15613" class="st3" d="M13.4,5.7c6.3,0,11.4,5.1,11.4,11.4s-5.1,11.4-11.4,11.4S2,23.3,2,17
			C2,10.8,7.1,5.7,13.4,5.7z M13.4,27.4c5.7,0,10.4-4.6,10.4-10.4S19.1,6.7,13.4,6.7S3,11.3,3,17l0,0C3,22.8,7.6,27.4,13.4,27.4z"/>
		<path id="Tracé_1204" class="st1" d="M22,17c0-4.8-3.9-8.7-8.7-8.7S4.7,12.2,4.7,17s3.9,8.7,8.7,8.7c0,0,0,0,0,0
			C18.1,25.7,22,21.8,22,17L22,17"/>
		<path id="Ellipse_15614" class="st3" d="M4.2,17c0-5.1,4.1-9.2,9.2-9.1c5.1,0,9.2,4.1,9.1,9.2s-4.1,9.2-9.2,9.1
			C8.3,26.2,4.2,22.1,4.2,17z M21.5,17.1c0-4.5-3.6-8.2-8.2-8.2c-4.5,0-8.2,3.6-8.2,8.2c0,4.5,3.6,8.2,8.2,8.2
			C17.8,25.2,21.5,21.6,21.5,17.1z"/>
		<path id="Ligne_23" class="st3" d="M11.4,18c-0.2,0-0.4-0.1-0.5-0.4c-0.1-0.3,0.1-0.5,0.3-0.6l10.3-2.9c0.3-0.1,0.5,0.1,0.6,0.3
			c0.1,0.3-0.1,0.5-0.3,0.6L11.5,18C11.4,18,11.4,18,11.4,18z"/>
		<path id="Tracé_1205" class="st1" d="M14.2,17c0-0.5-0.4-0.8-0.8-0.8s-0.8,0.4-0.8,0.8c0,0.5,0.4,0.8,0.8,0.8h0
			C13.8,17.9,14.2,17.5,14.2,17"/>
		<path id="Ellipse_15615" class="st3" d="M13.4,15.7c0.7,0,1.3,0.6,1.3,1.3c0,0.7-0.6,1.3-1.3,1.3c-0.7,0-1.3-0.6-1.3-1.3
			C12,16.3,12.6,15.7,13.4,15.7z M13.4,17.4c0.2,0,0.3-0.1,0.3-0.3c0-0.2-0.1-0.3-0.3-0.3c-0.2,0-0.3,0.1-0.3,0.3
			C13,17.2,13.2,17.4,13.4,17.4z"/>
		<path id="Ligne_24" class="st3" d="M13.4,10.9c-0.3,0-0.5-0.2-0.5-0.5v-2c0-0.3,0.2-0.5,0.5-0.5c0.3,0,0.5,0.2,0.5,0.5v2
			C13.8,10.7,13.6,10.9,13.4,10.9z"/>
		<path id="Ligne_25" class="st3" d="M13.4,6.1c-0.3,0-0.5-0.2-0.5-0.5v-2c0-0.3,0.2-0.5,0.5-0.5c0.3,0,0.5,0.2,0.5,0.5v2
			C13.8,5.9,13.6,6.1,13.4,6.1z"/>
		<path id="Ligne_26" class="st3" d="M13.4,26.2c-0.3,0-0.5-0.2-0.5-0.5v-2c0-0.3,0.2-0.5,0.5-0.5c0.3,0,0.5,0.2,0.5,0.5v2
			C13.8,26,13.6,26.2,13.4,26.2z"/>
		<path id="Ligne_27" class="st3" d="M22,17.5h-2c-0.3,0-0.5-0.2-0.5-0.5c0-0.3,0.2-0.5,0.5-0.5h2c0.3,0,0.5,0.2,0.5,0.5
			C22.5,17.3,22.3,17.5,22,17.5z"/>
		<path id="Ligne_28" class="st3" d="M6.7,17.5h-2c-0.3,0-0.5-0.2-0.5-0.5c0-0.3,0.2-0.5,0.5-0.5h2c0.3,0,0.5,0.2,0.5,0.5
			C7.2,17.3,7,17.5,6.7,17.5z"/>
		<path id="Ligne_29" class="st3" d="M19.1,14.2c-0.2,0-0.3-0.1-0.4-0.2c-0.1-0.2-0.1-0.5,0.2-0.7l1.8-1c0.2-0.1,0.5-0.1,0.7,0.2
			c0.1,0.2,0.1,0.5-0.2,0.7l-1.8,1C19.3,14.2,19.2,14.2,19.1,14.2z"/>
		<path id="Ligne_30" class="st3" d="M5.8,21.9c-0.2,0-0.3-0.1-0.4-0.2c-0.1-0.2-0.1-0.5,0.2-0.7l1.8-1c0.2-0.1,0.5-0.1,0.7,0.2
			c0.1,0.2,0.1,0.5-0.2,0.7l-1.8,1C6,21.9,5.9,21.9,5.8,21.9z"/>
		<path id="Ligne_31" class="st3" d="M10,11.8c-0.2,0-0.3-0.1-0.4-0.2l-1-1.8C8.4,9.5,8.5,9.2,8.8,9.1C9,9,9.3,9,9.4,9.3l1,1.8
			c0.1,0.2,0.1,0.5-0.2,0.7C10.2,11.7,10.1,11.8,10,11.8z"/>
		<path id="Ligne_32" class="st3" d="M7.8,7.9c-0.2,0-0.3-0.1-0.4-0.2l-0.6-1C6.6,6.4,6.7,6.1,7,6c0.2-0.1,0.5-0.1,0.7,0.2l0.6,1
			C8.4,7.4,8.3,7.7,8,7.8C8,7.9,7.9,7.9,7.8,7.9z"/>
		<path id="Ligne_33" class="st3" d="M17.7,25.1c-0.2,0-0.3-0.1-0.4-0.2l-1-1.8c-0.1-0.2-0.1-0.5,0.2-0.7c0.2-0.1,0.5-0.1,0.7,0.2
			l1,1.8c0.1,0.2,0.1,0.5-0.2,0.7C17.9,25,17.8,25.1,17.7,25.1z"/>
		<path id="Ligne_34" class="st3" d="M16.7,11.8c-0.1,0-0.2,0-0.2-0.1c-0.2-0.1-0.3-0.4-0.2-0.7l1-1.8c0.1-0.2,0.4-0.3,0.7-0.2
			c0.2,0.1,0.3,0.4,0.2,0.7l-1,1.8C17,11.7,16.8,11.8,16.7,11.8z"/>
		<path id="Ligne_35" class="st3" d="M19,7.9c-0.1,0-0.2,0-0.2-0.1c-0.2-0.1-0.3-0.4-0.2-0.7l0.5-0.9C19.2,6,19.5,5.9,19.8,6
			C20,6.2,20.1,6.5,20,6.7l-0.5,0.9C19.3,7.8,19.2,7.9,19,7.9z"/>
		<path id="Ligne_36" class="st3" d="M9,25.1c-0.1,0-0.2,0-0.2-0.1c-0.2-0.1-0.3-0.4-0.2-0.7l1-1.8c0.1-0.2,0.4-0.3,0.7-0.2
			c0.2,0.1,0.3,0.4,0.2,0.7l-1,1.8C9.4,25,9.2,25.1,9,25.1z"/>
		<path id="Ligne_37" class="st3" d="M20.9,21.9c-0.1,0-0.2,0-0.2-0.1l-1.8-1c-0.2-0.1-0.3-0.4-0.2-0.7c0.1-0.2,0.4-0.3,0.7-0.2
			l1.8,1c0.2,0.1,0.3,0.4,0.2,0.7C21.2,21.8,21.1,21.9,20.9,21.9z"/>
		<path id="Ligne_38" class="st3" d="M7.6,14.2c-0.1,0-0.2,0-0.2-0.1l-1.8-1c-0.2-0.1-0.3-0.4-0.2-0.7c0.1-0.2,0.4-0.3,0.7-0.2
			l1.8,1C8.1,13.4,8.1,13.7,8,14C7.9,14.1,7.8,14.2,7.6,14.2z"/>
		<path id="Tracé_1206" class="st3" d="M13.2,21.1c-0.5,0-0.9-0.1-1.4-0.3c-0.5-0.2-0.9-0.5-1.3-0.8c-0.2-0.2-0.4-0.4-0.5-0.6
			c-0.5-0.7-0.7-1.5-0.7-2.3c0-0.5,0.1-1.1,0.4-1.6c0.2-0.5,0.6-0.9,1-1.3c0.4-0.4,0.9-0.7,1.4-0.9c0.5-0.2,1-0.4,1.6-0.5
			c0,0,0.1,0,0.1,0.1s0,0.1-0.1,0.1c-2,0.3-4.1,1.8-4.1,4c0,1.1,0.4,2.1,1.2,2.8c0.7,0.7,1.7,1.1,2.6,1c2.5-0.1,3.9-1.5,3.9-3.9
			c0,0,0-0.1,0.1-0.1c0,0,0.1,0,0.1,0.1c0,0.5-0.1,1.1-0.2,1.6c-0.3,1-1,1.7-2,2.1c-0.6,0.2-1.2,0.3-1.8,0.4L13.2,21.1z"/>
		<path id="Tracé_1207" class="st3" d="M12.8,14.1C12.7,14.1,12.7,14.1,12.8,14.1C12.7,14,12.7,14,12.7,14l0.8-1l-1-0.7
			c0,0,0-0.1,0-0.1s0.1,0,0.1,0l0,0l1.1,0.7c0,0,0,0.1,0,0.1c0,0,0,0,0,0L12.8,14.1C12.8,14.1,12.8,14.1,12.8,14.1z"/>
		<path id="Tracé_1208" class="st1" d="M14.6,2.5h-2.5c-0.6,0-1,0.5-1,1c0,0.6,0.5,1,1,1c0,0,0,0,0,0h2.5c0.6,0,1-0.5,1-1
			C15.6,2.9,15.2,2.5,14.6,2.5L14.6,2.5"/>
		<path id="Tracé_1209" class="st3" d="M12.1,2h2.5c0.8,0,1.5,0.7,1.5,1.5S15.4,5,14.6,5h-2.5c-0.8,0-1.5-0.7-1.5-1.5
			S11.3,2,12.1,2z M14.6,4c0.3,0,0.5-0.2,0.5-0.5c0-0.3-0.2-0.5-0.5-0.5c0,0,0,0,0,0h-2.5c-0.3,0-0.5,0.2-0.5,0.5S11.8,4,12.1,4
			L14.6,4z"/>
	</g>
</g>
</svg>
