<?xml version="1.0" encoding="UTF-8"?><svg id="Calque_2" xmlns="http://www.w3.org/2000/svg" viewBox="0 0 273.68551 464.07424"><defs><style>.cls-1{stroke-width:10.43355px;}.cls-1,.cls-2,.cls-3,.cls-4{fill:#fde90c;}.cls-1,.cls-2,.cls-4,.cls-5,.cls-6{stroke:#000;stroke-linecap:round;}.cls-1,.cls-4,.cls-6{stroke-linejoin:round;}.cls-2{stroke-width:2.98101px;}.cls-2,.cls-5{stroke-miterlimit:10;}.cls-4{stroke-width:9.23722px;}.cls-5{stroke-width:2.64636px;}.cls-5,.cls-6{fill:none;}.cls-6{stroke-width:13.41457px;}</style></defs><g id="Calque_1-2"><g><path d="M10.53874,67.7064c.04144-2.2329,1.16699-5.72071,3.84988-5.90453,2.6113-.17892,3.65152,2.96732,3.99743,5.01319,.48421,2.86385-.22834,5.77635-.06366,8.65981,.17276,3.02503,1.10088,5.92982,3.75494,7.64917,1.62513,1.05279,3.13059-1.54325,1.51416-2.59041-2.09444-1.35682-2.31108-4.11256-2.30002-6.38412,.01265-2.59894,.44194-5.12995,.05189-7.72299-.36283-2.41203-1.30892-4.94025-3.30966-6.45973-1.96367-1.49133-4.76887-1.54435-6.7867-.11406-2.47992,1.75782-3.65337,4.89702-3.70824,7.85367-.03584,1.93124,2.96415,1.93134,3,0h0Z"/><path d="M29.86768,88.53314c1.93036,0,1.93355-3,0-3-1.93036,0-1.93355,3,0,3h0Z"/></g><g><path d="M215.731,52.79215c3.32251-1.85755,7.56469-2.74871,11.25992-1.53651,3.83139,1.25687,5.58439,5.23486,4.1949,8.96519-1.60114,4.29854-5.86788,7.53722-9.79029,9.59546-3.76992,1.97822-7.70921,3.56367-11.15788,6.11406-3.6997,2.73603-6.58287,6.34301-6.79,11.1028-.084,1.93032,2.91617,1.92627,3,0,.19278-4.43004,3.61517-7.5271,7.12209-9.75426,4.04745-2.57043,8.68733-4.09625,12.60018-6.87184,3.83173-2.71804,7.72-6.60209,8.42353-11.46333,.6499-4.49065-1.94677-8.66593-6.10812-10.32577-4.57928-1.82654-10.08082-.75745-14.26849,1.58379-1.68536,.94225-.17447,3.53449,1.51416,2.59041h0Z"/><path d="M203.59728,98.26931c1.93036,0,1.93355-3,0-3-1.93036,0-1.93355,3,0,3h0Z"/></g><g><path d="M96.7798,14.6891c1.91778-4.81032,6.09901-9.6402,11.35012-10.75633,4.38693-.93245,8.4105,1.8694,9.71233,5.99988,1.38478,4.39367,.62547,9.30239-.70098,13.61381-1.63617,5.31813-4.63175,10.11536-6.47167,15.37173-2.18093,6.23061-3.10668,13.48553,1.07142,19.11738,.61481,.82873,1.63514,1.22652,2.59481,.68038,.8162-.46449,1.28912-1.77425,.68038-2.59481-3.95991-5.33775-2.32449-12.00407-.12582-17.72683,2.11278-5.49921,5.24559-10.5468,6.57957-16.33356,1.13937-4.94255,1.42949-10.43424-.75686-15.1388-2.27843-4.9027-7.62566-7.61821-12.92939-6.76725-6.91708,1.10982-12.19394,7.33679-14.66147,13.52605-.3821,.95841,.41803,2.07355,1.32461,2.33295,1.07597,.30787,1.95534-.37744,2.33295-1.32461h0Z"/><path d="M119.7996,69.61539c2.44065,0,2.44469-3.79305,0-3.79305-2.44065,0-2.44469,3.79305,0,3.79305h0Z"/></g><g><path class="cls-3" d="M217.47378,464.07424c-5.37959-.00043-10.69004-1.42442-15.35657-4.1181-5.11425-2.95385-9.05992-7.1666-11.67106-12.02155l-25.26439-4.64664c-10.96836-2.01735-19.93493-9.85467-23.40089-20.45352-.42612-1.30082-.75975-2.61719-1.00435-3.94048-4.7132-4.46211-8.1541-10.18657-9.8551-16.60768-1.20661-4.55589-1.47887-9.24099-.86174-13.79602-1.01818-1.87517-1.86263-3.84368-2.51952-5.88177-25.16672-6.85328-49.52961-24.49341-61.54468-51.05127-2.06661,.24331-4.16175,.36648-6.27504,.36648-29.07436,0-52.7285-23.65414-52.7285-52.72893,0-2.18978,.13743-4.37611,.40969-6.54471-1.89029-2.63405-3.44609-5.54079-4.61207-8.66708l-.48575-1.30341c-3.64143-9.71076-2.90329-20.5486,1.76929-29.65173C-1.06967,211.0146,.07989,188.28616,7.49844,166.74185c8.30622-24.12045,23.69304-44.63361,44.49748-59.32248,8.65282-6.10866,17.86572-11.00898,27.38459-14.5657,1.1461-.42568,2.13663-.73468,2.91366-.96935,.96114-.40537,1.94042-.74073,2.95083-1.01213l2.1833-.58688,5.91375-1.60333c.11841-.03198,.23683-.0631,.3561-.09335,.35956-.09248,.72085-.17589,1.08474-.24979,2.31814-.47365,14.61238-2.83501,28.95854-2.83501,9.66235,0,18.44914,1.0614,26.13045,3.15567,2.25245,.5415,4.53687,1.16469,6.79623,1.85485,.31548,.09551,.6301,.19577,.94298,.29819,16.50267,5.31304,47.08874,19.12375,67.0228,52.01111,.25498,.42093,.49526,.84964,.72172,1.28656l.56268,1.0856c.06828,.11107,.13484,.223,.20139,.33493,.07693,.13095,.15299,.26276,.22818,.39543l11.81972,.39543c14.92613,.48878,27.95332,9.8538,33.17215,23.85812,3.50573,9.36848,3.07183,19.52783-1.2334,28.5791-4.06754,8.62775-11.28384,15.27013-20.28671,18.63757l-.16854,.06223c-.35178,.12835-.69924,.24979-1.04843,.36345l-.0994,.03414c1.66124,9.67229,1.99315,20.84939-.29992,33.2279,3.19975,6.03822,7.21716,14.75931,10.17144,25.03664,6.43408,22.38574,5.30181,43.10461-3.19111,60.73998,2.10897,9.41299,.00519,19.51486-6.02352,27.33403,2.29566,.68325,4.51354,1.63488,6.60262,2.84062,7.10999,4.10427,12.19484,10.73196,14.32023,18.66177,2.12366,7.92894,1.03374,16.21052-3.07097,23.31921l-22.91514,39.6905c-5.47208,9.47868-15.67377,15.36737-26.62225,15.36737h-.00086Z"/><path class="cls-6" d="M213.8557,191.80026s21.61504,24.99239,10.80752,62.81871c0,0,41.02239,60.79751-9.62956,95.23547-21.79041,14.81517-42.69748,16.44414-70.67586,13.49005-26.92937-2.84333-59.52162-23.52496-63.56969-60.76715"/><g><g><path class="cls-3" d="M34.59897,248.17104c-.58745,.73291-.7495,1.73752-.42072,2.61726l.48583,1.29997c.51294,1.37253,2.00158,2.07377,3.3869,1.60428l37.13079-12.66418,9.8293-3.35255,118.90371-40.55462,21.7875-7.43095,12.11318-4.13158c.96482-.40537,1.37913-1.01155,1.5605-1.39286,.18024-.38434,.43496-1.16862,.08923-2.09371-.38301-1.02486-1.33906-1.71153-2.43106-1.74789l-4.39064-.14601-18.92184-.63034c-5.39374-.17726-10.106-3.3677-12.55791-8.29439-.0278-.05594-.06949-.10065-.09653-.15687-.05752-.11934-.14949-.20986-.20427-.33108-.01776-.03945-.04851-.06758-.06589-.10716-.12128-.27381-.27564-.5232-.39965-.79512-.84067-1.84611-1.75723-3.6337-2.71117-5.39226-.39689-.73241-.78514-1.46934-1.20112-2.18601-.05443-.09379-.11789-.17946-.1727-.27311-4.78086-8.16799-10.79159-15.28116-17.66836-21.2821-15.60171-13.61444-35.69654-21.3028-56.53881-21.43078-6.61701-.04053-13.29384,.70619-19.92772,2.23964-.3564,.08237-.71395,.14321-1.0703,.23031-1.63091,.3989-3.25191,.87851-4.87401,1.37706-1.65039,.50696-3.30645,.96651-4.94351,1.57832-7.76846,2.90323-14.85228,6.83747-21.21459,11.53956-29.06342,21.47868-42.48059,59.63191-31.02631,95.70448,1.5128,4.75782,.61145,9.8597-2.41434,13.64692l-2.03549,2.55577Zm135.21353-96.3011c-.05759,.07407-.13536,.1195-.1955,.19021-.6778,.79424-1.50308,1.39553-2.42213,1.73899-.35069,.13106-.73453,.05702-1.10195,.12025-1.58554,.27255-3.25347,.07804-4.62663-.98377-1.78393-1.38075-3.65783-2.58275-5.54365-3.75444-9.68652-6.01939-20.58023-9.32485-31.70256-9.64769-4.39458-.12774-8.80891,.30704-13.20004,1.10353-3.75304,.68077-7.48966,1.5772-11.15263,2.94613-2.64642,.98902-5.20849,2.16573-7.68837,3.48745-5.12097,2.72951-9.80796,6.18232-13.99705,10.17345-1.61042,1.5347-3.1942,3.10035-4.63619,4.79993-2.12004,2.50468-5.88154,2.81134-8.38433,.68714-2.50581-2.12307-2.81323-5.87739-.68714-8.38433,3.75498-4.42667,8.07446-8.32355,12.73288-11.76524,5.66135-4.18302,11.85145-7.65878,18.49566-10.14186,6.35663-2.3756,12.87849-3.84005,19.41608-4.4753,1.74218-.16916,3.48219-.16093,5.22362-.20879,9.92155-.27193,19.75621,1.39478,29.04247,4.97409,2.5535,.98419,5.0436,2.1329,7.49876,3.40019,4.10601,2.12023,8.11386,4.49292,11.86303,7.39383,2.59886,2.01249,3.07515,5.7485,1.06568,8.34622Z"/><path d="M41.89149,264.9514l5.60664-1.91492,94.5596-32.25003,99.59568-33.97225c.14073-.04247,.27765-.09249,.41461-.14255,3.57116-1.33563,6.42133-3.94824,8.05694-7.41679,1.70747-3.59078,1.8745-7.62489,.48113-11.34823-2.07092-5.55647-7.25017-9.2764-13.17742-9.47028l-2.14457-.07156-21.17574-.70923c-1.00188-.03796-1.91864-.71997-2.40268-1.77308-.00768-.01522-.02296-.02655-.03064-.04177-.04229-.10268-.09596-.19006-.14587-.2889-.00384-.00761-.00392-.02667-.00774-.03424l-.0499-.09884-.21491-.40672c-1.12183-2.46749-2.31958-4.87754-3.61989-7.20722-.19946-.35722-.39134-.71833-.59453-1.06412-.10734-.17477-.22604-.33431-.32577-.51292l-.27247-.52073-.73298-1.414c-16.85617-27.81032-43.75155-38.92174-55.47799-42.60836-1.90667-.58288-3.8207-1.1048-5.76121-1.56567-.01899,.0001-.03044-.00367-.03044-.00367-19.10298-5.37166-43.71102-.40762-45.23333-.09698-.04943,.01547-.0761,.01938-.0761,.01938l-5.95819,1.61539-2.18395,.58752c-.23588,.06185-.40286,.22245-.62725,.30716-1.07642,.36222-2.16087,.63311-3.23717,1.03341-8.13886,3.04084-15.58046,7.12252-22.3679,11.91392-34.24511,24.17896-50.30503,68.33226-37.05069,110.07772,.31611,.96618,.17142,1.9456-.37444,2.6219l-2.03147,2.55224c-3.18757,3.98504-4.05365,9.43116-2.26388,14.20417l.48501,1.30069c2.77533,7.44289,10.84966,11.26569,18.36952,8.69956Zm-7.22997-12.86434l-.48501-1.30069c-.32716-.87471-.16733-1.88088,.42397-2.61826l2.03147-2.55224c3.02835-3.79016,3.92629-8.88982,2.4184-13.65247-11.45721-36.06985,1.95628-74.22156,31.02062-95.69888,6.36505-4.7021,13.453-8.63387,21.2191-11.54374,1.63917-.60822,3.29421-1.07176,4.94144-1.56956,1.62435-.50529,3.24503-.98014,4.87359-1.38262,.35774-.08518,.71548-.15133,1.07699-.22893,5.27801-1.22427,10.58075-1.94586,15.87414-2.15704,1.35186-.06246,2.70388-.0868,4.0522-.08062,20.84209,.12395,40.933,7.81129,56.5376,21.42744,5.18622,4.52734,9.88363,9.69264,13.93211,15.46229,1.31381,1.88403,2.55923,3.82164,3.73259,5.82422,.05362,.08741,.11875,.17856,.17242,.26594,.42181,.72205,.80175,1.45562,1.2007,2.18915,.9553,1.75974,1.87642,3.54623,2.71394,5.39403,.12678,.26989,.28008,.51689,.3992,.79064,.01919,.038,.04601,.07221,.0652,.11021,.0538,.12546,.14559,.2127,.20702,.33436,.02685,.05318,.0689,.09874,.09577,.15196,2.44933,4.92657,7.16185,8.11887,12.55578,8.29582l18.92061,.62664,4.39591,.14652c1.08946,.04143,2.04431,.72331,2.42923,1.75013,.34261,.92421,.09051,1.7098-.08701,2.09519-.18897,.38162-.59794,.9888-1.56757,1.39254l-12.11094,4.13046-21.78751,7.43253-118.90316,40.55334-9.83254,3.35217-37.12774,12.66876c-1.38456,.47011-2.87657-.2363-3.38852-1.60928Z"/><path d="M150.233,111.68465c.40511,.12236,.8043,.26193,1.20769,.38942-.41768-.13768-.82195-.26816-1.20769-.38942Z"/><path d="M111.02003,140.63703c-3.75304,.68077-7.48966,1.5772-11.15263,2.94613-2.64642,.98902-5.20849,2.16573-7.68837,3.48745-5.12097,2.72951-9.80796,6.18232-13.99705,10.17345-1.61042,1.5347-3.1942,3.10035-4.63619,4.79993-2.12004,2.50468-5.88154,2.81134-8.38433,.68714-2.50581-2.12307-2.81323-5.87739-.68714-8.38433,3.75498-4.42667,8.07446-8.32355,12.73288-11.76524,5.66135-4.18302,11.85145-7.65878,18.49566-10.14186,6.35663-2.3756,12.87849-3.84005,19.41608-4.4753,1.74218-.16916,3.48219-.16093,5.22362-.20879,9.92155-.27193,19.75621,1.39478,29.04247,4.97409,2.5535,.98419,5.0436,2.1329,7.49876,3.40019,4.10601,2.12023,8.11386,4.49292,11.86303,7.39383,2.59886,2.01249,3.07515,5.7485,1.06568,8.34622-.05759,.07407-.13536,.1195-.1955,.19021-.6778,.79424-1.50308,1.39553-2.42213,1.73899-.35069,.13106-.73453,.05702-1.10195,.12025-1.58554,.27255-3.25347,.07804-4.62663-.98377-1.78393-1.38075-3.65783-2.58275-5.54365-3.75444-9.68652-6.01939-20.58023-9.32485-31.70256-9.64769-4.39458-.12774-8.80891,.30704-13.20004,1.10353Z"/></g><path class="cls-5" d="M77.56278,220.51083c38.06485-3.91267,75.44454-14.40573,109.98472-30.87442"/></g><path class="cls-1" d="M81.47619,300.7156c-5.54685,5.60712-13.24576,9.08103-21.75606,9.08103-16.90088,0-30.60175-13.70087-30.60175-30.60175s13.70087-30.60175,30.60175-30.60175c8.18472,0,15.61896,3.2132,21.11007,8.44695l13.7245,12.35733,16.61442-33.36644,114.8796-37.50493"/><polygon points="72.69785 250.19128 94.55471 269.39742 111.3564 234.72786 72.69785 250.19128"/><path class="cls-2" d="M184.50902,289.4368c7.0396,2.87869,15.07996-.49439,17.95866-7.53399,2.87869-7.0396-.49439-15.07996-7.53399-17.95866-7.0396-2.87869-15.07996,.49439-17.95866,7.53399"/><path d="M164.00844,253.27789c0,8.16922-2.69066,14.78956-6.00969,14.78956s-6.00969-6.62034-6.00969-14.78956c0-2.91193,.3453-5.62026,.92916-7.90371h10.16064c.58429,2.28345,.92959,4.99178,.92959,7.90371Z"/><ellipse cx="200.45585" cy="253.27772" rx="6.01154" ry="14.79294"/><path class="cls-5" d="M51.64661,290.55263c-3.78159-2.55479-6.26787-6.88127-6.26787-11.78846,0-7.8515,6.3649-14.21639,14.21639-14.21639,2.94431,0,5.67957,.89506,7.94852,2.42794"/><path class="cls-5" d="M47.47575,271.26476c3.92402,1.65013,7.22512,4.7862,8.98544,9.02867"/><line class="cls-5" x1="146.0588" y1="245.37586" x2="169.94353" y2="245.37586"/><path class="cls-5" d="M190.23545,238.21761s9.30468-14.68324,20.46394,0"/><ellipse cx="185.69656" cy="321.50271" rx="6.12563" ry="9.95439"/><polygon class="cls-3" points="134.54233 335.23728 190.23545 363.17085 208.54585 335.23728 226.04872 331.4571 237.98375 344.243 228.94016 357.5558 226.04872 370.0855 232.94585 389.34813 210.69939 424.51137 169.94353 419.81273 151.86698 396.27705 146.0588 371.26016 151.86698 359.03447 122.79574 341.11058 134.54233 335.23728"/><path class="cls-6" d="M164.66076,370.0188l-34.16687-20.95935c-4.75799-2.91874-5.85461-9.36102-2.33027-13.6896h.00001c2.81342-3.45546,7.69445-4.40635,11.59924-2.25972l43.05012,23.66657c4.2515,2.33724,9.55804,.92207,12.15101-3.17847,4.68434-7.40784,13.44177-17.85035,26.48129-19.98732,3.90232-.63953,7.84629,.89287,10.25116,4.03194l.2266,.29579c3.33207,4.34936,2.60158,10.47681-1.51978,14.08708-6.81286,5.968-13.4143,17.10683-.17499,34.07481"/><path class="cls-6" d="M206.46735,428.3832l-39.05377-3.3165c-6.45592-1.18734-9.02951-10.82596-4.52309-15.59888l1.77027-1.77027"/><path class="cls-6" d="M164.66075,407.69755l-5.31832-2.56296c-7.3006-3.51825-9.73863-12.72179-5.13719-19.3929h0"/><path class="cls-6" d="M164.66075,390.69378l-11.73971-8.79642c-6.08805-4.5617-6.59175-13.51041-1.05407-18.7265h.00001"/><rect class="cls-4" x="197.42014" y="404.89095" width="63.04004" height="17.20952" rx="8.47512" ry="8.47512" transform="translate(-243.62771 405.01585) rotate(-60)"/><g><polygon class="cls-3" points="184.71027 317.17047 240.76323 283.7363 254.20091 280.62233 245.0229 291.43927 189.05072 325.03733 184.71027 317.17047"/><path d="M182.53483,317.99966l2.74179,4.22394,2.74179,4.22394c.18765,.28842,.52826,.46779,.94881,.4982,.4197,.03087,.88381-.08929,1.29077-.33339l56.1913-33.77117c.22142-.13303,.40964-.30396,.56797-.48988,.01215-.0142,.03183-.02303,.04356-.0375l9.19112-11.39527c.38186-.47303,.47623-1.01688,.25249-1.42322-.01083-.01967-.02251-.03887-.0342-.05808-.26776-.41175-.83976-.59028-1.47935-.46243l-14.67437,2.94801c-.01646,.00335-.03141,.01499-.0478,.01871-.23918,.05319-.48078,.13975-.71242,.27891l-56.19164,33.77055c-.84746,.50989-1.18163,1.42211-.82981,2.00868Zm65.35479-34.85201l1.35057,2.0806-3.10227,3.84626-1.60027-2.46534h0l-1.60119-2.46674,4.95315-.99478Zm-57.50755,40.36974l-1.33135-2.05123,53.12302-31.92629,1.33103,2.0504-53.1227,31.92712Zm50.38116-36.1506l-53.12297,31.92637-1.3315-2.05125,53.12293-31.92645,1.33154,2.05133Z"/></g></g></g></svg>