<?xml version="1.0" encoding="UTF-8"?><svg id="Calque_2" xmlns="http://www.w3.org/2000/svg" viewBox="0 0 270.76176 299.98628"><defs><style>.cls-1{stroke-width:10.43355px;}.cls-1,.cls-2,.cls-3,.cls-4,.cls-5{stroke:#000;stroke-linecap:round;}.cls-1,.cls-2,.cls-6{fill:#fde90c;}.cls-1,.cls-3,.cls-5{stroke-linejoin:round;}.cls-2{stroke-width:2.98101px;}.cls-2,.cls-4{stroke-miterlimit:10;}.cls-3,.cls-4{stroke-width:2.64636px;}.cls-3,.cls-4,.cls-5{fill:none;}.cls-5{stroke-width:13.41457px;}</style></defs><g id="Calque_1-2"><g><path class="cls-6" d="M164.82915,299.98628c-9.22619,0-18.43771-1.24018-27.37876-3.6863-18.95326-5.18581-34.92484-12.87601-47.47168-22.85753-10.86761-8.64569-19.03912-18.87586-24.36016-30.47967-2.42521,.34697-4.88289,.52134-7.35435,.52134-28.26531,0-51.26073-22.99542-51.26073-51.26073,0-2.31355,.1588-4.63601,.47374-6.93933-1.98661-2.66986-3.58443-5.61196-4.76812-8.78537l-.48575-1.30424c-3.55819-9.48731-2.8002-20.06578,1.94835-28.94901C-1.03815,124.35677,.07437,101.6109,7.4305,80.24889,15.63581,56.42119,30.83517,36.15746,51.38581,21.64715c8.5505-6.03588,17.65214-10.8774,27.05315-14.38977,1.14232-.42526,2.14096-.73352,2.91096-.96617,.92257-.39056,1.86917-.71706,2.8211-.97284l2.18366-.58717,5.914-1.60405c.14057-.03781,.27891-.07384,.41725-.10809,.30649-.07785,.6152-.14813,.92524-.21174,2.30288-.47018,14.46983-2.80731,28.67366-2.80731,9.53624,0,18.20061,1.04535,25.75692,3.10802,2.24194,.5378,4.51056,1.15655,6.74627,1.84026,.31227,.0943,.64322,.19973,.97329,.30827,7.36503,2.37183,18.71306,6.87839,30.70653,14.79723,14.70782,9.71106,26.63635,22.01102,35.45463,36.55958,.23798,.39234,.46529,.79758,.67525,1.20371l.58362,1.12497c.0863,.14012,.16236,.2669,.2362,.39456,.19439,.33051,.39679,.69082,.59829,1.05736l12.64737,.42348c14.33149,.46796,26.83429,9.45795,31.84529,22.90201,3.36824,9.002,2.94921,18.74909-1.1828,27.43704-3.91316,8.29917-10.83425,14.662-19.47727,17.89413l-.06939,.02536c-.35764,.13211-.70817,.25711-1.11118,.38789l-1.29045,.44038c2.10493,11.3071,2.04399,22.88555-.18816,34.5414,3.6774,7.04297,9.01001,18.9457,11.67586,32.90754,2.74637,14.38443,2.23215,28.09227-1.52754,40.74275-4.77168,16.05476-14.57348,29.89561-29.13272,41.13865-17.33142,13.38223-39.12803,20.75171-61.37569,20.75171Z"/><path class="cls-6" d="M164.82901,292.23914c-8.53626,0-17.06007-1.1481-25.33433-3.41184-17.93505-4.90691-32.97204-12.12292-44.69283-21.44742-11.68921-9.29914-19.87006-20.4639-24.45135-33.33235-3.87757,1.11385-7.93663,1.68946-12.08644,1.68946-23.99362,0-43.51359-19.51998-43.51359-43.51359,0-3.0751,.32962-6.14397,.9724-9.14079-2.47992-2.63694-4.44562-5.77966-5.75519-9.29114l-.48486-1.30157c-3.11603-8.30851-1.95458-17.71041,2.98703-25.02384-5.72717-21.40738-4.95673-43.6635,2.28553-64.695,7.67285-22.28103,21.88424-41.22851,41.09862-54.79534,8.00914-5.65377,16.52005-10.18213,25.29652-13.46141,1.03645-.38567,1.95858-.66235,2.69967-.88521,.05872-.01735,.11788-.03514,.1766-.05293,.58673-.2669,1.31536-.5507,2.15475-.77623l2.18411-.58717,5.9309-1.6085c.0903-.02447,.1806-.04804,.27135-.07028,.19884-.05071,.39946-.09653,.60096-.1379,2.16587-.44216,13.65357-2.64896,27.11587-2.64896,8.89746,0,16.91283,.96394,23.83081,2.86559,2.12406,.5071,4.27881,1.09339,6.40776,1.74417,.2749,.08318,.54803,.17037,.82026,.25978,6.95801,2.24105,17.59876,6.46959,28.8556,13.90223,13.74343,9.07406,24.87927,20.55064,33.09793,34.10991,.14857,.2451,.28869,.49465,.42036,.74909l.73085,1.40922c.04537,.07117,.08941,.14146,.13345,.21263,.0476,.0774,.09475,.15569,.14057,.23442,.19795,.33674,.39011,.68281,.58139,1.03156l.15302,.27668c.62498,1.12052,1.23484,2.26462,1.83536,3.44475l17.11167,.57294c11.17988,.3652,20.93631,7.37748,24.84546,17.86521,2.62716,7.02207,2.30243,14.62864-.91991,21.40382-3.05153,6.47137-8.45442,11.44455-15.19446,13.96495l-.07251,.02669c-.24866,.09163-.51956,.18861-.83628,.29047l-7.94553,2.71034c2.97012,11.01085,4.29082,24.86192,.75265,40.81437,3.62224,6.53009,9.44861,18.645,12.22211,33.16999,2.5115,13.15537,2.05956,25.63148-1.34383,37.0827-4.29927,14.46494-13.19584,26.98554-26.44196,37.21437-15.98181,12.33999-36.09696,19.13609-56.64049,19.13609Z"/><path class="cls-5" d="M212.40717,104.82878s21.61504,24.99239,10.80752,62.81871c0,0,41.02239,60.79751-9.62956,95.23547-21.79041,14.81517-42.69748,16.44414-70.67586,13.49005-26.92937-2.84333-59.52162-23.52496-63.56969-60.76715"/><g><g><path class="cls-6" d="M33.15044,161.19956c-.58745,.73291-.7495,1.73752-.42072,2.61726l.48583,1.29997c.51294,1.37253,2.00158,2.07377,3.3869,1.60428l37.13079-12.66418,9.8293-3.35255,118.90371-40.55462,21.7875-7.43095,12.11318-4.13158c.96482-.40537,1.37913-1.01155,1.5605-1.39286,.18024-.38434,.43496-1.16862,.08923-2.09371-.38301-1.02486-1.33906-1.71153-2.43106-1.74789l-4.39064-.14601-18.92184-.63034c-5.39374-.17726-10.106-3.3677-12.55791-8.29439-.0278-.05594-.06949-.10065-.09653-.15687-.05752-.11934-.14949-.20986-.20427-.33108-.01776-.03945-.04851-.06758-.06589-.10716-.12128-.27381-.27564-.5232-.39965-.79512-.84067-1.84611-1.75723-3.6337-2.71117-5.39226-.39689-.73241-.78514-1.46934-1.20112-2.18601-.05443-.09379-.11789-.17946-.1727-.27311-4.78086-8.16799-10.79159-15.28116-17.66836-21.2821-15.60171-13.61444-35.69654-21.3028-56.53881-21.43078-6.61701-.04053-13.29384,.70619-19.92772,2.23964-.3564,.08237-.71395,.14321-1.0703,.23031-1.63091,.3989-3.25191,.87851-4.87401,1.37706-1.65039,.50696-3.30645,.96651-4.94351,1.57832-7.76846,2.90323-14.85228,6.83747-21.21459,11.53956-29.06342,21.47868-42.48059,59.63191-31.02631,95.70448,1.5128,4.75782,.61145,9.8597-2.41434,13.64692l-2.03549,2.55577ZM168.36397,64.89846c-.05759,.07407-.13536,.1195-.1955,.19021-.6778,.79424-1.50308,1.39553-2.42213,1.73899-.35069,.13106-.73453,.05702-1.10195,.12025-1.58554,.27255-3.25347,.07804-4.62663-.98377-1.78393-1.38075-3.65783-2.58275-5.54365-3.75444-9.68652-6.01939-20.58023-9.32485-31.70256-9.64769-4.39458-.12774-8.80891,.30704-13.20004,1.10353-3.75304,.68077-7.48966,1.5772-11.15263,2.94613-2.64642,.98902-5.20849,2.16573-7.68837,3.48745-5.12097,2.72951-9.80796,6.18232-13.99705,10.17345-1.61042,1.5347-3.1942,3.10035-4.63619,4.79993-2.12004,2.50468-5.88154,2.81134-8.38433,.68714-2.50581-2.12307-2.81323-5.87739-.68714-8.38433,3.75498-4.42667,8.07446-8.32355,12.73288-11.76524,5.66135-4.18302,11.85145-7.65878,18.49566-10.14186,6.35663-2.3756,12.87849-3.84005,19.41608-4.4753,1.74218-.16916,3.48219-.16093,5.22362-.20879,9.92155-.27193,19.75621,1.39478,29.04247,4.97409,2.5535,.98419,5.0436,2.1329,7.49876,3.40019,4.10601,2.12023,8.11386,4.49292,11.86303,7.39383,2.59886,2.01249,3.07515,5.7485,1.06568,8.34622Z"/><path d="M40.44296,177.97992l5.60664-1.91492,94.5596-32.25003,99.59568-33.97225c.14073-.04247,.27765-.09249,.41461-.14255,3.57116-1.33563,6.42133-3.94824,8.05694-7.41679,1.70747-3.59078,1.8745-7.62489,.48113-11.34823-2.07092-5.55647-7.25017-9.2764-13.17742-9.47028l-2.14457-.07156-21.17574-.70923c-1.00188-.03796-1.91864-.71997-2.40268-1.77308-.00768-.01522-.02296-.02655-.03064-.04177-.04229-.10268-.09596-.19006-.14587-.2889-.00384-.00761-.00392-.02667-.00774-.03424l-.0499-.09884-.21491-.40672c-1.12183-2.46749-2.31958-4.87754-3.61989-7.20722-.19946-.35722-.39134-.71833-.59453-1.06412-.10734-.17477-.22604-.33431-.32577-.51292l-.27247-.52073-.73298-1.414c-16.85617-27.81032-43.75155-38.92174-55.47799-42.60836-1.90667-.58288-3.8207-1.1048-5.76121-1.56567-.01899,.0001-.03044-.00367-.03044-.00367-19.10298-5.37166-43.71102-.40762-45.23333-.09698-.04943,.01547-.0761,.01938-.0761,.01938l-5.95819,1.61539-2.18395,.58752c-.23588,.06185-.40286,.22245-.62725,.30716-1.07642,.36222-2.16087,.63311-3.23717,1.03341-8.13886,3.04084-15.58046,7.12252-22.3679,11.91392C29.0638,62.70261,13.00388,106.8559,26.25822,148.60136c.31611,.96618,.17142,1.9456-.37444,2.6219l-2.03147,2.55224c-3.18757,3.98504-4.05365,9.43116-2.26388,14.20417l.48501,1.30069c2.77533,7.44289,10.84966,11.26569,18.36952,8.69956Zm-7.22997-12.86434l-.48501-1.30069c-.32716-.87471-.16733-1.88088,.42397-2.61826l2.03147-2.55224c3.02835-3.79016,3.92629-8.88982,2.4184-13.65247-11.45721-36.06985,1.95628-74.22156,31.02062-95.69888,6.36505-4.7021,13.453-8.63387,21.2191-11.54374,1.63917-.60822,3.29421-1.07176,4.94144-1.56956,1.62435-.50529,3.24503-.98014,4.87359-1.38262,.35774-.08518,.71548-.15133,1.07699-.22893,5.27801-1.22427,10.58075-1.94586,15.87414-2.15704,1.35186-.06246,2.70388-.0868,4.0522-.08062,20.84209,.12395,40.933,7.81129,56.5376,21.42744,5.18622,4.52734,9.88363,9.69264,13.93211,15.46229,1.31381,1.88403,2.55923,3.82164,3.73259,5.82422,.05362,.08741,.11875,.17856,.17242,.26594,.42181,.72205,.80175,1.45562,1.2007,2.18915,.9553,1.75974,1.87642,3.54623,2.71394,5.39403,.12678,.26989,.28008,.51689,.3992,.79064,.01919,.038,.04601,.07221,.0652,.11021,.0538,.12546,.14559,.2127,.20702,.33436,.02685,.05318,.0689,.09874,.09577,.15196,2.44933,4.92657,7.16185,8.11887,12.55578,8.29582l18.92061,.62664,4.39591,.14652c1.08946,.04143,2.04431,.72331,2.42923,1.75013,.34261,.92421,.09051,1.7098-.08701,2.09519-.18897,.38162-.59794,.9888-1.56757,1.39254l-12.11094,4.13046-21.78751,7.43253-118.90316,40.55334-9.83254,3.35217-37.12774,12.66876c-1.38456,.47011-2.87657-.2363-3.38852-1.60928Z"/><path d="M148.78447,24.71317c.40511,.12236,.8043,.26193,1.20769,.38942-.41768-.13768-.82195-.26816-1.20769-.38942Z"/><path d="M109.5715,53.66555c-3.75304,.68077-7.48966,1.5772-11.15263,2.94613-2.64642,.98902-5.20849,2.16573-7.68837,3.48745-5.12097,2.72951-9.80796,6.18232-13.99705,10.17345-1.61042,1.5347-3.1942,3.10035-4.63619,4.79993-2.12004,2.50468-5.88154,2.81134-8.38433,.68714-2.50581-2.12307-2.81323-5.87739-.68714-8.38433,3.75498-4.42667,8.07446-8.32355,12.73288-11.76524,5.66135-4.18302,11.85145-7.65878,18.49566-10.14186,6.35663-2.3756,12.87849-3.84005,19.41608-4.4753,1.74218-.16916,3.48219-.16093,5.22362-.20879,9.92155-.27193,19.75621,1.39478,29.04247,4.97409,2.5535,.98419,5.0436,2.1329,7.49876,3.40019,4.10601,2.12023,8.11386,4.49292,11.86303,7.39383,2.59886,2.01249,3.07515,5.7485,1.06568,8.34622-.05759,.07407-.13536,.1195-.1955,.19021-.6778,.79424-1.50308,1.39553-2.42213,1.73899-.35069,.13106-.73453,.05702-1.10195,.12025-1.58554,.27255-3.25347,.07804-4.62663-.98377-1.78393-1.38075-3.65783-2.58275-5.54365-3.75444-9.68652-6.01939-20.58023-9.32485-31.70256-9.64769-4.39458-.12774-8.80891,.30704-13.20004,1.10353Z"/></g><path class="cls-4" d="M76.11425,133.53935c38.06485-3.91267,75.44454-14.40573,109.98472-30.87442"/></g><path class="cls-1" d="M80.02766,213.74412c-5.54685,5.60712-13.24576,9.08103-21.75606,9.08103-16.90088,0-30.60175-13.70087-30.60175-30.60175s13.70087-30.60175,30.60175-30.60175c8.18472,0,15.61896,3.2132,21.11007,8.44695l13.7245,12.35733,16.61442-33.36644,114.8796-37.50493"/><polygon points="71.24932 163.2198 93.10618 182.42594 109.90787 147.75638 71.24932 163.2198"/><path class="cls-2" d="M183.0605,202.46532c7.0396,2.87869,15.07996-.49439,17.95866-7.53399,2.87869-7.0396-.49439-15.07996-7.53399-17.95866-7.0396-2.87869-15.07996,.49439-17.95866,7.53399"/><ellipse cx="156.55263" cy="166.30624" rx="6.01154" ry="14.79294"/><ellipse cx="199.00732" cy="166.30624" rx="6.01154" ry="14.79294"/><path class="cls-4" d="M50.19808,203.58115c-3.78159-2.55479-6.26787-6.88127-6.26787-11.78846,0-7.8515,6.3649-14.21639,14.21639-14.21639,2.94431,0,5.67957,.89506,7.94852,2.42794"/><path class="cls-4" d="M46.02723,184.29328c3.92402,1.65013,7.22512,4.7862,8.98544,9.02867"/><path class="cls-3" d="M156.55263,228.81638s18.79645,13.61581,42.45469,4.27939"/></g></g></svg>