<svg id="Calque_1" data-name="Calque 1" xmlns="http://www.w3.org/2000/svg" viewBox="0 0 212.88 226.79"><defs><style>.cls-1{fill:#ffea00;}</style></defs><path class="cls-1" d="M134.06,206.11a140.16,140.16,0,0,0,33-17.21c.27-.18.54-.38.8-.58L192,169.88a52.93,52.93,0,0,0-5.29-87.74l-7.46-4.38a78.12,78.12,0,0,0-66.09-6.18c-2.12.77-4.22,1.61-6.26,2.55a66.72,66.72,0,0,0,2.41-7l2.21-7.86A33.17,33.17,0,0,0,102.32,26,35.48,35.48,0,0,0,101,22.33,36.9,36.9,0,0,0,66.47,0L48.77.25A43.38,43.38,0,0,0,9.29,27.06L4,39.88a52.41,52.41,0,0,0-.84,38L8.8,93.43l1.14,34.4a205.93,205.93,0,0,0,7.16,47.38L24.17,201a35,35,0,0,0,43.38,24.44l57-16.24C127.76,208.27,130.94,207.25,134.06,206.11Zm-83.14-1.9a14.17,14.17,0,0,1-6.77-8.69l-7.07-25.78a184.46,184.46,0,0,1-6.44-42.59l-1.25-37.7L22.64,70.84a31.73,31.73,0,0,1,.5-23.05L28.44,35A22.62,22.62,0,0,1,49.07,21l17.7-.25A16,16,0,0,1,82,30.54a16.34,16.34,0,0,1,1.34,7.65A13.13,13.13,0,0,1,86.4,39.7a12.41,12.41,0,0,1,5.21,13.94L89.4,61.5A45.72,45.72,0,0,1,65.72,90L82.55,136.4l1-4.08A57.41,57.41,0,0,1,120,91.15l.22-.07a57.41,57.41,0,0,1,48.6,4.54l7.47,4.38a32.2,32.2,0,0,1,3.21,53.4l-24.2,18.45a120.57,120.57,0,0,1-28.3,14.8q-4,1.46-8.09,2.62l-57,16.24A14.24,14.24,0,0,1,50.92,204.21Z"/><path class="cls-1" d="M149,163.25l24-18.32a21.56,21.56,0,0,0-2.15-35.74l-7.47-4.38a46.83,46.83,0,0,0-39.62-3.71l-.17.07a46.76,46.76,0,0,0-29.73,33.55l-5,21.62a5.33,5.33,0,0,1-10.2.61L54,88.93a5.3,5.3,0,0,1,.19-4.08,6,6,0,0,1,3-2.75A35.19,35.19,0,0,0,79.14,58.62l2.21-7.87a1.94,1.94,0,0,0-2.88-2.19l-7.8,8a14.81,14.81,0,0,1-5.52,3.57,14.13,14.13,0,0,1-18.08-8.45l-1.89-5.2A5.33,5.33,0,0,1,47.64,40l6.94-3.78a5.33,5.33,0,0,1,5.09,9.36L56.76,47.2l.32.9A3.65,3.65,0,0,0,63,49.19l5.7-5.88,2.13-2.19a3.59,3.59,0,0,1,.38-.4,5.63,5.63,0,0,0-4.31-9.35l-17.7.25a12,12,0,0,0-10.94,7.43L33,51.86a21.2,21.2,0,0,0-.33,15.34L39.7,86.61A5.12,5.12,0,0,1,40,88.25l1.28,38.55a173.53,173.53,0,0,0,6.07,40.12l7.06,25.79A3.66,3.66,0,0,0,59,195.26L116,179A109.23,109.23,0,0,0,149,163.25Z"/><path d="M127,186.65a120.57,120.57,0,0,0,28.3-14.8l24.2-18.45a32.2,32.2,0,0,0-3.21-53.4l-7.47-4.38a57.41,57.41,0,0,0-48.6-4.54l-.22.07A57.41,57.41,0,0,0,83.5,132.32l-1,4.08L65.72,90A45.72,45.72,0,0,0,89.4,61.5l2.21-7.86A12.41,12.41,0,0,0,86.4,39.7a13.13,13.13,0,0,0-3.11-1.51A16.34,16.34,0,0,0,82,30.54a16,16,0,0,0-15.18-9.82L49.07,21A22.62,22.62,0,0,0,28.44,35l-5.3,12.81a31.73,31.73,0,0,0-.5,23.05l6.75,18.61,1.25,37.7a184.46,184.46,0,0,0,6.44,42.59l7.07,25.78a14.31,14.31,0,0,0,17.72,10l57-16.24Q123,188.1,127,186.65Zm-72.55,6.06-7.06-25.79a173.53,173.53,0,0,1-6.07-40.12L40,88.25a5.12,5.12,0,0,0-.31-1.64L32.65,67.2A21.2,21.2,0,0,1,33,51.86l5.3-12.81a12,12,0,0,1,10.94-7.43l17.7-.25a5.63,5.63,0,0,1,4.31,9.35,3.59,3.59,0,0,0-.38.4l-2.13,2.19L63,49.19a3.65,3.65,0,0,1-5.94-1.09l-.32-.9,2.91-1.59A5.25,5.25,0,0,0,62.28,42a5.25,5.25,0,0,0-7.7-5.74L47.64,40a5.33,5.33,0,0,0-2.46,6.5l1.89,5.2a14.13,14.13,0,0,0,18.08,8.45,14.81,14.81,0,0,0,5.52-3.57l7.8-8a1.94,1.94,0,0,1,2.88,2.19l-2.21,7.87A35.19,35.19,0,0,1,57.21,82.1a6,6,0,0,0-3,2.75A5.3,5.3,0,0,0,54,88.93l24.69,68a5.33,5.33,0,0,0,10.2-.61l5-21.62a46.76,46.76,0,0,1,29.73-33.55l.17-.07a46.83,46.83,0,0,1,39.62,3.71l7.47,4.38A21.56,21.56,0,0,1,173,144.93l-24,18.32A109.23,109.23,0,0,1,116,179L59,195.26a3.66,3.66,0,0,1-4.54-2.55Z"/></svg>