<?xml version="1.0" encoding="UTF-8"?><svg id="Calque_2" xmlns="http://www.w3.org/2000/svg" xmlns:xlink="http://www.w3.org/1999/xlink" viewBox="0 0 142.55 130.2"><defs><style>.cls-1{fill:#ffea0a;}.cls-2{clip-path:url(#clippath-1);}.cls-3{clip-path:url(#clippath);}.cls-4{fill:none;}</style><clipPath id="clippath"><rect class="cls-4" x="0" y="0" width="142.55" height="130.2"/></clipPath><clipPath id="clippath-1"><rect class="cls-4" x="0" y="0" width="142.55" height="130.2"/></clipPath></defs><g id="Calque_1-2"><g class="cls-3"><g class="cls-2"><path class="cls-1" d="M138.99,70.31c2.13-30.86-18.46-58.97-48.74-65.28-.68-.14-1.39-.28-2.1-.38-.17-.03-.34-.06-.52-.09-.23-.04-.47-.08-.7-.11-.12-.01-.23-.03-.35-.04l-4.51-.49c-.24-.03-.48-.05-.72-.06L47.33,.09c-6.84-.75-13.27,3.45-15.44,10.09l-10.95,33.45-5.63,1.09c-7.52,1.5-13.38,7.43-14.92,15.1-1.02,5.09,.03,10.47,2.89,14.75,2.86,4.28,7.31,7.21,12.41,8.15l49.51,8.79,17.67,12.85-1.19,5.9c-1.62,8.06,3.48,15.93,11.39,17.57l9.86,2.05c6.95,1.45,13.91-2.39,16.52-9.11l7.59-19.53c7.34-1.41,13.4-7.19,14.99-15.13l.14-.7c1.06-5.28-.14-10.77-3.18-15.11m-8.22,12.75l-.14,.7c-.8,3.99-4.51,6.56-8.44,5.86l-2.93-.52-10.62,27.33c-.53,1.37-1.96,2.16-3.38,1.86l-9.85-2.05c-1.62-.34-2.66-1.95-2.33-3.59l2.7-13.44-26-18.91-52.1-9.26c-.07-.01-.14-.03-.22-.04-1.88-.39-3.5-1.49-4.58-3.11-1.13-1.68-1.53-3.71-1.13-5.7,.6-2.98,2.88-5.27,5.81-5.84l1.06-.21,10.46-2.04c.5-.1,.9-.52,1.06-1.09,0,0,.01-.01,.01-.02,.01-.05,.04-.1,.05-.16,0,0,0-.01,0-.02l.09-.28c.36-1.34,.77-2.65,1.24-3.94,.07-.2,.14-.39,.21-.58,.04-.1,.08-.19,.12-.28l.09-.29,4.43-13.56,6.52-19.94c.45-1.36,1.76-2.22,3.16-2.07l25.35,2.81,10.26,1.13c1.03,.08,2.05,.2,3.08,.34l1.13,.13c.12,.01,.22,.08,.33,.11,.56,.1,1.13,.15,1.69,.27,4.28,.89,8.29,2.37,12.04,4.25,18.89,9.51,30.31,30.57,26.99,52.74-.08,.51,.07,1,.39,1.3l1.21,1.13c1.89,1.76,2.75,4.45,2.23,7"/><path class="cls-1" d="M100.84,95.4c.96,.7,1.43,1.91,1.19,3.09l-2.49,12.39,4.46,.93,9.24-23.78-29.84-5.3,17.43,12.68Z"/><path class="cls-1" d="M47.82,18.19l-3.59,11c4.37-4.14,9.44-7.43,14.96-9.74l-11.36-1.26Z"/><path class="cls-1" d="M123.29,79.42c-1.8-1.68-2.64-4.18-2.26-6.71,2.87-19.16-6.77-37.39-22.88-45.94-3.53-1.87-7.35-3.3-11.43-4.15-.86-.18-1.72-.28-2.58-.41-.84-.12-1.69-.24-2.53-.31-.18-.02-.37-.02-.55-.03-3.41-.25-6.79-.09-10.07,.45-10.34,1.72-19.72,7.21-26.4,15.34-2.95,3.58-5.38,7.66-7.11,12.17-.02,.05-.04,.1-.06,.15-.15,.4-.29,.8-.43,1.2-.34,.97-.65,1.94-.93,2.94-.04,.15-.1,.29-.14,.43,0,.02-.02,.04-.02,.06-.02,.07-.06,.12-.08,.18,0,.03-.03,.06-.04,.09-.83,2.69-2.92,4.68-5.59,5.19l-9.35,1.82-2.17,.42c-.54,.11-.96,.53-1.07,1.08-.1,.5,.09,.87,.21,1.05,.12,.18,.37,.45,.88,.58l6.34,1.13,11.4,2.03,62.21,11.06,5.14,.91,19.43,3.45c.72,.13,1.41-.35,1.56-1.08l.14-.7c.09-.47-.06-.97-.41-1.29l-1.21-1.13Zm-31.34-8.18c-16.34,0-32.52-2.4-48.24-7.16l.57-1.95c18.42,5.58,37.49,7.88,56.68,6.83l.11,2.03c-3.04,.17-6.08,.25-9.11,.25m10.71-31.48c-1.08,1.27-2.97,1.42-4.22,.32-.85-.75-1.76-1.41-2.68-2.06-2.39-1.69-4.99-3.06-7.74-4.03-1.33-.47-2.7-.86-4.09-1.15-1.93-.4-3.85-.56-5.77-.6-2.24-.05-4.47,.08-6.64,.49-5.5,1.05-10.65,3.59-14.99,7.4-.84,.74-1.68,1.5-2.46,2.34-.6,.65-1.41,.88-2.22,.87-.19,0-.37,.07-.56,.03-.48-.1-.94-.34-1.34-.69-.04-.03-.08-.05-.11-.08-1.2-1.15-1.26-3.08-.12-4.31,1.64-1.77,3.44-3.28,5.31-4.68,1.12-.84,2.27-1.61,3.46-2.32,4.33-2.55,9.09-4.17,14.03-4.82,.87-.11,1.73-.26,2.61-.31,3.3-.2,6.65,.02,9.99,.72,3.49,.73,6.84,1.99,9.98,3.66,2.58,1.37,5.03,3,7.24,4.94,1.25,1.1,1.39,3.02,.31,4.3"/><path d="M128.54,76.06l-1.21-1.13c-.32-.3-.47-.78-.39-1.3,3.32-22.17-8.09-43.23-26.99-52.74-3.75-1.88-7.76-3.36-12.04-4.25-.56-.12-1.13-.17-1.69-.27-.12-.03-.21-.09-.33-.1l-1.13-.13-3.08-.34-10.26-1.14-25.35-2.81c-1.4-.15-2.71,.7-3.16,2.07l-6.52,19.94-4.43,13.56-.09,.29c-.04,.1-.08,.19-.12,.28-.07,.19-.14,.39-.21,.58-.46,1.28-.87,2.6-1.24,3.94l-.09,.28s0,.01,0,.02c-.01,.05-.04,.1-.05,.16,0,0,0,.01-.01,.02-.16,.57-.56,.99-1.06,1.09l-10.46,2.04-1.06,.21c-2.93,.57-5.21,2.86-5.81,5.84-.4,1.99,0,4.02,1.12,5.7,1.08,1.62,2.7,2.72,4.58,3.11,.07,.01,.14,.03,.22,.04l52.1,9.26,26,18.91-2.7,13.44c-.33,1.65,.71,3.26,2.33,3.59l9.85,2.05c1.42,.3,2.85-.49,3.38-1.86l10.62-27.33,2.93,.52c3.93,.7,7.64-1.87,8.44-5.86l.14-.7c.51-2.56-.34-5.24-2.23-7M47.82,18.19l11.36,1.26c-5.51,2.31-10.59,5.6-14.96,9.74l3.59-11Zm56.18,93.62l-4.46-.93,2.49-12.39c.24-1.18-.23-2.39-1.19-3.09l-17.43-12.68,29.84,5.31-9.24,23.78Zm20.91-29.97l-.14,.7c-.15,.74-.83,1.21-1.56,1.08l-19.43-3.45-5.14-.91-62.21-11.06-11.4-2.03-6.34-1.13c-.51-.13-.76-.4-.88-.58-.12-.18-.31-.56-.21-1.05,.11-.55,.53-.97,1.07-1.08l2.17-.42,9.35-1.82c2.66-.52,4.75-2.51,5.59-5.19,0-.03,.03-.06,.04-.09,.02-.07,.06-.12,.08-.18,0-.02,.02-.04,.02-.06,.04-.15,.1-.29,.14-.43,.27-1,.59-1.98,.93-2.94,.14-.4,.28-.81,.43-1.2,.02-.05,.04-.1,.06-.15,1.74-4.51,4.17-8.59,7.11-12.17,6.68-8.13,16.06-13.61,26.4-15.34,3.28-.55,6.66-.7,10.07-.45,.18,.01,.37,.02,.55,.03,.84,.07,1.68,.19,2.53,.31,.86,.13,1.72,.23,2.58,.41,4.08,.85,7.91,2.28,11.43,4.15,16.11,8.55,25.75,26.79,22.88,45.94-.38,2.53,.47,5.04,2.26,6.71l1.21,1.13c.35,.32,.51,.82,.41,1.29"/><path d="M95.1,30.53c-3.14-1.67-6.48-2.93-9.98-3.66-3.34-.7-6.69-.92-9.99-.72-.88,.05-1.74,.2-2.61,.31-4.95,.65-9.7,2.28-14.03,4.82-1.19,.7-2.34,1.48-3.46,2.32-1.87,1.4-3.68,2.92-5.31,4.68-1.13,1.22-1.08,3.15,.12,4.31,.03,.03,.08,.05,.11,.08,.4,.35,.85,.59,1.34,.69,.18,.04,.37-.03,.56-.03,.81,.01,1.62-.22,2.22-.87,.78-.84,1.61-1.6,2.46-2.34,4.34-3.82,9.49-6.35,14.99-7.4,2.17-.41,4.4-.55,6.64-.49,1.92,.05,3.84,.2,5.77,.6,1.39,.29,2.76,.68,4.09,1.15,2.76,.97,5.35,2.35,7.74,4.03,.92,.65,1.83,1.31,2.68,2.06,1.25,1.1,3.14,.95,4.22-.32,1.08-1.27,.94-3.2-.31-4.3-2.21-1.94-4.66-3.57-7.24-4.94"/><path d="M44.27,62.13l-.57,1.95c15.72,4.76,31.91,7.16,48.24,7.16,3.03,0,6.07-.08,9.11-.25l-.11-2.03c-19.19,1.05-38.26-1.25-56.68-6.83"/></g></g></g></svg>