<?xml version="1.0" encoding="UTF-8"?><svg id="Calque_2" xmlns="http://www.w3.org/2000/svg" viewBox="0 0 146.61 143.21"><defs><style>.cls-1{fill:#feea10;}.cls-2{fill:#010101;}</style></defs><g id="Calque_1-2"><g><path class="cls-1" d="M87.78,21.08L29.16,62.64l32.27,45.52,58.62-41.56L87.78,21.08Zm-.8,10.68l12.63,17.81c.88,1.24,.58,2.95-.65,3.83-1.15,.81-2.71,.62-3.63-.4-.07-.08-.14-.16-.2-.25l-12.63-17.81c-.88-1.24-.58-2.95,.65-3.83,1.24-.88,2.93-.59,3.83,.65Zm-46.6,36.95c-.55-.44-.97-1.06-1.15-1.72-.18-.66-.13-1.32,.16-1.83,.2-.32,.42-.63,.66-.91,.85-1.02,1.91-1.81,3.11-2.35,2.66-1.31,5.74-1.82,8.96-1.48,2,.18,4.05,1.13,5.77,2.7,.65,.53,.99,1.39,.84,2.11-.21,1.2-.72,2.26-1.47,3.06-.63,.99-1.59,1.64-2.75,1.87-2.19,.51-4.44,.85-6.74,1.02-1.73,.16-6.73-1.95-7.37-2.46Zm16.4,10.72c.26,.49,.5,.96,.75,1.44,.68,1.27,1.21,2.59,1.57,3.93,.24,.91,.28,1.81,.09,2.62-.11,.52-.6,.99-.93,.92-.36-.04-.7-.35-.83-.74-.2-.57-.36-1.16-.47-1.74-.67-3.04-1.53-6.07-2.59-9.07l-.02-.05h-.05c-.83,.1-1.65,.26-2.44,.47-.72,.17-1.4,.32-1.71,.35-.25,.02-.51,.05-.75,.09-.83,.18-1.73,.17-2.64-.02-.26-.08-.48-.29-.62-.54-.07-.15-.03-.34,0-.53,.01-.07,.03-.15,.03-.23,.7-.41,1.46-.74,2.26-.96,.2-.06,.4-.13,.59-.2,3.2-1.17,6.52-2.1,9.93-2.78,2.04-.38,4.4-.91,6.89-1.47,3.84-.86,7.8-1.75,10.96-2.16,.48,.07,.94,.46,1.12,.97,.11,.35,.06,.98-1.45,1.26-1.13,.25-2.39,.54-3.73,.84-4.39,.99-9.86,2.23-13.78,2.99-.5,.09-1.64,.47-1.66,.47l-.11,.04,.12,.07c.41,.24,.84,.42,1.27,.53,2.59,.29,5.22,1.14,7.74,2.51,.97,.53,1.94,1.11,2.88,1.73,.2,.13,.41,.26,.61,.39,.59,.37,1.07,.94,1.35,1.6,.11,.28,.11,.56,.01,.79-.14,.39-.44,.67-.83,.77-1.16,.24-2.43,.12-3.69-.33-2.69-.91-5.5-2-7.92-3.76-.51-.38-1.04-.72-1.58-1.03-.11-.06-.25-.03-.43,0-.09,.02-.19,.04-.3,.05h-.07l.39,.76Zm3.06,14.24c-.13,.09-.27,.14-.42,.16h-.22c-.15-.04-.28-.1-.4-.19l-.16-.17c-.07-.09-.12-.2-.13-.31-.03-.11-.04-.22-.02-.33,.02-.11,.06-.22,.12-.31,.05-.1,.13-.19,.23-.25,.18-.13,.37-.26,.55-.39,.13-.09,.27-.14,.42-.16h.22c.15,.04,.28,.1,.4,.19l.16,.17c.07,.09,.12,.2,.13,.31,.03,.11,.04,.22,.02,.33-.02,.11-.06,.22-.12,.31-.05,.1-.13,.19-.23,.25-.18,.13-.37,.26-.55,.39Zm24.16-6.19c-6.39,.13-12.69,1.36-18.66,3.65-1.04,.4-1.63-1.23-.59-1.63,6.09-2.34,12.57-3.62,19.09-3.75,1.11-.02,1.27,1.7,.15,1.72Z"/><path class="cls-1" d="M59,77.97h.07c.15,.08,.29,.2,.42,.32,.13,.12,.26,.23,.4,.33,1.78,1.21,3.64,2.19,5.54,2.91,.52,.18,1.04,.3,1.56,.37,.19,.03,.39,.07,.58,.1,.13,0,.24-.06,.3-.17,.03-.23,.06-.48-.07-.57-2.37-1.8-4.98-3.02-7.61-3.54-.01,0-1.2-.19-1.19,.16v.08Z"/><path class="cls-1" d="M56.35,66.23c.31-.5,.25-1.56-.77-2.46-1.68-1.47-4.06-1.53-5.18-1.4-1.38,.13-2.74,.35-4.06,.66-1.6,.43-2.99,1.29-4.06,2.52-.11,.17-.27,.41-.43,.64-.24,.63,.07,1.47,.7,1.92,1.2,.71,2.48,1.15,3.73,1.28,2.68,.21,5.25-.15,7.58-1.04h0c.54-.19,1.03-.47,1.47-.82,.4-.38,.74-.81,1.02-1.31Z"/><path class="cls-1" d="M143.88,67.86L100.21,6.25c-4.73-6.68-13.98-8.25-20.66-3.52L6.25,54.69c-6.68,4.73-8.25,13.98-3.52,20.66l43.67,61.61c4.73,6.68,13.98,8.25,20.66,3.52l73.3-51.96c6.68-4.73,8.25-13.98,3.52-20.66ZM23.74,59.74L86.85,15c.59-.42,1.33-.59,2.05-.47,.72,.12,1.35,.52,1.78,1.12l35.45,50c.88,1.24,.58,2.95-.65,3.83l-63.11,44.74c-1.15,.81-2.71,.62-3.63-.4-.07-.08-.14-.16-.2-.25L23.09,63.57c-.88-1.24-.58-2.95,.65-3.83Zm42.26,64.04c-2.26,1.6-5.02,2.23-7.76,1.77-2.34-.4-4.42-1.55-5.98-3.29-.27-.3-.52-.61-.75-.95l-31.52-44.46c-.88-1.24-.58-2.95,.65-3.83,1.24-.88,2.93-.59,3.83,.65l31.52,44.46c.74,1.06,1.88,1.77,3.17,1.99,1.29,.22,2.59-.08,3.66-.83l58.14-41.22c1.24-.88,2.94-.59,3.83,.65,.88,1.24,.58,2.95-.65,3.83l-58.14,41.22Z"/><path class="cls-2" d="M58.73,113.82c.92,1.03,2.48,1.22,3.63,.4l63.11-44.74c1.24-.88,1.53-2.59,.65-3.83L90.68,15.66c-.43-.6-1.06-1-1.78-1.12-.72-.12-1.46,.05-2.05,.47L23.74,59.74c-1.24,.88-1.53,2.59-.65,3.83l35.45,50c.06,.09,.13,.17,.2,.25ZM29.16,62.64L87.78,21.08l32.27,45.52-58.62,41.56L29.16,62.64Z"/><path class="cls-2" d="M124.79,78.74c-.89-1.25-2.59-1.53-3.83-.65l-58.14,41.22c-1.07,.76-2.37,1.05-3.66,.83-1.29-.22-2.43-.94-3.17-1.99l-31.52-44.46c-.9-1.24-2.59-1.53-3.83-.65-1.24,.88-1.53,2.59-.65,3.83l31.52,44.46c.24,.33,.49,.65,.75,.95,1.56,1.74,3.64,2.89,5.98,3.29,2.74,.47,5.49-.16,7.76-1.77l58.14-41.22c1.24-.88,1.53-2.59,.65-3.83Z"/><path class="cls-2" d="M57.24,68.27c.75-.81,1.26-1.86,1.47-3.06,.16-.72-.18-1.58-.84-2.11-1.72-1.56-3.77-2.52-5.77-2.7-3.22-.34-6.3,.17-8.96,1.48-1.2,.54-2.26,1.33-3.11,2.35-.24,.28-.46,.59-.66,.91-.29,.51-.34,1.17-.16,1.83,.19,.67,.6,1.29,1.15,1.72,.64,.5,5.65,2.62,7.37,2.46,2.3-.17,4.55-.51,6.74-1.02,1.15-.23,2.12-.89,2.75-1.87Zm-3.38,.09c-2.32,.9-4.9,1.25-7.58,1.04-1.25-.13-2.53-.57-3.73-1.28-.64-.45-.95-1.3-.7-1.92,.16-.24,.31-.47,.43-.64,1.08-1.23,2.46-2.09,4.06-2.52,1.32-.31,2.68-.53,4.06-.66,1.12-.13,3.49-.08,5.18,1.4,1.03,.9,1.09,1.96,.77,2.46-.28,.49-.62,.93-1.02,1.31-.44,.35-.93,.63-1.47,.82h0Z"/><path class="cls-2" d="M56.76,78.61c.18-.03,.32-.06,.43,0,.54,.31,1.07,.65,1.58,1.03,2.42,1.77,5.24,2.85,7.92,3.76,1.26,.46,2.53,.57,3.69,.33,.39-.1,.69-.38,.83-.77,.1-.23,.1-.51-.01-.79-.28-.66-.77-1.23-1.35-1.6-.2-.13-.41-.26-.61-.39-.94-.63-1.9-1.2-2.88-1.73-2.52-1.37-5.15-2.22-7.74-2.51-.43-.11-.86-.28-1.27-.53l-.12-.07,.11-.04s1.16-.38,1.66-.47c3.92-.76,9.38-2,13.78-2.99,1.34-.31,2.6-.59,3.73-.84,1.51-.29,1.56-.91,1.45-1.26-.19-.51-.65-.91-1.12-.97-3.16,.42-7.13,1.3-10.96,2.16-2.49,.56-4.85,1.09-6.89,1.47-3.41,.68-6.73,1.61-9.93,2.78-.2,.07-.39,.13-.59,.2-.8,.22-1.56,.55-2.26,.96,0,.08-.02,.15-.03,.23-.03,.19-.06,.39,0,.53,.14,.26,.37,.46,.62,.54,.91,.19,1.8,.2,2.64,.02,.24-.03,.5-.07,.75-.09,.3-.03,.99-.19,1.71-.35,.79-.21,1.6-.36,2.44-.47h.05l.02,.05c1.05,3,1.91,6.04,2.59,9.07,.11,.58,.27,1.16,.47,1.74,.13,.39,.47,.69,.83,.74,.33,.07,.81-.41,.93-.92,.19-.81,.16-1.72-.09-2.62-.36-1.34-.89-2.66-1.57-3.93-.24-.48-.49-.95-.75-1.44l-.39-.75h.07c.1-.02,.2-.04,.3-.06Zm3.43-.88c2.63,.52,5.24,1.74,7.61,3.54,.13,.09,.1,.33,.07,.57-.06,.12-.17,.18-.3,.17-.19-.03-.39-.07-.58-.1-.52-.07-1.04-.19-1.56-.37-1.9-.72-3.77-1.7-5.54-2.91-.14-.1-.27-.21-.4-.33-.13-.13-.27-.24-.42-.33h-.07v-.07c-.01-.35,1.18-.16,1.19-.16Z"/><path class="cls-2" d="M83.86,85.75c-6.52,.13-13,1.41-19.09,3.75-1.04,.4-.45,2.03,.59,1.63,5.96-2.29,12.27-3.52,18.66-3.65,1.12-.02,.96-1.75-.15-1.72Z"/><path class="cls-2" d="M60.75,92.71c.02-.11,.02-.22-.02-.33-.02-.12-.06-.22-.13-.31l-.16-.17c-.12-.1-.25-.16-.4-.18h-.22c-.16,0-.3,.06-.42,.15-.18,.13-.37,.26-.55,.39-.1,.07-.18,.15-.23,.25-.07,.09-.11,.19-.12,.31-.02,.11-.02,.22,.02,.33,.02,.12,.06,.22,.13,.31l.16,.17c.12,.1,.25,.16,.4,.18h.22c.16,0,.3-.06,.42-.15,.18-.13,.37-.26,.55-.39,.1-.07,.18-.15,.23-.25,.07-.09,.11-.19,.12-.31Z"/><path class="cls-2" d="M82.5,34.93l12.63,17.81c.06,.09,.13,.17,.2,.25,.92,1.03,2.48,1.22,3.63,.4,1.24-.88,1.53-2.59,.65-3.83l-12.63-17.81c-.9-1.25-2.59-1.53-3.83-.65-1.24,.88-1.53,2.59-.65,3.83Z"/></g></g></svg>