<svg xmlns="http://www.w3.org/2000/svg" width="66.019" height="64.157" viewBox="0 0 66.019 64.157">
  <path id="rond-photo" d="M24.782,9.464A35.256,35.256,0,0,0,8.276,20.917,35.692,35.692,0,0,0,.027,41.338,21.158,21.158,0,0,0,2.4,52.531,19.336,19.336,0,0,0,8.985,59.4c5.867,3.747,13.116,4.865,19.846,4.743a33.3,33.3,0,0,0,11-1.985,35.324,35.324,0,0,0,8.7-4.745A44.989,44.989,0,0,0,61.611,41.751a41.356,41.356,0,0,0,3.975-11.08,21.964,21.964,0,0,0-.84-11.8c-2.722-7.286-8.73-12.231-15.36-15.1A52.284,52.284,0,0,0,38.358.416a25.815,25.815,0,0,0-9.236,0A35.147,35.147,0,0,0,11.285,9.827,41.79,41.79,0,0,0,7.59,13.837c-.456.563.309,1.39.768.823A37.217,37.217,0,0,1,24.694,2.776a27.655,27.655,0,0,1,9.03-1.62,34.256,34.256,0,0,1,9.7,1.717c6.88,2.009,13.7,5.438,17.952,11.821a20.716,20.716,0,0,1,3.514,9.691,28.191,28.191,0,0,1-2.24,12.392,45.775,45.775,0,0,1-11,16.55,34.418,34.418,0,0,1-16.566,9,39.734,39.734,0,0,1-12.27.375,35.029,35.029,0,0,1-8.992-2.135,21.883,21.883,0,0,1-7.69-4.9A17.45,17.45,0,0,1,1.487,46.8C.025,39.483,2.521,31.71,6.276,25.634a35.822,35.822,0,0,1,14.445-13.3,30.868,30.868,0,0,1,4.349-1.743c.669-.212.384-1.336-.289-1.123" transform="translate(0 0.001)"/>
</svg>
